<svg width="512" height="512" viewBox="0 0 512 512" fill="none" xmlns="http://www.w3.org/2000/svg">
<circle cx="256" cy="256" r="236" fill="#E5E5E5" stroke="black" stroke-width="40"/>
<path d="M220.1 353L207.16 310.52H142.097L129.157 353H88.3857L151.374 173.801H197.639L260.871 353H220.1ZM198.127 278.781L185.188 237.277C184.374 234.51 183.275 230.97 181.892 226.657C180.59 222.263 179.247 217.827 177.863 213.352C176.561 208.794 175.503 204.847 174.689 201.511C173.876 204.847 172.736 208.998 171.271 213.962C169.888 218.845 168.545 223.483 167.243 227.878C165.941 232.272 165.005 235.406 164.436 237.277L151.618 278.781H198.127ZM382.941 249.973L377.204 278.293H408.698V303.439H372.443L363.044 353H336.188L345.71 303.439H322.028L312.751 353H286.506L295.539 303.439H266.486V278.293H300.3L306.037 249.973H275.275V224.46H310.554L319.953 174.777H346.687L337.287 224.46H361.457L370.979 174.777H397.224L387.702 224.46H416.999V249.973H382.941ZM326.789 278.293H350.715L356.452 249.973H332.526L326.789 278.293Z" fill="black"/>
</svg>
