<svg width="512" height="512" viewBox="0 0 512 512" fill="none" xmlns="http://www.w3.org/2000/svg">
<circle cx="256" cy="256" r="236" fill="#E5E5E5" stroke="black" stroke-width="40"/>
<path d="M300.91 353L287.971 310.52H222.907L209.968 353H169.196L232.185 173.801H278.449L341.682 353H300.91ZM278.938 278.781L265.998 237.277C265.184 234.51 264.086 230.97 262.702 226.657C261.4 222.263 260.057 217.827 258.674 213.352C257.372 208.794 256.314 204.847 255.5 201.511C254.686 204.847 253.547 208.998 252.082 213.962C250.699 218.845 249.356 223.483 248.054 227.878C246.752 232.272 245.816 235.406 245.246 237.277L232.429 278.781H278.938Z" fill="black"/>
</svg>
