<svg width="512" height="512" viewBox="0 0 512 512" fill="none" xmlns="http://www.w3.org/2000/svg">
<circle cx="256" cy="256" r="236" fill="#E5E5E5" stroke="black" stroke-width="40"/>
<path d="M193.477 174.533H249.019C272.782 174.533 290.767 177.87 302.974 184.543C315.181 191.216 321.284 202.935 321.284 219.699C321.284 226.454 320.186 232.557 317.988 238.01C315.872 243.462 312.78 247.938 308.711 251.438C304.642 254.937 299.678 257.215 293.818 258.273V259.494C299.759 260.715 305.13 262.831 309.932 265.842C314.733 268.771 318.558 273.085 321.406 278.781C324.336 284.396 325.801 291.883 325.801 301.242C325.801 312.066 323.156 321.343 317.866 329.074C312.576 336.805 305.008 342.746 295.161 346.896C285.396 350.965 273.758 353 260.249 353H193.477V174.533ZM231.318 245.212H253.291C264.277 245.212 271.886 243.503 276.118 240.085C280.35 236.586 282.466 231.459 282.466 224.704C282.466 217.868 279.943 212.985 274.897 210.056C269.933 207.045 262.039 205.539 251.216 205.539H231.318V245.212ZM231.318 275.241V321.75H255.977C267.37 321.75 275.304 319.553 279.78 315.158C284.256 310.764 286.494 304.864 286.494 297.458C286.494 293.063 285.518 289.198 283.564 285.861C281.611 282.525 278.315 279.921 273.677 278.049C269.119 276.177 262.812 275.241 254.756 275.241H231.318Z" fill="black"/>
</svg>
