<svg width="512" height="512" viewBox="0 0 512 512" fill="none" xmlns="http://www.w3.org/2000/svg">
<circle cx="256" cy="256" r="236" fill="#E5E5E5" stroke="black" stroke-width="40"/>
<path d="M193.744 203.464C186.501 203.464 180.072 204.888 174.457 207.736C168.923 210.503 164.244 214.532 160.419 219.821C156.675 225.111 153.827 231.499 151.874 238.986C149.921 246.473 148.944 254.896 148.944 264.255C148.944 276.869 150.491 287.652 153.583 296.604C156.757 305.474 161.64 312.269 168.231 316.989C174.823 321.628 183.327 323.947 193.744 323.947C200.987 323.947 208.23 323.133 215.473 321.506C222.797 319.878 230.731 317.559 239.276 314.548V346.286C231.382 349.541 223.611 351.861 215.961 353.244C208.311 354.709 199.726 355.441 190.204 355.441C171.812 355.441 156.675 351.657 144.794 344.089C132.994 336.439 124.245 325.778 118.549 312.106C112.852 298.353 110.004 282.321 110.004 264.011C110.004 250.502 111.835 238.132 115.497 226.901C119.159 215.671 124.53 205.946 131.61 197.727C138.69 189.507 147.439 183.16 157.855 178.684C168.272 174.208 180.235 171.97 193.744 171.97C202.615 171.97 211.485 173.109 220.355 175.388C229.307 177.585 237.852 180.637 245.99 184.543L233.783 215.305C227.11 212.131 220.396 209.364 213.642 207.004C206.887 204.644 200.255 203.464 193.744 203.464ZM376.85 249.973L371.112 278.293H402.606V303.439H366.352L356.952 353H330.097L339.618 303.439H315.937L306.659 353H280.414L289.447 303.439H260.395V278.293H294.208L299.945 249.973H269.184V224.46H304.462L313.861 174.777H340.595L331.195 224.46H355.365L364.887 174.777H391.132L381.61 224.46H410.907V249.973H376.85ZM320.697 278.293H344.623L350.36 249.973H326.435L320.697 278.293Z" fill="black"/>
</svg>
