<svg width="512" height="512" viewBox="0 0 512 512" fill="none" xmlns="http://www.w3.org/2000/svg">
<circle cx="256" cy="256" r="236" fill="#E5E5E5" stroke="black" stroke-width="40"/>
<path d="M274.555 203.464C267.312 203.464 260.883 204.888 255.268 207.736C249.734 210.503 245.054 214.532 241.229 219.821C237.486 225.111 234.638 231.499 232.685 238.986C230.731 246.473 229.755 254.896 229.755 264.255C229.755 276.869 231.301 287.652 234.394 296.604C237.567 305.474 242.45 312.269 249.042 316.989C255.634 321.628 264.138 323.947 274.555 323.947C281.798 323.947 289.04 323.133 296.283 321.506C303.607 319.878 311.542 317.559 320.087 314.548V346.286C312.193 349.541 304.421 351.861 296.771 353.244C289.122 354.709 280.536 355.441 271.015 355.441C252.623 355.441 237.486 351.657 225.604 344.089C213.804 336.439 205.056 325.778 199.359 312.106C193.663 298.353 190.814 282.321 190.814 264.011C190.814 250.502 192.646 238.132 196.308 226.901C199.97 215.671 205.341 205.946 212.421 197.727C219.501 189.507 228.249 183.16 238.666 178.684C249.083 174.208 261.046 171.97 274.555 171.97C283.425 171.97 292.296 173.109 301.166 175.388C310.118 177.585 318.663 180.637 326.801 184.543L314.594 215.305C307.921 212.131 301.207 209.364 294.452 207.004C287.698 204.644 281.065 203.464 274.555 203.464Z" fill="black"/>
</svg>
