<svg width="500" height="500" viewBox="0 0 500 500" fill="none" xmlns="http://www.w3.org/2000/svg">
<path d="M289.767 250L466.76 73.0257C477.747 62.0389 477.747 44.226 466.76 33.2401C455.773 22.2533 437.96 22.2533 426.974 33.2401L250 210.232L73.0257 33.2401C62.0389 22.2533 44.226 22.2533 33.2401 33.2401C22.2542 44.2268 22.2533 62.0398 33.2401 73.0257L210.232 250L33.2401 426.974C22.2533 437.961 22.2533 455.774 33.2401 466.76C44.2268 477.746 62.0398 477.747 73.0257 466.76L250 289.767L426.973 466.76C437.96 477.747 455.773 477.747 466.759 466.76C477.746 455.773 477.746 437.96 466.759 426.974L289.767 250Z" fill="#DD0000" stroke="#DD0000" stroke-width="50"/>
</svg>
