<svg width="512" height="512" viewBox="0 0 512 512" fill="none" xmlns="http://www.w3.org/2000/svg">
<circle cx="256" cy="256" r="236" fill="#E5E5E5" stroke="black" stroke-width="40"/>
<path d="M253.692 262.058C253.692 282.159 249.827 298.964 242.096 312.473C234.446 325.9 223.338 336.032 208.771 342.868C194.203 349.623 176.666 353 156.158 353H105.621V174.533H161.651C180.369 174.533 196.604 177.87 210.357 184.543C224.111 191.135 234.771 200.941 242.34 213.962C249.908 226.901 253.692 242.933 253.692 262.058ZM214.386 263.034C214.386 249.851 212.433 239.027 208.526 230.563C204.701 222.019 199.005 215.712 191.437 211.643C183.95 207.574 174.672 205.539 163.604 205.539H143.463V321.75H159.698C178.172 321.75 191.884 316.826 200.836 306.979C209.869 297.132 214.386 282.484 214.386 263.034ZM390.167 249.973L384.43 278.293H415.924V303.439H379.669L370.27 353H343.414L352.936 303.439H329.254L319.977 353H293.731L302.765 303.439H273.712V278.293H307.525L313.263 249.973H282.501V224.46H317.779L327.179 174.777H353.912L344.513 224.46H368.683L378.204 174.777H404.449L394.928 224.46H424.225V249.973H390.167ZM334.015 278.293H357.94L363.678 249.973H339.752L334.015 278.293Z" fill="black"/>
</svg>
