<svg width="512" height="512" viewBox="0 0 512 512" fill="none" xmlns="http://www.w3.org/2000/svg">
<circle cx="256" cy="256" r="236" fill="#E5E5E5" stroke="black" stroke-width="40"/>
<path d="M334.003 262.058C334.003 282.159 330.137 298.964 322.406 312.473C314.757 325.9 303.648 336.032 289.081 342.868C274.514 349.623 256.977 353 236.469 353H185.932V174.533H241.962C260.679 174.533 276.915 177.87 290.668 184.543C304.421 191.135 315.082 200.941 322.65 213.962C330.219 226.901 334.003 242.933 334.003 262.058ZM294.696 263.034C294.696 249.851 292.743 239.027 288.837 230.563C285.012 222.019 279.315 215.712 271.747 211.643C264.26 207.574 254.983 205.539 243.915 205.539H223.773V321.75H240.009C258.482 321.75 272.195 316.826 281.146 306.979C290.18 297.132 294.696 282.484 294.696 263.034Z" fill="black"/>
</svg>
