<svg width="512" height="512" viewBox="0 0 512 512" fill="none" xmlns="http://www.w3.org/2000/svg">
<circle cx="256" cy="256" r="236" fill="#E5E5E5" stroke="black" stroke-width="40"/>
<path d="M191.84 261.246C191.84 277.327 188.747 290.771 182.562 301.578C176.443 312.32 167.556 320.426 155.902 325.895C144.249 331.298 130.219 334 113.812 334H73.3828V191.227H118.207C133.181 191.227 146.169 193.896 157.172 199.234C168.174 204.508 176.703 212.353 182.758 222.77C188.812 233.121 191.84 245.947 191.84 261.246ZM160.395 262.027C160.395 251.48 158.832 242.822 155.707 236.051C152.647 229.215 148.09 224.169 142.035 220.914C136.046 217.659 128.624 216.031 119.77 216.031H103.656V309H116.645C131.423 309 142.393 305.061 149.555 297.184C156.781 289.306 160.395 277.587 160.395 262.027ZM318.305 279.215C318.305 288.329 317.068 296.402 314.594 303.434C312.185 310.465 308.637 316.422 303.949 321.305C299.327 326.122 293.728 329.768 287.152 332.242C280.642 334.716 273.285 335.953 265.082 335.953C257.4 335.953 250.336 334.716 243.891 332.242C237.51 329.768 231.944 326.122 227.191 321.305C222.504 316.422 218.858 310.465 216.254 303.434C213.715 296.402 212.445 288.329 212.445 279.215C212.445 267.105 214.594 256.852 218.891 248.453C223.188 240.055 229.307 233.674 237.25 229.312C245.193 224.951 254.665 222.77 265.668 222.77C275.889 222.77 284.939 224.951 292.816 229.312C300.759 233.674 306.977 240.055 311.469 248.453C316.026 256.852 318.305 267.105 318.305 279.215ZM242.816 279.215C242.816 286.376 243.598 292.398 245.16 297.281C246.723 302.164 249.164 305.842 252.484 308.316C255.805 310.79 260.134 312.027 265.473 312.027C270.746 312.027 275.01 310.79 278.266 308.316C281.586 305.842 283.995 302.164 285.492 297.281C287.055 292.398 287.836 286.376 287.836 279.215C287.836 271.988 287.055 265.999 285.492 261.246C283.995 256.428 281.586 252.815 278.266 250.406C274.945 247.997 270.616 246.793 265.277 246.793C257.4 246.793 251.671 249.495 248.09 254.898C244.574 260.302 242.816 268.408 242.816 279.215ZM424.848 251.578L420.258 274.234H445.453V294.352H416.449L408.93 334H387.445L395.062 294.352H376.117L368.695 334H347.699L354.926 294.352H331.684V274.234H358.734L363.324 251.578H338.715V231.168H366.938L374.457 191.422H395.844L388.324 231.168H407.66L415.277 191.422H436.273L428.656 231.168H452.094V251.578H424.848ZM379.926 274.234H399.066L403.656 251.578H384.516L379.926 274.234Z" fill="black"/>
</svg>
