<svg width="512" height="512" viewBox="0 0 512 512" fill="none" xmlns="http://www.w3.org/2000/svg">
<circle cx="256" cy="256" r="236" fill="#E5E5E5" stroke="black" stroke-width="40"/>
<path d="M190.082 185.504V291.324H207.221V351.441H180.941V314H100.434V351.441H74.1543V291.324H84.0859C87.4258 284.645 90.6484 277.584 93.7539 270.143C96.8594 262.701 99.7598 254.703 102.455 246.148C105.15 237.594 107.582 228.307 109.75 218.287C111.918 208.268 113.734 197.34 115.199 185.504H190.082ZM162.924 208.18H136.82C135.941 214.391 134.74 221.012 133.217 228.043C131.693 235.074 129.877 242.252 127.768 249.576C125.717 256.842 123.402 264.02 120.824 271.109C118.305 278.199 115.609 284.938 112.738 291.324H162.924V208.18ZM314.271 264.693C314.271 272.896 313.158 280.162 310.932 286.49C308.764 292.818 305.57 298.18 301.352 302.574C297.191 306.91 292.152 310.191 286.234 312.418C280.375 314.645 273.754 315.758 266.371 315.758C259.457 315.758 253.1 314.645 247.299 312.418C241.557 310.191 236.547 306.91 232.27 302.574C228.051 298.18 224.77 292.818 222.426 286.49C220.141 280.162 218.998 272.896 218.998 264.693C218.998 253.795 220.932 244.566 224.799 237.008C228.666 229.449 234.174 223.707 241.322 219.781C248.471 215.855 256.996 213.893 266.898 213.893C276.098 213.893 284.242 215.855 291.332 219.781C298.48 223.707 304.076 229.449 308.119 237.008C312.221 244.566 314.271 253.795 314.271 264.693ZM246.332 264.693C246.332 271.139 247.035 276.559 248.441 280.953C249.848 285.348 252.045 288.658 255.033 290.885C258.021 293.111 261.918 294.225 266.723 294.225C271.469 294.225 275.307 293.111 278.236 290.885C281.225 288.658 283.393 285.348 284.74 280.953C286.146 276.559 286.85 271.139 286.85 264.693C286.85 258.189 286.146 252.799 284.74 248.521C283.393 244.186 281.225 240.934 278.236 238.766C275.248 236.598 271.352 235.514 266.547 235.514C259.457 235.514 254.301 237.945 251.078 242.809C247.914 247.672 246.332 254.967 246.332 264.693ZM410.16 239.82L406.029 260.211H428.705V278.316H402.602L395.834 314H376.498L383.354 278.316H366.303L359.623 314H340.727L347.23 278.316H326.312V260.211H350.658L354.789 239.82H332.641V221.451H358.041L364.809 185.68H384.057L377.289 221.451H394.691L401.547 185.68H420.443L413.588 221.451H434.682V239.82H410.16ZM369.73 260.211H386.957L391.088 239.82H373.861L369.73 260.211Z" fill="black"/>
</svg>
