<svg width="512" height="512" viewBox="0 0 512 512" fill="none" xmlns="http://www.w3.org/2000/svg">
<circle cx="256" cy="256" r="236" fill="#E5E5E5" stroke="black" stroke-width="40"/>
<path d="M248.266 185.504V291.324H265.404V351.441H239.125V314H158.617V351.441H132.338V291.324H142.27C145.609 284.645 148.832 277.584 151.938 270.143C155.043 262.701 157.943 254.703 160.639 246.148C163.334 237.594 165.766 228.307 167.934 218.287C170.102 208.268 171.918 197.34 173.383 185.504H248.266ZM221.107 208.18H195.004C194.125 214.391 192.924 221.012 191.4 228.043C189.877 235.074 188.061 242.252 185.951 249.576C183.9 256.842 181.586 264.02 179.008 271.109C176.488 278.199 173.793 284.938 170.922 291.324H221.107V208.18ZM372.455 264.693C372.455 272.896 371.342 280.162 369.115 286.49C366.947 292.818 363.754 298.18 359.535 302.574C355.375 306.91 350.336 310.191 344.418 312.418C338.559 314.645 331.938 315.758 324.555 315.758C317.641 315.758 311.283 314.645 305.482 312.418C299.74 310.191 294.73 306.91 290.453 302.574C286.234 298.18 282.953 292.818 280.609 286.49C278.324 280.162 277.182 272.896 277.182 264.693C277.182 253.795 279.115 244.566 282.982 237.008C286.85 229.449 292.357 223.707 299.506 219.781C306.654 215.855 315.18 213.893 325.082 213.893C334.281 213.893 342.426 215.855 349.516 219.781C356.664 223.707 362.26 229.449 366.303 237.008C370.404 244.566 372.455 253.795 372.455 264.693ZM304.516 264.693C304.516 271.139 305.219 276.559 306.625 280.953C308.031 285.348 310.229 288.658 313.217 290.885C316.205 293.111 320.102 294.225 324.906 294.225C329.652 294.225 333.49 293.111 336.42 290.885C339.408 288.658 341.576 285.348 342.924 280.953C344.33 276.559 345.033 271.139 345.033 264.693C345.033 258.189 344.33 252.799 342.924 248.521C341.576 244.186 339.408 240.934 336.42 238.766C333.432 236.598 329.535 235.514 324.73 235.514C317.641 235.514 312.484 237.945 309.262 242.809C306.098 247.672 304.516 254.967 304.516 264.693Z" fill="black"/>
</svg>
