<svg width="512" height="512" viewBox="0 0 512 512" fill="none" xmlns="http://www.w3.org/2000/svg">
<circle cx="256" cy="256" r="236" fill="#E5E5E5" stroke="black" stroke-width="40"/>
<path d="M122.773 334H92.9883V191.227H174.824V216.031H122.773V252.848H171.211V277.555H122.773V334ZM245.137 222.574C259.785 222.574 271.016 225.764 278.828 232.145C286.641 238.525 290.547 248.225 290.547 261.246V334H269.746L263.984 319.156H263.203C260.078 323.062 256.888 326.253 253.633 328.727C250.378 331.201 246.634 333.023 242.402 334.195C238.171 335.367 233.027 335.953 226.973 335.953C220.527 335.953 214.733 334.716 209.59 332.242C204.512 329.768 200.508 325.992 197.578 320.914C194.648 315.771 193.184 309.26 193.184 301.383C193.184 289.794 197.253 281.266 205.391 275.797C213.529 270.263 225.736 267.203 242.012 266.617L260.957 266.031V261.246C260.957 255.517 259.46 251.318 256.465 248.648C253.47 245.979 249.303 244.645 243.965 244.645C238.691 244.645 233.516 245.393 228.438 246.891C223.359 248.388 218.281 250.276 213.203 252.555L203.34 232.438C209.134 229.378 215.612 226.969 222.773 225.211C230 223.453 237.454 222.574 245.137 222.574ZM260.957 283.414L249.434 283.805C239.798 284.065 233.092 285.79 229.316 288.98C225.605 292.171 223.75 296.37 223.75 301.578C223.75 306.135 225.085 309.391 227.754 311.344C230.423 313.232 233.906 314.176 238.203 314.176C244.583 314.176 249.954 312.288 254.316 308.512C258.743 304.736 260.957 299.365 260.957 292.398V283.414ZM403.242 251.578L398.652 274.234H423.848V294.352H394.844L387.324 334H365.84L373.457 294.352H354.512L347.09 334H326.094L333.32 294.352H310.078V274.234H337.129L341.719 251.578H317.109V231.168H345.332L352.852 191.422H374.238L366.719 231.168H386.055L393.672 191.422H414.668L407.051 231.168H430.488V251.578H403.242ZM358.32 274.234H377.461L382.051 251.578H362.91L358.32 274.234Z" fill="black"/>
</svg>
