<svg width="512" height="512" viewBox="0 0 512 512" fill="none" xmlns="http://www.w3.org/2000/svg">
<circle cx="256" cy="256" r="236" fill="#E5E5E5" stroke="black" stroke-width="40"/>
<path d="M155.129 183.658V199.479C169.133 199.83 180.295 202.262 188.615 206.773C196.936 211.285 202.941 217.115 206.633 224.264C210.324 231.354 212.17 239.059 212.17 247.379C212.17 252.828 211.232 258.365 209.357 263.99C207.482 269.615 204.348 274.801 199.953 279.547C195.617 284.293 189.787 288.16 182.463 291.148C175.139 294.137 166.027 295.748 155.129 295.982V315.758H130.607V295.982C119.533 295.748 110.305 294.137 102.922 291.148C95.5977 288.102 89.7676 284.205 85.4316 279.459C81.1543 274.654 78.1074 269.439 76.291 263.814C74.4746 258.189 73.5664 252.711 73.5664 247.379C73.5664 241.109 74.5625 235.162 76.5547 229.537C78.6055 223.912 81.8574 218.902 86.3105 214.508C90.8223 210.055 96.7109 206.51 103.977 203.873C111.242 201.236 120.119 199.771 130.607 199.479V183.658H155.129ZM130.607 220.748C122.814 221.1 116.604 222.447 111.975 224.791C107.404 227.135 104.123 230.24 102.131 234.107C100.139 237.916 99.1426 242.281 99.1426 247.203C99.1426 252.594 100.227 257.311 102.395 261.354C104.621 265.396 108.049 268.59 112.678 270.934C117.365 273.277 123.342 274.625 130.607 274.977V220.748ZM155.129 220.748V274.977C162.453 274.625 168.43 273.277 173.059 270.934C177.688 268.59 181.086 265.396 183.254 261.354C185.48 257.311 186.594 252.594 186.594 247.203C186.594 242.281 185.598 237.916 183.605 234.107C181.613 230.24 178.303 227.135 173.674 224.791C169.104 222.447 162.922 221.1 155.129 220.748ZM274.66 213.717C287.844 213.717 297.951 216.588 304.982 222.33C312.014 228.072 315.529 236.803 315.529 248.521V314H296.809L291.623 300.641H290.92C288.107 304.156 285.236 307.027 282.307 309.254C279.377 311.48 276.008 313.121 272.199 314.176C268.391 315.23 263.762 315.758 258.312 315.758C252.512 315.758 247.297 314.645 242.668 312.418C238.098 310.191 234.494 306.793 231.857 302.223C229.221 297.594 227.902 291.734 227.902 284.645C227.902 274.215 231.564 266.539 238.889 261.617C246.213 256.637 257.199 253.883 271.848 253.355L288.898 252.828V248.521C288.898 243.365 287.551 239.586 284.855 237.184C282.16 234.781 278.41 233.58 273.605 233.58C268.859 233.58 264.201 234.254 259.631 235.602C255.061 236.949 250.49 238.648 245.92 240.699L237.043 222.594C242.258 219.84 248.088 217.672 254.533 216.09C261.037 214.508 267.746 213.717 274.66 213.717ZM288.898 268.473L278.527 268.824C269.855 269.059 263.82 270.611 260.422 273.482C257.082 276.354 255.412 280.133 255.412 284.82C255.412 288.922 256.613 291.852 259.016 293.609C261.418 295.309 264.553 296.158 268.42 296.158C274.162 296.158 278.996 294.459 282.922 291.061C286.906 287.662 288.898 282.828 288.898 276.559V268.473ZM416.955 239.82L412.824 260.211H435.5V278.316H409.396L402.629 314H383.293L390.148 278.316H373.098L366.418 314H347.521L354.025 278.316H333.107V260.211H357.453L361.584 239.82H339.436V221.451H364.836L371.604 185.68H390.852L384.084 221.451H401.486L408.342 185.68H427.238L420.383 221.451H441.477V239.82H416.955ZM376.525 260.211H393.752L397.883 239.82H380.656L376.525 260.211Z" fill="black"/>
</svg>
