<svg width="512" height="512" viewBox="0 0 512 512" fill="none" xmlns="http://www.w3.org/2000/svg">
<circle cx="256" cy="256" r="236" fill="#E5E5E5" stroke="black" stroke-width="40"/>
<path d="M187.922 334H158.137V191.227H239.973V216.031H187.922V252.848H236.359V277.555H187.922V334ZM310.285 222.574C324.934 222.574 336.164 225.764 343.977 232.145C351.789 238.525 355.695 248.225 355.695 261.246V334H334.895L329.133 319.156H328.352C325.227 323.062 322.036 326.253 318.781 328.727C315.526 331.201 311.783 333.023 307.551 334.195C303.319 335.367 298.176 335.953 292.121 335.953C285.676 335.953 279.882 334.716 274.738 332.242C269.66 329.768 265.656 325.992 262.727 320.914C259.797 315.771 258.332 309.26 258.332 301.383C258.332 289.794 262.401 281.266 270.539 275.797C278.677 270.263 290.884 267.203 307.16 266.617L326.105 266.031V261.246C326.105 255.517 324.608 251.318 321.613 248.648C318.618 245.979 314.452 244.645 309.113 244.645C303.84 244.645 298.664 245.393 293.586 246.891C288.508 248.388 283.43 250.276 278.352 252.555L268.488 232.438C274.283 229.378 280.76 226.969 287.922 225.211C295.148 223.453 302.603 222.574 310.285 222.574ZM326.105 283.414L314.582 283.805C304.947 284.065 298.241 285.79 294.465 288.98C290.754 292.171 288.898 296.37 288.898 301.578C288.898 306.135 290.233 309.391 292.902 311.344C295.572 313.232 299.055 314.176 303.352 314.176C309.732 314.176 315.103 312.288 319.465 308.512C323.892 304.736 326.105 299.365 326.105 292.398V283.414Z" fill="black"/>
</svg>
