<svg width="512" height="512" viewBox="0 0 512 512" fill="none" xmlns="http://www.w3.org/2000/svg">
<circle cx="256" cy="256" r="236" fill="#E5E5E5" stroke="black" stroke-width="40"/>
<path d="M213.812 183.658V199.479C227.816 199.83 238.979 202.262 247.299 206.773C255.619 211.285 261.625 217.115 265.316 224.264C269.008 231.354 270.854 239.059 270.854 247.379C270.854 252.828 269.916 258.365 268.041 263.99C266.166 269.615 263.031 274.801 258.637 279.547C254.301 284.293 248.471 288.16 241.146 291.148C233.822 294.137 224.711 295.748 213.812 295.982V315.758H189.291V295.982C178.217 295.748 168.988 294.137 161.605 291.148C154.281 288.102 148.451 284.205 144.115 279.459C139.838 274.654 136.791 269.439 134.975 263.814C133.158 258.189 132.25 252.711 132.25 247.379C132.25 241.109 133.246 235.162 135.238 229.537C137.289 223.912 140.541 218.902 144.994 214.508C149.506 210.055 155.395 206.51 162.66 203.873C169.926 201.236 178.803 199.771 189.291 199.479V183.658H213.812ZM189.291 220.748C181.498 221.1 175.287 222.447 170.658 224.791C166.088 227.135 162.807 230.24 160.814 234.107C158.822 237.916 157.826 242.281 157.826 247.203C157.826 252.594 158.91 257.311 161.078 261.354C163.305 265.396 166.732 268.59 171.361 270.934C176.049 273.277 182.025 274.625 189.291 274.977V220.748ZM213.812 220.748V274.977C221.137 274.625 227.113 273.277 231.742 270.934C236.371 268.59 239.77 265.396 241.938 261.354C244.164 257.311 245.277 252.594 245.277 247.203C245.277 242.281 244.281 237.916 242.289 234.107C240.297 230.24 236.986 227.135 232.357 224.791C227.787 222.447 221.605 221.1 213.812 220.748ZM333.344 213.717C346.527 213.717 356.635 216.588 363.666 222.33C370.697 228.072 374.213 236.803 374.213 248.521V314H355.492L350.307 300.641H349.604C346.791 304.156 343.92 307.027 340.99 309.254C338.061 311.48 334.691 313.121 330.883 314.176C327.074 315.23 322.445 315.758 316.996 315.758C311.195 315.758 305.98 314.645 301.352 312.418C296.781 310.191 293.178 306.793 290.541 302.223C287.904 297.594 286.586 291.734 286.586 284.645C286.586 274.215 290.248 266.539 297.572 261.617C304.896 256.637 315.883 253.883 330.531 253.355L347.582 252.828V248.521C347.582 243.365 346.234 239.586 343.539 237.184C340.844 234.781 337.094 233.58 332.289 233.58C327.543 233.58 322.885 234.254 318.314 235.602C313.744 236.949 309.174 238.648 304.604 240.699L295.727 222.594C300.941 219.84 306.771 217.672 313.217 216.09C319.721 214.508 326.43 213.717 333.344 213.717ZM347.582 268.473L337.211 268.824C328.539 269.059 322.504 270.611 319.105 273.482C315.766 276.354 314.096 280.133 314.096 284.82C314.096 288.922 315.297 291.852 317.699 293.609C320.102 295.309 323.236 296.158 327.104 296.158C332.846 296.158 337.68 294.459 341.605 291.061C345.59 287.662 347.582 282.828 347.582 276.559V268.473Z" fill="black"/>
</svg>
