<svg width="512" height="512" viewBox="0 0 512 512" fill="none" xmlns="http://www.w3.org/2000/svg">
<circle cx="256" cy="256" r="236" fill="#E5E5E5" stroke="black" stroke-width="40"/>
<path d="M175.323 252.78H246.124V345.31C236.765 348.402 227.04 350.884 216.949 352.756C206.858 354.546 195.424 355.441 182.647 355.441C164.907 355.441 149.851 351.942 137.481 344.943C125.112 337.945 115.712 327.609 109.283 313.938C102.854 300.266 99.6396 283.461 99.6396 263.522C99.6396 244.805 103.22 228.61 110.382 214.938C117.625 201.267 128.163 190.687 141.998 183.2C155.914 175.713 172.882 171.97 192.901 171.97C202.341 171.97 211.66 172.987 220.855 175.021C230.051 177.056 238.393 179.701 245.88 182.956L233.307 213.229C227.854 210.463 221.629 208.143 214.63 206.271C207.631 204.4 200.307 203.464 192.657 203.464C181.671 203.464 172.109 205.987 163.971 211.032C155.914 216.078 149.648 223.158 145.172 232.272C140.777 241.306 138.58 251.966 138.58 264.255C138.58 275.892 140.167 286.228 143.341 295.261C146.515 304.213 151.52 311.252 158.355 316.379C165.191 321.424 174.103 323.947 185.089 323.947C190.46 323.947 194.977 323.703 198.639 323.215C202.382 322.645 205.882 322.076 209.137 321.506V284.274H175.323V252.78ZM388.214 249.973L382.477 278.293H413.971V303.439H377.716L368.316 353H341.461L350.982 303.439H327.301L318.023 353H291.778L300.812 303.439H271.759V278.293H305.572L311.31 249.973H280.548V224.46H315.826L325.226 174.777H351.959L342.56 224.46H366.729L376.251 174.777H402.496L392.975 224.46H422.271V249.973H388.214ZM332.062 278.293H355.987L361.725 249.973H337.799L332.062 278.293Z" fill="black"/>
</svg>
