<svg width="512" height="512" viewBox="0 0 512 512" fill="none" xmlns="http://www.w3.org/2000/svg">
<circle cx="256" cy="256" r="236" fill="#E5E5E5" stroke="black" stroke-width="40"/>
<path d="M255.634 252.78H326.435V345.31C317.076 348.402 307.351 350.884 297.26 352.756C287.169 354.546 275.735 355.441 262.958 355.441C245.217 355.441 230.162 351.942 217.792 344.943C205.422 337.945 196.023 327.609 189.594 313.938C183.165 300.266 179.95 283.461 179.95 263.522C179.95 244.805 183.531 228.61 190.692 214.938C197.935 201.267 208.474 190.687 222.309 183.2C236.225 175.713 253.192 171.97 273.212 171.97C282.652 171.97 291.97 172.987 301.166 175.021C310.362 177.056 318.703 179.701 326.19 182.956L313.617 213.229C308.165 210.463 301.939 208.143 294.94 206.271C287.942 204.4 280.618 203.464 272.968 203.464C261.981 203.464 252.419 205.987 244.281 211.032C236.225 216.078 229.958 223.158 225.482 232.272C221.088 241.306 218.891 251.966 218.891 264.255C218.891 275.892 220.478 286.228 223.651 295.261C226.825 304.213 231.83 311.252 238.666 316.379C245.502 321.424 254.413 323.947 265.399 323.947C270.771 323.947 275.287 323.703 278.949 323.215C282.693 322.645 286.192 322.076 289.447 321.506V284.274H255.634V252.78Z" fill="black"/>
</svg>
