<svg width="512" height="512" viewBox="0 0 512 512" fill="none" xmlns="http://www.w3.org/2000/svg">
<circle cx="256" cy="256" r="236" fill="#E5E5E5" stroke="black" stroke-width="40"/>
<path d="M92.3281 334V191.227H122.602V309H180.512V334H92.3281ZM247.797 222.574C262.445 222.574 273.676 225.764 281.488 232.145C289.301 238.525 293.207 248.225 293.207 261.246V334H272.406L266.645 319.156H265.863C262.738 323.062 259.548 326.253 256.293 328.727C253.038 331.201 249.294 333.023 245.062 334.195C240.831 335.367 235.688 335.953 229.633 335.953C223.188 335.953 217.393 334.716 212.25 332.242C207.172 329.768 203.168 325.992 200.238 320.914C197.309 315.771 195.844 309.26 195.844 301.383C195.844 289.794 199.913 281.266 208.051 275.797C216.189 270.263 228.396 267.203 244.672 266.617L263.617 266.031V261.246C263.617 255.517 262.12 251.318 259.125 248.648C256.13 245.979 251.964 244.645 246.625 244.645C241.352 244.645 236.176 245.393 231.098 246.891C226.02 248.388 220.941 250.276 215.863 252.555L206 232.438C211.794 229.378 218.272 226.969 225.434 225.211C232.66 223.453 240.115 222.574 247.797 222.574ZM263.617 283.414L252.094 283.805C242.458 284.065 235.753 285.79 231.977 288.98C228.266 292.171 226.41 296.37 226.41 301.578C226.41 306.135 227.745 309.391 230.414 311.344C233.083 313.232 236.566 314.176 240.863 314.176C247.243 314.176 252.615 312.288 256.977 308.512C261.404 304.736 263.617 299.365 263.617 292.398V283.414ZM405.902 251.578L401.312 274.234H426.508V294.352H397.504L389.984 334H368.5L376.117 294.352H357.172L349.75 334H328.754L335.98 294.352H312.738V274.234H339.789L344.379 251.578H319.77V231.168H347.992L355.512 191.422H376.898L369.379 231.168H388.715L396.332 191.422H417.328L409.711 231.168H433.148V251.578H405.902ZM360.98 274.234H380.121L384.711 251.578H365.57L360.98 274.234Z" fill="black"/>
</svg>
