<svg width="512" height="512" viewBox="0 0 512 512" fill="none" xmlns="http://www.w3.org/2000/svg">
<circle cx="256" cy="256" r="236" fill="#E5E5E5" stroke="black" stroke-width="40"/>
<path d="M194.268 314H167.109V208.18H135.645C134.941 213.688 134.18 219.693 133.359 226.197C132.539 232.701 131.689 239.264 130.811 245.885C129.932 252.506 128.994 258.805 127.998 264.781C127.061 270.758 126.123 276.002 125.186 280.514C123.662 288.014 121.582 294.4 118.945 299.674C116.367 304.889 112.822 308.873 108.311 311.627C103.857 314.381 98.0273 315.758 90.8203 315.758C88.418 315.758 86.1035 315.582 83.877 315.23C81.709 314.879 79.6875 314.41 77.8125 313.824V291.5C79.3359 292.027 80.8594 292.467 82.3828 292.818C83.9062 293.111 85.5762 293.258 87.3926 293.258C89.7363 293.258 91.6699 292.496 93.1934 290.973C94.7754 289.391 96.1816 286.725 97.4121 282.975C98.6426 279.166 99.873 273.922 101.104 267.242C101.631 264.312 102.334 260.182 103.213 254.85C104.092 249.459 105.088 243.16 106.201 235.953C107.314 228.688 108.457 220.777 109.629 212.223C110.859 203.668 112.031 194.762 113.145 185.504H194.268V314ZM239.531 314H210.527L236.982 275.152C233.643 273.746 230.508 271.812 227.578 269.352C224.648 266.832 222.275 263.668 220.459 259.859C218.643 256.051 217.734 251.48 217.734 246.148C217.734 236.363 221.426 228.863 228.809 223.648C236.25 218.375 245.83 215.738 257.549 215.738H303.252V314H276.445V277.438H261.68L239.531 314ZM244.014 246.324C244.014 250.426 245.625 253.648 248.848 255.992C252.129 258.277 256.348 259.42 261.504 259.42H276.445V234.635H258.076C253.271 234.635 249.727 235.807 247.441 238.15C245.156 240.436 244.014 243.16 244.014 246.324ZM405.029 239.82L400.898 260.211H423.574V278.316H397.471L390.703 314H371.367L378.223 278.316H361.172L354.492 314H335.596L342.1 278.316H321.182V260.211H345.527L349.658 239.82H327.51V221.451H352.91L359.678 185.68H378.926L372.158 221.451H389.561L396.416 185.68H415.312L408.457 221.451H429.551V239.82H405.029ZM364.6 260.211H381.826L385.957 239.82H368.73L364.6 260.211Z" fill="black"/>
</svg>
