<svg width="512" height="512" viewBox="0 0 512 512" fill="none" xmlns="http://www.w3.org/2000/svg">
<circle cx="256" cy="256" r="236" fill="#E5E5E5" stroke="black" stroke-width="40"/>
<path d="M156.977 334V191.227H187.25V309H245.16V334H156.977ZM312.445 222.574C327.094 222.574 338.324 225.764 346.137 232.145C353.949 238.525 357.855 248.225 357.855 261.246V334H337.055L331.293 319.156H330.512C327.387 323.062 324.197 326.253 320.941 328.727C317.686 331.201 313.943 333.023 309.711 334.195C305.479 335.367 300.336 335.953 294.281 335.953C287.836 335.953 282.042 334.716 276.898 332.242C271.82 329.768 267.816 325.992 264.887 320.914C261.957 315.771 260.492 309.26 260.492 301.383C260.492 289.794 264.561 281.266 272.699 275.797C280.837 270.263 293.044 267.203 309.32 266.617L328.266 266.031V261.246C328.266 255.517 326.768 251.318 323.773 248.648C320.779 245.979 316.612 244.645 311.273 244.645C306 244.645 300.824 245.393 295.746 246.891C290.668 248.388 285.59 250.276 280.512 252.555L270.648 232.438C276.443 229.378 282.921 226.969 290.082 225.211C297.309 223.453 304.763 222.574 312.445 222.574ZM328.266 283.414L316.742 283.805C307.107 284.065 300.401 285.79 296.625 288.98C292.914 292.171 291.059 296.37 291.059 301.578C291.059 306.135 292.393 309.391 295.062 311.344C297.732 313.232 301.215 314.176 305.512 314.176C311.892 314.176 317.263 312.288 321.625 308.512C326.052 304.736 328.266 299.365 328.266 292.398V283.414Z" fill="black"/>
</svg>
