<svg width="512" height="512" viewBox="0 0 512 512" fill="none" xmlns="http://www.w3.org/2000/svg">
<circle cx="256" cy="256" r="236" fill="#E5E5E5" stroke="black" stroke-width="40"/>
<path d="M252.951 314H225.793V208.18H194.328C193.625 213.688 192.863 219.693 192.043 226.197C191.223 232.701 190.373 239.264 189.494 245.885C188.615 252.506 187.678 258.805 186.682 264.781C185.744 270.758 184.807 276.002 183.869 280.514C182.346 288.014 180.266 294.4 177.629 299.674C175.051 304.889 171.506 308.873 166.994 311.627C162.541 314.381 156.711 315.758 149.504 315.758C147.102 315.758 144.787 315.582 142.561 315.23C140.393 314.879 138.371 314.41 136.496 313.824V291.5C138.02 292.027 139.543 292.467 141.066 292.818C142.59 293.111 144.26 293.258 146.076 293.258C148.42 293.258 150.354 292.496 151.877 290.973C153.459 289.391 154.865 286.725 156.096 282.975C157.326 279.166 158.557 273.922 159.787 267.242C160.314 264.312 161.018 260.182 161.896 254.85C162.775 249.459 163.771 243.16 164.885 235.953C165.998 228.688 167.141 220.777 168.312 212.223C169.543 203.668 170.715 194.762 171.828 185.504H252.951V314ZM298.215 314H269.211L295.666 275.152C292.326 273.746 289.191 271.812 286.262 269.352C283.332 266.832 280.959 263.668 279.143 259.859C277.326 256.051 276.418 251.48 276.418 246.148C276.418 236.363 280.109 228.863 287.492 223.648C294.934 218.375 304.514 215.738 316.232 215.738H361.936V314H335.129V277.438H320.363L298.215 314ZM302.697 246.324C302.697 250.426 304.309 253.648 307.531 255.992C310.812 258.277 315.031 259.42 320.188 259.42H335.129V234.635H316.76C311.955 234.635 308.41 235.807 306.125 238.15C303.84 240.436 302.697 243.16 302.697 246.324Z" fill="black"/>
</svg>
