<svg width="512" height="512" viewBox="0 0 512 512" fill="none" xmlns="http://www.w3.org/2000/svg">
<circle cx="256" cy="256" r="236" fill="#E5E5E5" stroke="black" stroke-width="40"/>
<path d="M209.516 334L175.141 221.988H174.262C174.392 224.658 174.587 228.694 174.848 234.098C175.173 239.436 175.466 245.133 175.727 251.188C175.987 257.242 176.117 262.711 176.117 267.594V334H149.066V191.227H190.277L224.066 300.406H224.652L260.492 191.227H301.703V334H273.48V266.422C273.48 261.93 273.546 256.754 273.676 250.895C273.871 245.035 274.099 239.469 274.359 234.195C274.62 228.857 274.815 224.853 274.945 222.184H274.066L237.25 334H209.516ZM365.18 224.82V334H335.395V224.82H365.18ZM350.336 182.047C354.763 182.047 358.572 183.089 361.762 185.172C364.952 187.19 366.547 190.999 366.547 196.598C366.547 202.132 364.952 205.973 361.762 208.121C358.572 210.204 354.763 211.246 350.336 211.246C345.844 211.246 342.003 210.204 338.812 208.121C335.688 205.973 334.125 202.132 334.125 196.598C334.125 190.999 335.688 187.19 338.812 185.172C342.003 183.089 345.844 182.047 350.336 182.047Z" fill="black"/>
</svg>
