<svg width="512" height="512" viewBox="0 0 512 512" fill="none" xmlns="http://www.w3.org/2000/svg">
<circle cx="256" cy="256" r="236" fill="#E5E5E5" stroke="black" stroke-width="40"/>
<path d="M176.811 314L145.873 213.189H145.082C145.199 215.592 145.375 219.225 145.609 224.088C145.902 228.893 146.166 234.02 146.4 239.469C146.635 244.918 146.752 249.84 146.752 254.234V314H122.406V185.504H159.496L189.906 283.766H190.434L222.689 185.504H259.779V314H234.379V253.18C234.379 249.137 234.438 244.479 234.555 239.205C234.73 233.932 234.936 228.922 235.17 224.176C235.404 219.371 235.58 215.768 235.697 213.365H234.906L201.771 314H176.811ZM316.029 215.738V254.586C316.029 256.578 315.941 259.098 315.766 262.145C315.648 265.133 315.473 268.18 315.238 271.285C315.004 274.391 314.77 277.174 314.535 279.635C314.301 282.096 314.125 283.766 314.008 284.645L359.359 215.738H391.615V314H365.688V274.801C365.688 271.578 365.805 268.033 366.039 264.166C366.273 260.24 366.537 256.549 366.83 253.092C367.123 249.635 367.328 247.027 367.445 245.27L322.27 314H290.102V215.738H316.029Z" fill="black"/>
</svg>
