<svg width="512" height="512" viewBox="0 0 512 512" fill="none" xmlns="http://www.w3.org/2000/svg">
<circle cx="256" cy="256" r="236" fill="#E5E5E5" stroke="black" stroke-width="40"/>
<path d="M124.824 191.227C137.78 191.227 148.457 192.789 156.855 195.914C165.319 199.039 171.602 203.759 175.703 210.074C179.805 216.389 181.855 224.365 181.855 234C181.855 240.51 180.618 246.207 178.145 251.09C175.671 255.973 172.415 260.107 168.379 263.492C164.342 266.878 159.98 269.645 155.293 271.793L197.285 334H163.691L129.609 279.215H113.496V334H83.2227V191.227H124.824ZM122.676 216.031H113.496V254.605H123.262C133.288 254.605 140.449 252.945 144.746 249.625C149.108 246.24 151.289 241.292 151.289 234.781C151.289 228.01 148.945 223.193 144.258 220.328C139.635 217.464 132.441 216.031 122.676 216.031ZM257.93 222.77C268.021 222.77 276.712 224.723 284.004 228.629C291.296 232.47 296.927 238.069 300.898 245.426C304.87 252.783 306.855 261.767 306.855 272.379V286.832H236.445C236.771 295.23 239.277 301.839 243.965 306.656C248.717 311.409 255.293 313.785 263.691 313.785C270.658 313.785 277.038 313.069 282.832 311.637C288.626 310.204 294.583 308.056 300.703 305.191V328.238C295.299 330.908 289.635 332.861 283.711 334.098C277.852 335.335 270.723 335.953 262.324 335.953C251.387 335.953 241.686 333.935 233.223 329.898C224.824 325.862 218.216 319.71 213.398 311.441C208.646 303.173 206.27 292.757 206.27 280.191C206.27 267.431 208.418 256.819 212.715 248.355C217.077 239.827 223.132 233.447 230.879 229.215C238.626 224.918 247.643 222.77 257.93 222.77ZM258.125 243.961C252.331 243.961 247.513 245.816 243.672 249.527C239.896 253.238 237.715 259.065 237.129 267.008H278.926C278.861 262.581 278.047 258.642 276.484 255.191C274.987 251.741 272.708 249.007 269.648 246.988C266.654 244.97 262.812 243.961 258.125 243.961ZM413.008 251.578L408.418 274.234H433.613V294.352H404.609L397.09 334H375.605L383.223 294.352H364.277L356.855 334H335.859L343.086 294.352H319.844V274.234H346.895L351.484 251.578H326.875V231.168H355.098L362.617 191.422H384.004L376.484 231.168H395.82L403.438 191.422H424.434L416.816 231.168H440.254V251.578H413.008ZM368.086 274.234H387.227L391.816 251.578H372.676L368.086 274.234Z" fill="black"/>
</svg>
