<svg width="512" height="512" viewBox="0 0 512 512" fill="none" xmlns="http://www.w3.org/2000/svg">
<circle cx="256" cy="256" r="236" fill="#E5E5E5" stroke="black" stroke-width="40"/>
<path d="M145.346 185.504C161.928 185.504 174.027 189.078 181.645 196.227C189.262 203.316 193.07 213.102 193.07 225.582C193.07 231.207 192.221 236.598 190.521 241.754C188.822 246.852 186.039 251.393 182.172 255.377C178.363 259.361 173.266 262.525 166.879 264.869C160.492 267.154 152.611 268.297 143.236 268.297H131.547V314H104.301V185.504H145.346ZM143.939 207.828H131.547V245.973H140.512C145.609 245.973 150.033 245.299 153.783 243.951C157.533 242.604 160.434 240.494 162.484 237.623C164.535 234.752 165.561 231.061 165.561 226.549C165.561 220.221 163.803 215.533 160.287 212.486C156.771 209.381 151.322 207.828 143.939 207.828ZM255.736 213.893C264.818 213.893 272.641 215.65 279.203 219.166C285.766 222.623 290.834 227.662 294.408 234.283C297.982 240.904 299.77 248.99 299.77 258.541V271.549H236.4C236.693 279.107 238.949 285.055 243.168 289.391C247.445 293.668 253.363 295.807 260.922 295.807C267.191 295.807 272.934 295.162 278.148 293.873C283.363 292.584 288.725 290.65 294.232 288.072V308.814C289.369 311.217 284.271 312.975 278.939 314.088C273.666 315.201 267.25 315.758 259.691 315.758C249.848 315.758 241.117 313.941 233.5 310.309C225.941 306.676 219.994 301.139 215.658 293.697C211.381 286.256 209.242 276.881 209.242 265.572C209.242 254.088 211.176 244.537 215.043 236.92C218.969 229.244 224.418 223.502 231.391 219.693C238.363 215.826 246.479 213.893 255.736 213.893ZM255.912 232.965C250.697 232.965 246.361 234.635 242.904 237.975C239.506 241.314 237.543 246.559 237.016 253.707H274.633C274.574 249.723 273.842 246.178 272.436 243.072C271.088 239.967 269.037 237.506 266.283 235.689C263.588 233.873 260.131 232.965 255.912 232.965ZM395.307 239.82L391.176 260.211H413.852V278.316H387.748L380.98 314H361.645L368.5 278.316H351.449L344.77 314H325.873L332.377 278.316H311.459V260.211H335.805L339.936 239.82H317.787V221.451H343.188L349.955 185.68H369.203L362.436 221.451H379.838L386.693 185.68H405.59L398.734 221.451H419.828V239.82H395.307ZM354.877 260.211H372.104L376.234 239.82H359.008L354.877 260.211Z" fill="black"/>
</svg>
