<svg width="512" height="512" viewBox="0 0 512 512" fill="none" xmlns="http://www.w3.org/2000/svg">
<circle cx="256" cy="256" r="236" fill="#E5E5E5" stroke="black" stroke-width="40"/>
<path d="M189.973 191.227C202.928 191.227 213.605 192.789 222.004 195.914C230.467 199.039 236.75 203.759 240.852 210.074C244.953 216.389 247.004 224.365 247.004 234C247.004 240.51 245.767 246.207 243.293 251.09C240.819 255.973 237.564 260.107 233.527 263.492C229.491 266.878 225.129 269.645 220.441 271.793L262.434 334H228.84L194.758 279.215H178.645V334H148.371V191.227H189.973ZM187.824 216.031H178.645V254.605H188.41C198.436 254.605 205.598 252.945 209.895 249.625C214.257 246.24 216.438 241.292 216.438 234.781C216.438 228.01 214.094 223.193 209.406 220.328C204.784 217.464 197.59 216.031 187.824 216.031ZM323.078 222.77C333.169 222.77 341.861 224.723 349.152 228.629C356.444 232.47 362.076 238.069 366.047 245.426C370.018 252.783 372.004 261.767 372.004 272.379V286.832H301.594C301.919 295.23 304.426 301.839 309.113 306.656C313.866 311.409 320.441 313.785 328.84 313.785C335.806 313.785 342.186 313.069 347.98 311.637C353.775 310.204 359.732 308.056 365.852 305.191V328.238C360.448 330.908 354.784 332.861 348.859 334.098C343 335.335 335.871 335.953 327.473 335.953C316.535 335.953 306.835 333.935 298.371 329.898C289.973 325.862 283.365 319.71 278.547 311.441C273.794 303.173 271.418 292.757 271.418 280.191C271.418 267.431 273.566 256.819 277.863 248.355C282.225 239.827 288.28 233.447 296.027 229.215C303.775 224.918 312.792 222.77 323.078 222.77ZM323.273 243.961C317.479 243.961 312.661 245.816 308.82 249.527C305.044 253.238 302.863 259.065 302.277 267.008H344.074C344.009 262.581 343.195 258.642 341.633 255.191C340.135 251.741 337.857 249.007 334.797 246.988C331.802 244.97 327.961 243.961 323.273 243.961Z" fill="black"/>
</svg>
