<svg width="512" height="512" viewBox="0 0 512 512" fill="none" xmlns="http://www.w3.org/2000/svg">
<circle cx="256" cy="256" r="236" fill="#E5E5E5" stroke="black" stroke-width="40"/>
<path d="M203.529 185.504C220.111 185.504 232.211 189.078 239.828 196.227C247.445 203.316 251.254 213.102 251.254 225.582C251.254 231.207 250.404 236.598 248.705 241.754C247.006 246.852 244.223 251.393 240.355 255.377C236.547 259.361 231.449 262.525 225.062 264.869C218.676 267.154 210.795 268.297 201.42 268.297H189.73V314H162.484V185.504H203.529ZM202.123 207.828H189.73V245.973H198.695C203.793 245.973 208.217 245.299 211.967 243.951C215.717 242.604 218.617 240.494 220.668 237.623C222.719 234.752 223.744 231.061 223.744 226.549C223.744 220.221 221.986 215.533 218.471 212.486C214.955 209.381 209.506 207.828 202.123 207.828ZM313.92 213.893C323.002 213.893 330.824 215.65 337.387 219.166C343.949 222.623 349.018 227.662 352.592 234.283C356.166 240.904 357.953 248.99 357.953 258.541V271.549H294.584C294.877 279.107 297.133 285.055 301.352 289.391C305.629 293.668 311.547 295.807 319.105 295.807C325.375 295.807 331.117 295.162 336.332 293.873C341.547 292.584 346.908 290.65 352.416 288.072V308.814C347.553 311.217 342.455 312.975 337.123 314.088C331.85 315.201 325.434 315.758 317.875 315.758C308.031 315.758 299.301 313.941 291.684 310.309C284.125 306.676 278.178 301.139 273.842 293.697C269.564 286.256 267.426 276.881 267.426 265.572C267.426 254.088 269.359 244.537 273.227 236.92C277.152 229.244 282.602 223.502 289.574 219.693C296.547 215.826 304.662 213.893 313.92 213.893ZM314.096 232.965C308.881 232.965 304.545 234.635 301.088 237.975C297.689 241.314 295.727 246.559 295.199 253.707H332.816C332.758 249.723 332.025 246.178 330.619 243.072C329.271 239.967 327.221 237.506 324.467 235.689C321.771 233.873 318.314 232.965 314.096 232.965Z" fill="black"/>
</svg>
