<svg width="512" height="512" viewBox="0 0 512 512" fill="none" xmlns="http://www.w3.org/2000/svg">
<circle cx="256" cy="256" r="236" fill="#E5E5E5" stroke="black" stroke-width="40"/>
<path d="M272.602 294.352C272.602 302.815 270.551 310.172 266.449 316.422C262.348 322.672 256.358 327.49 248.48 330.875C240.668 334.26 231.163 335.953 219.965 335.953C215.017 335.953 210.167 335.628 205.414 334.977C200.727 334.326 196.202 333.382 191.84 332.145C187.543 330.842 183.441 329.247 179.535 327.359V299.234C186.306 302.229 193.337 304.931 200.629 307.34C207.921 309.749 215.147 310.953 222.309 310.953C227.257 310.953 231.228 310.302 234.223 309C237.283 307.698 239.496 305.908 240.863 303.629C242.23 301.35 242.914 298.746 242.914 295.816C242.914 292.236 241.71 289.176 239.301 286.637C236.892 284.098 233.572 281.721 229.34 279.508C225.173 277.294 220.453 274.918 215.18 272.379C211.859 270.816 208.246 268.928 204.34 266.715C200.434 264.436 196.723 261.669 193.207 258.414C189.691 255.159 186.794 251.22 184.516 246.598C182.302 241.91 181.195 236.311 181.195 229.801C181.195 221.272 183.148 213.98 187.055 207.926C190.961 201.871 196.527 197.249 203.754 194.059C211.046 190.803 219.639 189.176 229.535 189.176C236.957 189.176 244.021 190.055 250.727 191.812C257.497 193.505 264.561 195.979 271.918 199.234L262.152 222.77C255.577 220.1 249.685 218.049 244.477 216.617C239.268 215.12 233.962 214.371 228.559 214.371C224.783 214.371 221.56 214.99 218.891 216.227C216.221 217.398 214.203 219.091 212.836 221.305C211.469 223.453 210.785 225.96 210.785 228.824C210.785 232.21 211.762 235.074 213.715 237.418C215.733 239.697 218.728 241.91 222.699 244.059C226.736 246.207 231.749 248.714 237.738 251.578C245.03 255.029 251.247 258.642 256.391 262.418C261.599 266.129 265.603 270.523 268.402 275.602C271.202 280.615 272.602 286.865 272.602 294.352ZM325.922 224.82V334H296.137V224.82H325.922ZM311.078 182.047C315.505 182.047 319.314 183.089 322.504 185.172C325.694 187.19 327.289 190.999 327.289 196.598C327.289 202.132 325.694 205.973 322.504 208.121C319.314 210.204 315.505 211.246 311.078 211.246C306.586 211.246 302.745 210.204 299.555 208.121C296.43 205.973 294.867 202.132 294.867 196.598C294.867 190.999 296.43 187.19 299.555 185.172C302.745 183.089 306.586 182.047 311.078 182.047Z" fill="black"/>
</svg>
