<svg width="512" height="512" viewBox="0 0 512 512" fill="none" xmlns="http://www.w3.org/2000/svg">
<circle cx="256" cy="256" r="236" fill="#E5E5E5" stroke="black" stroke-width="40"/>
<path d="M203.996 206.334C198.781 206.334 194.152 207.359 190.109 209.41C186.125 211.402 182.756 214.303 180.002 218.111C177.307 221.92 175.256 226.52 173.85 231.91C172.443 237.301 171.74 243.365 171.74 250.104C171.74 259.186 172.854 266.949 175.08 273.395C177.365 279.781 180.881 284.674 185.627 288.072C190.373 291.412 196.496 293.082 203.996 293.082C209.211 293.082 214.426 292.496 219.641 291.324C224.914 290.152 230.627 288.482 236.779 286.314V309.166C231.096 311.51 225.5 313.18 219.992 314.176C214.484 315.23 208.303 315.758 201.447 315.758C188.205 315.758 177.307 313.033 168.752 307.584C160.256 302.076 153.957 294.4 149.855 284.557C145.754 274.654 143.703 263.111 143.703 249.928C143.703 240.201 145.021 231.295 147.658 223.209C150.295 215.123 154.162 208.121 159.26 202.203C164.357 196.285 170.656 191.715 178.156 188.492C185.656 185.27 194.27 183.658 203.996 183.658C210.383 183.658 216.77 184.479 223.156 186.119C229.602 187.701 235.754 189.898 241.613 192.711L232.824 214.859C228.02 212.574 223.186 210.582 218.322 208.883C213.459 207.184 208.684 206.334 203.996 206.334ZM288.02 215.738V254.586C288.02 256.578 287.932 259.098 287.756 262.145C287.639 265.133 287.463 268.18 287.229 271.285C286.994 274.391 286.76 277.174 286.525 279.635C286.291 282.096 286.115 283.766 285.998 284.645L331.35 215.738H363.605V314H337.678V274.801C337.678 271.578 337.795 268.033 338.029 264.166C338.264 260.24 338.527 256.549 338.82 253.092C339.113 249.635 339.318 247.027 339.436 245.27L294.26 314H262.092V215.738H288.02Z" fill="black"/>
</svg>
