<svg width="512" height="512" viewBox="0 0 512 512" fill="none" xmlns="http://www.w3.org/2000/svg">
<circle cx="256" cy="256" r="236" fill="#E5E5E5" stroke="black" stroke-width="40"/>
<path d="M100.498 217.241C96.7318 217.241 93.3887 217.982 90.4688 219.463C87.5911 220.902 85.1579 222.996 83.1689 225.747C81.2223 228.498 79.7412 231.82 78.7256 235.713C77.71 239.606 77.2021 243.986 77.2021 248.853C77.2021 255.412 78.0062 261.019 79.6143 265.674C81.2646 270.286 83.8037 273.82 87.2314 276.274C90.6592 278.687 95.0814 279.893 100.498 279.893C104.264 279.893 108.031 279.469 111.797 278.623C115.605 277.777 119.731 276.571 124.175 275.005V291.509C120.07 293.201 116.029 294.408 112.051 295.127C108.073 295.889 103.608 296.27 98.6572 296.27C89.0934 296.27 81.2223 294.302 75.0439 290.366C68.9079 286.388 64.3587 280.845 61.3965 273.735C58.4342 266.584 56.9531 258.247 56.9531 248.726C56.9531 241.701 57.9053 235.269 59.8096 229.429C61.7139 223.589 64.5068 218.532 68.1885 214.258C71.8701 209.984 76.4193 206.683 81.8359 204.355C87.2526 202.028 93.4733 200.864 100.498 200.864C105.111 200.864 109.723 201.457 114.336 202.642C118.991 203.784 123.434 205.371 127.666 207.402L121.318 223.398C117.848 221.748 114.357 220.309 110.845 219.082C107.332 217.855 103.883 217.241 100.498 217.241ZM206.948 259.39C206.948 265.314 206.144 270.562 204.536 275.132C202.97 279.702 200.664 283.574 197.617 286.748C194.613 289.88 190.973 292.249 186.699 293.857C182.467 295.465 177.686 296.27 172.354 296.27C167.36 296.27 162.769 295.465 158.579 293.857C154.432 292.249 150.814 289.88 147.725 286.748C144.678 283.574 142.308 279.702 140.615 275.132C138.965 270.562 138.14 265.314 138.14 259.39C138.14 251.519 139.536 244.854 142.329 239.395C145.122 233.936 149.1 229.788 154.263 226.953C159.425 224.118 165.583 222.7 172.734 222.7C179.378 222.7 185.26 224.118 190.381 226.953C195.544 229.788 199.585 233.936 202.505 239.395C205.467 244.854 206.948 251.519 206.948 259.39ZM157.881 259.39C157.881 264.045 158.389 267.959 159.404 271.133C160.42 274.307 162.007 276.698 164.165 278.306C166.323 279.914 169.137 280.718 172.607 280.718C176.035 280.718 178.807 279.914 180.923 278.306C183.081 276.698 184.647 274.307 185.62 271.133C186.636 267.959 187.144 264.045 187.144 259.39C187.144 254.692 186.636 250.799 185.62 247.71C184.647 244.578 183.081 242.23 180.923 240.664C178.765 239.098 175.951 238.315 172.48 238.315C167.36 238.315 163.636 240.072 161.309 243.584C159.023 247.096 157.881 252.365 157.881 259.39ZM286.484 295H267.124V238.569H249.287C248.398 248.979 247.34 257.845 246.113 265.166C244.886 272.487 243.32 278.454 241.416 283.066C239.512 287.637 237.142 290.98 234.307 293.096C231.471 295.212 227.98 296.27 223.833 296.27C221.548 296.27 219.495 296.1 217.676 295.762C215.898 295.423 214.269 294.915 212.788 294.238V278.75C213.719 279.131 214.714 279.448 215.771 279.702C216.829 279.914 217.909 280.02 219.009 280.02C220.236 280.02 221.4 279.533 222.5 278.56C223.6 277.586 224.637 275.915 225.61 273.545C226.584 271.133 227.493 267.811 228.34 263.579C229.229 259.347 230.033 253.994 230.752 247.52C231.471 241.045 232.148 233.216 232.783 224.033H286.484V295ZM326.221 251.455H339.868C347.147 251.455 353.156 252.217 357.896 253.74C362.635 255.264 366.169 257.591 368.496 260.723C370.824 263.812 371.987 267.705 371.987 272.402C371.987 276.973 370.929 280.951 368.813 284.336C366.698 287.721 363.333 290.345 358.721 292.207C354.108 294.069 348.078 295 340.63 295H306.86V224.033H326.221V251.455ZM352.627 272.656C352.627 269.906 351.527 267.917 349.326 266.689C347.126 265.462 343.846 264.849 339.487 264.849H326.221V281.606H339.741C343.507 281.606 346.597 280.929 349.009 279.575C351.421 278.179 352.627 275.872 352.627 272.656ZM439.971 241.426L436.987 256.152H453.364V269.229H434.512L429.624 295H415.659L420.61 269.229H408.296L403.472 295H389.824L394.521 269.229H379.414V256.152H396.997L399.98 241.426H383.984V228.159H402.329L407.217 202.324H421.118L416.23 228.159H428.799L433.75 202.324H447.397L442.446 228.159H457.681V241.426H439.971ZM410.771 256.152H423.213L426.196 241.426H413.755L410.771 256.152Z" fill="black"/>
</svg>
