<svg width="512" height="512" viewBox="0 0 512 512" fill="none" xmlns="http://www.w3.org/2000/svg">
<circle cx="256" cy="256" r="236" fill="#E5E5E5" stroke="black" stroke-width="40"/>
<path d="M145.539 294.352C145.539 302.815 143.488 310.172 139.387 316.422C135.285 322.672 129.296 327.49 121.418 330.875C113.605 334.26 104.1 335.953 92.9023 335.953C87.9544 335.953 83.1042 335.628 78.3516 334.977C73.6641 334.326 69.1393 333.382 64.7773 332.145C60.4805 330.842 56.3789 329.247 52.4727 327.359V299.234C59.2435 302.229 66.2747 304.931 73.5664 307.34C80.8581 309.749 88.0846 310.953 95.2461 310.953C100.194 310.953 104.165 310.302 107.16 309C110.22 307.698 112.434 305.908 113.801 303.629C115.168 301.35 115.852 298.746 115.852 295.816C115.852 292.236 114.647 289.176 112.238 286.637C109.829 284.098 106.509 281.721 102.277 279.508C98.1107 277.294 93.3906 274.918 88.1172 272.379C84.7969 270.816 81.1836 268.928 77.2773 266.715C73.3711 264.436 69.6602 261.669 66.1445 258.414C62.6289 255.159 59.7318 251.22 57.4531 246.598C55.2396 241.91 54.1328 236.311 54.1328 229.801C54.1328 221.272 56.0859 213.98 59.9922 207.926C63.8984 201.871 69.4648 197.249 76.6914 194.059C83.9831 190.803 92.5768 189.176 102.473 189.176C109.895 189.176 116.958 190.055 123.664 191.812C130.435 193.505 137.499 195.979 144.855 199.234L135.09 222.77C128.514 220.1 122.622 218.049 117.414 216.617C112.206 215.12 106.9 214.371 101.496 214.371C97.7201 214.371 94.4974 214.99 91.8281 216.227C89.1589 217.398 87.1406 219.091 85.7734 221.305C84.4062 223.453 83.7227 225.96 83.7227 228.824C83.7227 232.21 84.6992 235.074 86.6523 237.418C88.6706 239.697 91.6654 241.91 95.6367 244.059C99.6732 246.207 104.686 248.714 110.676 251.578C117.967 255.029 124.185 258.642 129.328 262.418C134.536 266.129 138.54 270.523 141.34 275.602C144.139 280.615 145.539 286.865 145.539 294.352ZM268.293 279.215C268.293 288.329 267.056 296.402 264.582 303.434C262.173 310.465 258.625 316.422 253.938 321.305C249.315 326.122 243.716 329.768 237.141 332.242C230.63 334.716 223.273 335.953 215.07 335.953C207.388 335.953 200.324 334.716 193.879 332.242C187.499 329.768 181.932 326.122 177.18 321.305C172.492 316.422 168.846 310.465 166.242 303.434C163.703 296.402 162.434 288.329 162.434 279.215C162.434 267.105 164.582 256.852 168.879 248.453C173.176 240.055 179.296 233.674 187.238 229.312C195.181 224.951 204.654 222.77 215.656 222.77C225.878 222.77 234.927 224.951 242.805 229.312C250.747 233.674 256.965 240.055 261.457 248.453C266.014 256.852 268.293 267.105 268.293 279.215ZM192.805 279.215C192.805 286.376 193.586 292.398 195.148 297.281C196.711 302.164 199.152 305.842 202.473 308.316C205.793 310.79 210.122 312.027 215.461 312.027C220.734 312.027 224.999 310.79 228.254 308.316C231.574 305.842 233.983 302.164 235.48 297.281C237.043 292.398 237.824 286.376 237.824 279.215C237.824 271.988 237.043 265.999 235.48 261.246C233.983 256.428 231.574 252.815 228.254 250.406C224.934 247.997 220.604 246.793 215.266 246.793C207.388 246.793 201.659 249.495 198.078 254.898C194.562 260.302 192.805 268.408 192.805 279.215ZM322.688 334H292.902V182.047H322.688V334ZM435.969 251.578L431.379 274.234H456.574V294.352H427.57L420.051 334H398.566L406.184 294.352H387.238L379.816 334H358.82L366.047 294.352H342.805V274.234H369.855L374.445 251.578H349.836V231.168H378.059L385.578 191.422H406.965L399.445 231.168H418.781L426.398 191.422H447.395L439.777 231.168H463.215V251.578H435.969ZM391.047 274.234H410.188L414.777 251.578H395.637L391.047 274.234Z" fill="black"/>
</svg>
