<svg width="512" height="512" viewBox="0 0 512 512" fill="none" xmlns="http://www.w3.org/2000/svg">
<circle cx="256" cy="256" r="236" fill="#E5E5E5" stroke="black" stroke-width="40"/>
<path d="M209.688 294.352C209.688 302.815 207.637 310.172 203.535 316.422C199.434 322.672 193.444 327.49 185.566 330.875C177.754 334.26 168.249 335.953 157.051 335.953C152.103 335.953 147.253 335.628 142.5 334.977C137.812 334.326 133.288 333.382 128.926 332.145C124.629 330.842 120.527 329.247 116.621 327.359V299.234C123.392 302.229 130.423 304.931 137.715 307.34C145.007 309.749 152.233 310.953 159.395 310.953C164.342 310.953 168.314 310.302 171.309 309C174.368 307.698 176.582 305.908 177.949 303.629C179.316 301.35 180 298.746 180 295.816C180 292.236 178.796 289.176 176.387 286.637C173.978 284.098 170.658 281.721 166.426 279.508C162.259 277.294 157.539 274.918 152.266 272.379C148.945 270.816 145.332 268.928 141.426 266.715C137.52 264.436 133.809 261.669 130.293 258.414C126.777 255.159 123.88 251.22 121.602 246.598C119.388 241.91 118.281 236.311 118.281 229.801C118.281 221.272 120.234 213.98 124.141 207.926C128.047 201.871 133.613 197.249 140.84 194.059C148.132 190.803 156.725 189.176 166.621 189.176C174.043 189.176 181.107 190.055 187.812 191.812C194.583 193.505 201.647 195.979 209.004 199.234L199.238 222.77C192.663 220.1 186.771 218.049 181.562 216.617C176.354 215.12 171.048 214.371 165.645 214.371C161.868 214.371 158.646 214.99 155.977 216.227C153.307 217.398 151.289 219.091 149.922 221.305C148.555 223.453 147.871 225.96 147.871 228.824C147.871 232.21 148.848 235.074 150.801 237.418C152.819 239.697 155.814 241.91 159.785 244.059C163.822 246.207 168.835 248.714 174.824 251.578C182.116 255.029 188.333 258.642 193.477 262.418C198.685 266.129 202.689 270.523 205.488 275.602C208.288 280.615 209.688 286.865 209.688 294.352ZM332.441 279.215C332.441 288.329 331.204 296.402 328.73 303.434C326.322 310.465 322.773 316.422 318.086 321.305C313.464 326.122 307.865 329.768 301.289 332.242C294.779 334.716 287.422 335.953 279.219 335.953C271.536 335.953 264.473 334.716 258.027 332.242C251.647 329.768 246.081 326.122 241.328 321.305C236.641 316.422 232.995 310.465 230.391 303.434C227.852 296.402 226.582 288.329 226.582 279.215C226.582 267.105 228.73 256.852 233.027 248.453C237.324 240.055 243.444 233.674 251.387 229.312C259.329 224.951 268.802 222.77 279.805 222.77C290.026 222.77 299.076 224.951 306.953 229.312C314.896 233.674 321.113 240.055 325.605 248.453C330.163 256.852 332.441 267.105 332.441 279.215ZM256.953 279.215C256.953 286.376 257.734 292.398 259.297 297.281C260.859 302.164 263.301 305.842 266.621 308.316C269.941 310.79 274.271 312.027 279.609 312.027C284.883 312.027 289.147 310.79 292.402 308.316C295.723 305.842 298.132 302.164 299.629 297.281C301.191 292.398 301.973 286.376 301.973 279.215C301.973 271.988 301.191 265.999 299.629 261.246C298.132 256.428 295.723 252.815 292.402 250.406C289.082 247.997 284.753 246.793 279.414 246.793C271.536 246.793 265.807 249.495 262.227 254.898C258.711 260.302 256.953 268.408 256.953 279.215ZM386.836 334H357.051V182.047H386.836V334Z" fill="black"/>
</svg>
