<svg width="512" height="512" viewBox="0 0 512 512" fill="none" xmlns="http://www.w3.org/2000/svg">
<circle cx="256" cy="256" r="236" fill="#E5E5E5" stroke="black" stroke-width="40"/>
<path d="M142.52 217.241C138.753 217.241 135.41 217.982 132.49 219.463C129.613 220.902 127.179 222.996 125.19 225.747C123.244 228.498 121.763 231.82 120.747 235.713C119.731 239.606 119.224 243.986 119.224 248.853C119.224 255.412 120.028 261.019 121.636 265.674C123.286 270.286 125.825 273.82 129.253 276.274C132.681 278.687 137.103 279.893 142.52 279.893C146.286 279.893 150.052 279.469 153.818 278.623C157.627 277.777 161.753 276.571 166.196 275.005V291.509C162.091 293.201 158.05 294.408 154.072 295.127C150.094 295.889 145.63 296.27 140.679 296.27C131.115 296.27 123.244 294.302 117.065 290.366C110.929 286.388 106.38 280.845 103.418 273.735C100.456 266.584 98.9746 258.247 98.9746 248.726C98.9746 241.701 99.9268 235.269 101.831 229.429C103.735 223.589 106.528 218.532 110.21 214.258C113.892 209.984 118.441 206.683 123.857 204.355C129.274 202.028 135.495 200.864 142.52 200.864C147.132 200.864 151.745 201.457 156.357 202.642C161.012 203.784 165.456 205.371 169.688 207.402L163.34 223.398C159.87 221.748 156.379 220.309 152.866 219.082C149.354 217.855 145.905 217.241 142.52 217.241ZM248.97 259.39C248.97 265.314 248.166 270.562 246.558 275.132C244.992 279.702 242.686 283.574 239.639 286.748C236.634 289.88 232.995 292.249 228.721 293.857C224.489 295.465 219.707 296.27 214.375 296.27C209.382 296.27 204.79 295.465 200.601 293.857C196.453 292.249 192.835 289.88 189.746 286.748C186.699 283.574 184.329 279.702 182.637 275.132C180.986 270.562 180.161 265.314 180.161 259.39C180.161 251.519 181.558 244.854 184.351 239.395C187.144 233.936 191.121 229.788 196.284 226.953C201.447 224.118 207.604 222.7 214.756 222.7C221.4 222.7 227.282 224.118 232.402 226.953C237.565 229.788 241.606 233.936 244.526 239.395C247.489 244.854 248.97 251.519 248.97 259.39ZM199.902 259.39C199.902 264.045 200.41 267.959 201.426 271.133C202.441 274.307 204.028 276.698 206.187 278.306C208.345 279.914 211.159 280.718 214.629 280.718C218.057 280.718 220.828 279.914 222.944 278.306C225.103 276.698 226.668 274.307 227.642 271.133C228.657 267.959 229.165 264.045 229.165 259.39C229.165 254.692 228.657 250.799 227.642 247.71C226.668 244.578 225.103 242.23 222.944 240.664C220.786 239.098 217.972 238.315 214.502 238.315C209.382 238.315 205.658 240.072 203.33 243.584C201.045 247.096 199.902 252.365 199.902 259.39ZM328.506 295H309.146V238.569H291.309C290.42 248.979 289.362 257.845 288.135 265.166C286.908 272.487 285.342 278.454 283.438 283.066C281.533 287.637 279.163 290.98 276.328 293.096C273.493 295.212 270.002 296.27 265.854 296.27C263.569 296.27 261.517 296.1 259.697 295.762C257.92 295.423 256.291 294.915 254.81 294.238V278.75C255.741 279.131 256.735 279.448 257.793 279.702C258.851 279.914 259.93 280.02 261.03 280.02C262.257 280.02 263.421 279.533 264.521 278.56C265.622 277.586 266.659 275.915 267.632 273.545C268.605 271.133 269.515 267.811 270.361 263.579C271.25 259.347 272.054 253.994 272.773 247.52C273.493 241.045 274.17 233.216 274.805 224.033H328.506V295ZM368.242 251.455H381.89C389.168 251.455 395.177 252.217 399.917 253.74C404.657 255.264 408.19 257.591 410.518 260.723C412.845 263.812 414.009 267.705 414.009 272.402C414.009 276.973 412.951 280.951 410.835 284.336C408.719 287.721 405.355 290.345 400.742 292.207C396.13 294.069 390.099 295 382.651 295H348.882V224.033H368.242V251.455ZM394.648 272.656C394.648 269.906 393.548 267.917 391.348 266.689C389.147 265.462 385.868 264.849 381.509 264.849H368.242V281.606H381.763C385.529 281.606 388.618 280.929 391.03 279.575C393.442 278.179 394.648 275.872 394.648 272.656Z" fill="black"/>
</svg>
