<svg width="639" height="639" viewBox="0 0 639 639" fill="none" xmlns="http://www.w3.org/2000/svg">
<mask id="path-1-inside-1_106_498" fill="white">
<path d="M639 319.5C639 495.955 495.955 639 319.5 639C143.045 639 0 495.955 0 319.5C0 143.045 143.045 0 319.5 0C495.955 0 639 143.045 639 319.5ZM223.65 319.5C223.65 372.436 266.564 415.35 319.5 415.35C372.436 415.35 415.35 372.436 415.35 319.5C415.35 266.564 372.436 223.65 319.5 223.65C266.564 223.65 223.65 266.564 223.65 319.5Z"/>
</mask>
<path d="M639 319.5C639 495.955 495.955 639 319.5 639C143.045 639 0 495.955 0 319.5C0 143.045 143.045 0 319.5 0C495.955 0 639 143.045 639 319.5ZM223.65 319.5C223.65 372.436 266.564 415.35 319.5 415.35C372.436 415.35 415.35 372.436 415.35 319.5C415.35 266.564 372.436 223.65 319.5 223.65C266.564 223.65 223.65 266.564 223.65 319.5Z" fill="white" stroke="black" stroke-width="6" mask="url(#path-1-inside-1_106_498)"/>
<circle cx="320" cy="320" r="238.5" fill="white" stroke="black" stroke-width="3"/>
<circle cx="319.5" cy="319.5" r="158" fill="white" stroke="black" stroke-width="3"/>
<path d="M238 15L319.75 320.75M401.5 626.5L319.75 320.75M319.75 320.75L401.5 15M319.75 320.75L544 95M319.75 320.75L626 238M319.75 320.75L626 402M319.75 320.75L544 544.5M319.75 320.75L238 626.5M319.75 320.75L96.5 544.5M319.75 320.75L13.5 402M319.75 320.75L13.5 238M319.75 320.75L96.5 95" stroke="black" stroke-width="3"/>
<circle cx="319.5" cy="319.5" r="110" fill="white" stroke="black" stroke-width="3"/>
<path d="M308.806 135L307.253 129.902H299.445L297.893 135H293L300.559 113.496H306.11L313.698 135H308.806ZM306.169 126.094L304.616 121.113C304.519 120.781 304.387 120.356 304.221 119.839C304.064 119.312 303.903 118.779 303.737 118.242C303.581 117.695 303.454 117.222 303.356 116.821C303.259 117.222 303.122 117.72 302.946 118.315C302.78 118.901 302.619 119.458 302.463 119.985C302.307 120.513 302.194 120.889 302.126 121.113L300.588 126.094H306.169ZM335.29 118.315C337.146 118.315 338.547 118.794 339.494 119.751C340.451 120.698 340.93 122.222 340.93 124.321V135H336.447V125.435C336.447 124.263 336.247 123.379 335.847 122.783C335.446 122.188 334.826 121.89 333.986 121.89C332.805 121.89 331.965 122.314 331.467 123.164C330.969 124.004 330.72 125.21 330.72 126.782V135H326.252V125.435C326.252 124.653 326.164 123.999 325.988 123.472C325.812 122.944 325.544 122.549 325.183 122.285C324.821 122.021 324.357 121.89 323.791 121.89C322.961 121.89 322.307 122.1 321.828 122.52C321.359 122.93 321.022 123.54 320.817 124.351C320.622 125.151 320.524 126.133 320.524 127.295V135H316.057V118.623H319.47L320.07 120.718H320.319C320.651 120.151 321.066 119.692 321.564 119.341C322.072 118.989 322.629 118.73 323.234 118.564C323.84 118.398 324.455 118.315 325.08 118.315C326.281 118.315 327.297 118.511 328.127 118.901C328.967 119.292 329.611 119.897 330.061 120.718H330.456C330.944 119.878 331.633 119.268 332.521 118.887C333.42 118.506 334.343 118.315 335.29 118.315Z" fill="black"/>
<path d="M214.266 151.03C215.472 153.119 216.078 155.097 216.085 156.965C216.096 158.819 215.55 160.539 214.446 162.123C213.337 163.699 211.717 165.102 209.586 166.333L204.334 169.365L193.626 150.818L199.449 147.457C201.394 146.333 203.282 145.706 205.111 145.574C206.936 145.434 208.632 145.814 210.2 146.713C211.763 147.603 213.118 149.042 214.266 151.03ZM210.239 153.49C209.448 152.12 208.596 151.112 207.682 150.467C206.772 149.808 205.802 149.495 204.771 149.526C203.749 149.552 202.663 149.897 201.512 150.562L199.419 151.77L206.392 163.847L208.079 162.873C209.999 161.765 211.129 160.43 211.468 158.87C211.816 157.304 211.406 155.511 210.239 153.49ZM231.576 134.371C233.183 133.444 234.636 133.157 235.935 133.513C237.237 133.854 238.413 134.935 239.463 136.753L244.802 146.001L240.92 148.242L236.138 139.958C235.552 138.943 234.936 138.278 234.292 137.962C233.647 137.647 232.961 137.699 232.234 138.119C231.211 138.71 230.696 139.497 230.689 140.482C230.678 141.458 231.065 142.627 231.851 143.989L235.96 151.106L232.091 153.34L227.308 145.056C226.918 144.379 226.514 143.857 226.098 143.488C225.683 143.119 225.252 142.911 224.808 142.863C224.363 142.815 223.895 142.933 223.405 143.216C222.686 143.631 222.224 144.14 222.02 144.743C221.819 145.333 221.832 146.03 222.06 146.834C222.291 147.626 222.697 148.524 223.278 149.531L227.131 156.204L223.262 158.437L215.073 144.255L218.029 142.548L219.596 144.062L219.812 143.937C219.816 143.281 219.946 142.676 220.202 142.122C220.466 141.564 220.819 141.061 221.26 140.615C221.701 140.168 222.193 139.789 222.734 139.476C223.774 138.876 224.751 138.537 225.665 138.46C226.588 138.379 227.449 138.581 228.248 139.067L228.591 138.869C228.594 137.897 228.885 137.025 229.464 136.25C230.052 135.471 230.756 134.845 231.576 134.371Z" fill="black"/>
<path d="M137.71 233.779L141.958 226.421L151.574 231.973C151.334 233.131 151.009 234.291 150.598 235.452C150.178 236.608 149.585 237.85 148.819 239.178C147.754 241.021 146.487 242.376 145.018 243.242C143.548 244.107 141.91 244.464 140.104 244.312C138.297 244.16 136.358 243.485 134.286 242.289C132.34 241.166 130.872 239.822 129.881 238.258C128.895 236.685 128.428 234.955 128.48 233.068C128.537 231.172 129.166 229.184 130.367 227.104C130.933 226.123 131.598 225.215 132.361 224.382C133.124 223.548 133.9 222.84 134.687 222.257L137.079 225.38C136.464 225.781 135.85 226.289 135.235 226.904C134.621 227.519 134.084 228.224 133.625 229.019C132.966 230.161 132.654 231.306 132.691 232.454C132.731 233.594 133.091 234.67 133.77 235.682C134.445 236.681 135.421 237.549 136.698 238.286C137.908 238.984 139.077 239.44 140.206 239.652C141.327 239.859 142.359 239.761 143.302 239.358C144.236 238.951 145.033 238.176 145.692 237.034C146.014 236.476 146.26 235.992 146.429 235.582C146.594 235.159 146.745 234.761 146.881 234.389L143.012 232.155L140.983 235.669L137.71 233.779ZM149.921 203.313C150.849 201.706 151.964 200.732 153.267 200.39C154.565 200.034 156.124 200.382 157.942 201.432L167.19 206.771L164.949 210.653L156.665 205.87C155.65 205.284 154.785 205.016 154.069 205.065C153.353 205.113 152.785 205.502 152.365 206.229C151.774 207.252 151.722 208.192 152.209 209.048C152.687 209.899 153.607 210.718 154.969 211.504L162.085 215.613L159.851 219.482L151.568 214.7C150.891 214.309 150.28 214.058 149.736 213.946C149.191 213.835 148.714 213.87 148.305 214.051C147.896 214.232 147.55 214.568 147.267 215.058C146.852 215.777 146.707 216.449 146.831 217.073C146.952 217.684 147.312 218.281 147.912 218.864C148.507 219.434 149.309 220.009 150.315 220.59L156.988 224.442L154.754 228.312L140.571 220.123L142.278 217.167L144.392 217.695L144.516 217.479C144.192 216.908 144.002 216.319 143.946 215.712C143.896 215.097 143.95 214.485 144.109 213.878C144.268 213.27 144.504 212.696 144.816 212.155C145.417 211.115 146.094 210.333 146.847 209.809C147.605 209.277 148.452 209.022 149.387 209.043L149.585 208.7C149.102 207.857 148.917 206.956 149.032 205.996C149.151 205.028 149.448 204.133 149.921 203.313Z" fill="black"/>
<path d="M112.056 337.208C112.056 338.077 112.227 338.849 112.568 339.522C112.9 340.187 113.384 340.748 114.019 341.207C114.653 341.656 115.42 341.998 116.318 342.232C117.217 342.467 118.228 342.584 119.351 342.584C120.864 342.584 122.158 342.398 123.232 342.027C124.297 341.646 125.112 341.061 125.679 340.27C126.235 339.479 126.514 338.458 126.514 337.208C126.514 336.339 126.416 335.47 126.221 334.601C126.025 333.722 125.747 332.77 125.386 331.744H129.194C129.585 332.691 129.863 333.624 130.029 334.542C130.205 335.46 130.293 336.49 130.293 337.633C130.293 339.84 129.839 341.656 128.931 343.082C128.013 344.498 126.733 345.548 125.093 346.231C123.442 346.915 121.519 347.257 119.321 347.257C117.7 347.257 116.216 347.037 114.868 346.598C113.521 346.158 112.354 345.514 111.367 344.664C110.381 343.814 109.619 342.765 109.082 341.515C108.545 340.265 108.276 338.829 108.276 337.208C108.276 336.144 108.413 335.079 108.687 334.015C108.95 332.94 109.316 331.915 109.785 330.938L113.477 332.403C113.096 333.204 112.764 334.01 112.48 334.82C112.197 335.631 112.056 336.427 112.056 337.208ZM113.315 308.292C113.315 306.437 113.794 305.035 114.751 304.088C115.698 303.131 117.222 302.652 119.321 302.652H130V307.135H120.435C119.263 307.135 118.379 307.335 117.783 307.735C117.188 308.136 116.89 308.756 116.89 309.596C116.89 310.777 117.314 311.617 118.164 312.115C119.004 312.613 120.21 312.862 121.782 312.862H130V317.33H120.435C119.653 317.33 118.999 317.418 118.472 317.594C117.944 317.77 117.549 318.038 117.285 318.399C117.021 318.761 116.89 319.225 116.89 319.791C116.89 320.621 117.1 321.275 117.52 321.754C117.93 322.223 118.54 322.56 119.351 322.765C120.151 322.96 121.133 323.058 122.295 323.058H130V327.525H113.623V324.112L115.718 323.512V323.263C115.151 322.931 114.692 322.516 114.341 322.018C113.989 321.51 113.73 320.953 113.564 320.348C113.398 319.742 113.315 319.127 113.315 318.502C113.315 317.301 113.511 316.285 113.901 315.455C114.292 314.615 114.897 313.971 115.718 313.521V313.126C114.878 312.638 114.268 311.949 113.887 311.061C113.506 310.162 113.315 309.239 113.315 308.292Z" fill="black"/>
<path d="M166.131 427.134L168.365 431.003L149.818 441.711L143.681 431.08L146.903 429.22L150.807 435.981L155.589 433.22L151.956 426.928L155.166 425.075L158.799 431.367L166.131 427.134ZM136.243 408.734C135.315 407.127 135.029 405.674 135.384 404.375C135.726 403.073 136.806 401.897 138.624 400.847L147.872 395.508L150.113 399.39L141.829 404.172C140.814 404.758 140.149 405.374 139.833 406.018C139.518 406.663 139.57 407.349 139.99 408.076C140.581 409.099 141.368 409.614 142.353 409.621C143.33 409.632 144.499 409.245 145.86 408.459L152.977 404.35L155.211 408.219L146.927 413.002C146.25 413.392 145.728 413.796 145.359 414.212C144.99 414.627 144.782 415.058 144.734 415.503C144.686 415.947 144.804 416.415 145.087 416.905C145.502 417.624 146.011 418.086 146.614 418.29C147.204 418.491 147.901 418.478 148.705 418.25C149.497 418.019 150.395 417.613 151.402 417.032L158.075 413.179L160.309 417.048L146.126 425.237L144.419 422.281L145.933 420.714L145.808 420.498C145.152 420.494 144.547 420.364 143.993 420.108C143.435 419.844 142.933 419.491 142.486 419.05C142.04 418.609 141.66 418.117 141.348 417.576C140.747 416.536 140.408 415.559 140.332 414.645C140.25 413.722 140.452 412.861 140.938 412.062L140.74 411.719C139.769 411.716 138.896 411.425 138.122 410.846C137.343 410.258 136.716 409.554 136.243 408.734Z" fill="black"/>
<path d="M240.714 517.493L234.942 514.161C232.472 512.735 230.803 511.309 229.935 509.883C229.067 508.457 229.136 506.873 230.141 505.131C230.547 504.429 231.027 503.861 231.583 503.426C232.13 502.986 232.72 502.707 233.352 502.587C233.985 502.468 234.638 502.529 235.31 502.77L235.383 502.644C234.839 502.16 234.408 501.618 234.09 501.017C233.767 500.425 233.628 499.747 233.674 498.984C233.706 498.225 234.003 497.359 234.565 496.386C235.214 495.261 236.046 494.456 237.059 493.97C238.073 493.484 239.216 493.32 240.488 493.48C241.747 493.643 243.079 494.13 244.482 494.94L251.422 498.947L240.714 517.493ZM241.022 507.878L238.738 506.559C237.597 505.9 236.703 505.621 236.058 505.723C235.409 505.832 234.881 506.238 234.476 506.94C234.066 507.651 234.035 508.309 234.383 508.917C234.719 509.527 235.449 510.157 236.574 510.807L238.641 512.001L241.022 507.878ZM242.823 504.757L245.614 499.924L243.051 498.444C241.867 497.761 240.911 497.513 240.182 497.701C239.453 497.889 238.867 498.368 238.422 499.138C238.159 499.594 238.028 500.055 238.031 500.519C238.034 500.983 238.22 501.451 238.59 501.924C238.951 502.392 239.551 502.867 240.388 503.351L242.823 504.757ZM219.005 506.55L221.656 501.957C221.964 501.425 222.286 500.906 222.622 500.401C222.95 499.891 223.219 499.505 223.427 499.242L223.275 499.154C222.566 499.522 221.773 499.724 220.895 499.759C220.013 499.802 219.061 499.529 218.037 498.938C216.447 498.02 215.517 496.654 215.245 494.839C214.973 493.025 215.531 490.916 216.917 488.515C217.85 486.899 218.862 485.674 219.953 484.838C221.04 484.011 222.155 483.555 223.297 483.47C224.435 483.394 225.545 483.668 226.628 484.293C227.668 484.894 228.381 485.554 228.766 486.273C229.152 486.991 229.397 487.691 229.5 488.371L229.767 488.525L231.314 487.338L234.27 489.044L222.874 508.784L219.005 506.55ZM221.068 496.56C221.744 496.951 222.362 497.121 222.921 497.072C223.479 497.022 224.013 496.772 224.521 496.321C225.021 495.866 225.526 495.216 226.036 494.371L226.278 493.953C227.073 492.574 227.481 491.4 227.5 490.43C227.514 489.468 226.984 488.677 225.91 488.057C225.115 487.598 224.272 487.602 223.382 488.069C222.484 488.531 221.634 489.456 220.833 490.843C220.033 492.23 219.666 493.411 219.735 494.387C219.803 495.362 220.247 496.087 221.068 496.56ZM192.83 484.385C191.224 483.457 190.249 482.342 189.907 481.039C189.552 479.74 189.899 478.182 190.949 476.364L196.289 467.116L200.171 469.357L195.388 477.641C194.802 478.656 194.533 479.521 194.582 480.237C194.631 480.953 195.019 481.521 195.747 481.941C196.77 482.532 197.71 482.584 198.566 482.097C199.417 481.619 200.236 480.699 201.022 479.337L205.131 472.221L209 474.454L204.217 482.738C203.827 483.415 203.576 484.025 203.464 484.57C203.353 485.115 203.388 485.591 203.569 486C203.75 486.409 204.085 486.756 204.576 487.039C205.295 487.454 205.966 487.599 206.591 487.475C207.202 487.354 207.799 486.994 208.382 486.394C208.951 485.799 209.527 484.997 210.108 483.991L213.96 477.318L217.829 479.552L209.641 493.735L206.685 492.028L207.212 489.914L206.997 489.79C206.426 490.114 205.837 490.304 205.23 490.359C204.614 490.41 204.003 490.356 203.395 490.197C202.788 490.038 202.214 489.802 201.673 489.49C200.632 488.889 199.85 488.212 199.327 487.459C198.795 486.701 198.539 485.854 198.56 484.919L198.218 484.721C197.375 485.204 196.474 485.389 195.514 485.274C194.545 485.155 193.651 484.858 192.83 484.385Z" fill="black"/>
<path d="M337.971 507H350.305V528.416H337.971V524.695H345.764V519.993H338.513V516.272H345.764V510.75H337.971V507ZM329.372 529.793V524.49C329.372 523.875 329.392 523.265 329.431 522.659C329.46 522.054 329.499 521.585 329.548 521.253H329.372C328.942 521.927 328.356 522.498 327.614 522.967C326.872 523.445 325.91 523.685 324.729 523.685C322.893 523.685 321.403 522.967 320.261 521.531C319.118 520.096 318.547 517.991 318.547 515.218C318.547 513.353 318.811 511.785 319.338 510.516C319.865 509.256 320.603 508.304 321.55 507.659C322.497 507.024 323.596 506.707 324.846 506.707C326.047 506.707 326.994 506.922 327.688 507.352C328.381 507.781 328.942 508.265 329.372 508.802H329.68L330.427 507H333.84V529.793H329.372ZM326.164 520.11C326.945 520.11 327.565 519.949 328.024 519.627C328.483 519.305 328.82 518.821 329.035 518.177C329.24 517.532 329.353 516.717 329.372 515.73V515.247C329.372 513.655 329.138 512.435 328.669 511.585C328.2 510.745 327.346 510.325 326.105 510.325C325.188 510.325 324.46 510.75 323.923 511.6C323.376 512.449 323.103 513.675 323.103 515.276C323.103 516.878 323.376 518.084 323.923 518.895C324.47 519.705 325.217 520.11 326.164 520.11ZM295.622 523.685C293.767 523.685 292.365 523.206 291.418 522.249C290.461 521.302 289.982 519.778 289.982 517.679V507H294.465V516.565C294.465 517.737 294.665 518.621 295.065 519.217C295.466 519.812 296.086 520.11 296.926 520.11C298.107 520.11 298.947 519.686 299.445 518.836C299.943 517.996 300.192 516.79 300.192 515.218V507H304.66V516.565C304.66 517.347 304.748 518.001 304.924 518.528C305.1 519.056 305.368 519.451 305.729 519.715C306.091 519.979 306.555 520.11 307.121 520.11C307.951 520.11 308.605 519.9 309.084 519.48C309.553 519.07 309.89 518.46 310.095 517.649C310.29 516.849 310.388 515.867 310.388 514.705V507H314.855V523.377H311.442L310.842 521.282H310.593C310.261 521.849 309.846 522.308 309.348 522.659C308.84 523.011 308.283 523.27 307.678 523.436C307.072 523.602 306.457 523.685 305.832 523.685C304.631 523.685 303.615 523.489 302.785 523.099C301.945 522.708 301.301 522.103 300.852 521.282H300.456C299.968 522.122 299.279 522.732 298.391 523.113C297.492 523.494 296.569 523.685 295.622 523.685Z" fill="black"/>
<path d="M437.626 481.622L430.268 485.87L424.716 476.254C425.504 475.371 426.365 474.53 427.302 473.73C428.243 472.938 429.377 472.159 430.705 471.393C432.549 470.328 434.324 469.788 436.029 469.774C437.734 469.759 439.331 470.269 440.82 471.304C442.308 472.339 443.651 473.893 444.847 475.965C445.97 477.91 446.569 479.808 446.645 481.658C446.713 483.514 446.253 485.245 445.264 486.853C444.267 488.466 442.728 489.874 440.648 491.075C439.667 491.641 438.638 492.095 437.56 492.435C436.482 492.775 435.456 493.001 434.483 493.112L433.973 489.211C434.706 489.172 435.492 489.039 436.332 488.814C437.171 488.588 437.989 488.246 438.784 487.787C439.925 487.128 440.768 486.292 441.311 485.279C441.845 484.272 442.072 483.16 441.99 481.944C441.905 480.742 441.493 479.502 440.756 478.225C440.058 477.016 439.273 476.037 438.401 475.288C437.534 474.548 436.592 474.117 435.574 473.995C434.56 473.88 433.483 474.153 432.341 474.812C431.783 475.134 431.328 475.431 430.977 475.701C430.622 475.985 430.293 476.254 429.989 476.509L432.222 480.378L435.736 478.349L437.626 481.622ZM415.67 494.687L414.567 491.4L411.294 493.289L409.786 490.676L413.553 488.501L411.556 482.786L414.347 481.175L416.331 486.897L418.793 485.476L416.783 479.769L419.511 478.194L421.545 483.887L424.565 482.143L426.073 484.757L422.559 486.786L423.662 490.073L426.859 488.227L428.39 490.879L424.724 492.995L426.728 498.722L423.95 500.326L421.946 494.599L419.434 496.05L421.425 501.784L418.698 503.359L416.706 497.624L413.662 499.382L412.131 496.731L415.67 494.687ZM419.807 488.375L417.32 489.81L418.423 493.098L420.91 491.662L419.807 488.375ZM395.022 511.599C393.415 512.526 391.962 512.813 390.663 512.457C389.361 512.115 388.184 511.035 387.135 509.217L381.795 499.969L385.677 497.728L390.46 506.012C391.046 507.027 391.661 507.692 392.306 508.008C392.95 508.323 393.636 508.271 394.364 507.851C395.387 507.26 395.902 506.473 395.908 505.488C395.92 504.511 395.532 503.343 394.746 501.981L390.637 494.864L394.507 492.63L399.289 500.914C399.68 501.591 400.083 502.113 400.499 502.482C400.915 502.851 401.345 503.059 401.79 503.107C402.235 503.155 402.702 503.037 403.193 502.754C403.912 502.339 404.374 501.83 404.578 501.227C404.779 500.637 404.765 499.94 404.538 499.136C404.307 498.344 403.9 497.446 403.319 496.439L399.467 489.766L403.336 487.533L411.524 501.715L408.569 503.422L407.001 501.908L406.785 502.033C406.781 502.689 406.651 503.294 406.396 503.848C406.132 504.406 405.779 504.909 405.338 505.355C404.896 505.802 404.405 506.181 403.864 506.494C402.823 507.094 401.846 507.433 400.932 507.51C400.009 507.591 399.149 507.389 398.349 506.903L398.007 507.101C398.004 508.072 397.713 508.945 397.134 509.719C396.546 510.499 395.842 511.125 395.022 511.599Z" fill="black"/>
<path d="M506.439 402.684C506.873 401.932 507.111 401.178 507.152 400.424C507.196 399.682 507.058 398.955 506.738 398.24C506.413 397.533 505.92 396.854 505.259 396.202C504.598 395.55 503.782 394.943 502.809 394.381C501.498 393.624 500.285 393.138 499.169 392.922C498.057 392.72 497.057 392.82 496.171 393.221C495.294 393.628 494.543 394.373 493.918 395.455C493.483 396.208 493.133 397.01 492.868 397.86C492.597 398.719 492.362 399.682 492.162 400.751L488.864 398.847C488.999 397.831 489.225 396.884 489.54 396.006C489.847 395.123 490.286 394.187 490.857 393.198C491.96 391.286 493.262 389.94 494.761 389.16C496.264 388.392 497.897 388.123 499.66 388.351C501.431 388.584 503.268 389.25 505.171 390.349C506.575 391.16 507.75 392.092 508.698 393.146C509.645 394.201 510.333 395.342 510.763 396.571C511.192 397.8 511.327 399.09 511.167 400.441C511.007 401.793 510.522 403.17 509.711 404.574C509.179 405.496 508.529 406.349 507.76 407.134C506.994 407.933 506.164 408.638 505.27 409.249L502.806 406.135C503.536 405.632 504.226 405.1 504.877 404.54C505.527 403.979 506.048 403.361 506.439 402.684ZM490.619 418.923L488.02 416.627L486.13 419.9L483.517 418.391L485.692 414.624L481.106 410.673L482.717 407.882L487.296 411.845L488.717 409.384L484.123 405.447L485.698 402.719L490.307 406.632L492.05 403.612L494.663 405.121L492.634 408.635L495.233 410.931L497.079 407.734L499.73 409.264L497.613 412.931L502.213 416.888L500.609 419.667L496.009 415.709L494.559 418.221L499.151 422.191L497.576 424.919L492.985 420.948L491.227 423.993L488.575 422.462L490.619 418.923ZM491.045 411.388L489.609 413.874L492.208 416.17L493.644 413.683L491.045 411.388ZM481.192 443.893C480.265 445.499 479.149 446.474 477.847 446.816C476.548 447.171 474.99 446.824 473.171 445.774L463.923 440.434L466.164 436.553L474.448 441.335C475.463 441.921 476.329 442.19 477.045 442.141C477.761 442.092 478.329 441.704 478.749 440.976C479.34 439.953 479.392 439.013 478.905 438.157C478.427 437.306 477.507 436.487 476.145 435.701L469.028 431.592L471.262 427.723L479.546 432.506C480.223 432.896 480.833 433.147 481.378 433.259C481.922 433.37 482.399 433.336 482.808 433.154C483.217 432.973 483.563 432.638 483.846 432.147C484.261 431.428 484.407 430.757 484.282 430.132C484.162 429.521 483.801 428.924 483.202 428.341C482.606 427.772 481.805 427.197 480.799 426.615L474.126 422.763L476.36 418.894L490.543 427.082L488.836 430.038L486.722 429.511L486.597 429.726C486.922 430.297 487.112 430.886 487.167 431.493C487.218 432.109 487.163 432.72 487.004 433.328C486.845 433.935 486.61 434.509 486.297 435.051C485.697 436.091 485.02 436.873 484.266 437.396C483.508 437.928 482.662 438.184 481.727 438.163L481.529 438.505C482.012 439.348 482.196 440.249 482.082 441.209C481.962 442.178 481.666 443.072 481.192 443.893Z" fill="black"/>
<path d="M506 295.163V290.695H527.416V302.971H523.695V295.163H518.173V302.429H514.467V295.163H506ZM518.363 319.099L514.965 318.41V322.189H511.947V317.839L506 316.711V313.488L511.947 314.631V311.789L506 310.676V307.526L511.947 308.61V305.124H514.965V309.182L518.363 309.87V306.179H521.425V310.412L527.387 311.54V314.748L521.425 313.62V316.521L527.387 317.663V320.812L521.425 319.67V323.186H518.363V319.099ZM514.965 312.36V315.231L518.363 315.92V313.049L514.965 312.36ZM522.685 345.437C522.685 347.292 522.206 348.693 521.249 349.641C520.302 350.598 518.778 351.076 516.679 351.076H506V346.594H515.565C516.737 346.594 517.621 346.394 518.217 345.993C518.812 345.593 519.11 344.973 519.11 344.133C519.11 342.951 518.686 342.111 517.836 341.613C516.996 341.115 515.79 340.866 514.218 340.866H506V336.398H515.565C516.347 336.398 517.001 336.311 517.528 336.135C518.056 335.959 518.451 335.69 518.715 335.329C518.979 334.968 519.11 334.504 519.11 333.938C519.11 333.107 518.9 332.453 518.48 331.975C518.07 331.506 517.46 331.169 516.649 330.964C515.849 330.769 514.867 330.671 513.705 330.671H506V326.203H522.377V329.616L520.282 330.217V330.466C520.849 330.798 521.308 331.213 521.659 331.711C522.011 332.219 522.27 332.775 522.436 333.381C522.602 333.986 522.685 334.602 522.685 335.227C522.685 336.428 522.489 337.443 522.099 338.273C521.708 339.113 521.103 339.758 520.282 340.207V340.603C521.122 341.091 521.732 341.779 522.113 342.668C522.494 343.566 522.685 344.489 522.685 345.437Z" fill="black"/>
<path d="M484.689 197.626L488.021 203.398C489.447 205.868 490.179 207.937 490.218 209.606C490.257 211.275 489.406 212.612 487.663 213.618C486.961 214.024 486.261 214.276 485.563 214.374C484.869 214.482 484.218 214.429 483.611 214.216C483.003 214.003 482.468 213.624 482.007 213.078L481.88 213.152C482.109 213.842 482.212 214.527 482.187 215.207C482.171 215.882 481.952 216.538 481.531 217.176C481.123 217.817 480.433 218.419 479.46 218.98C478.335 219.63 477.213 219.911 476.092 219.826C474.971 219.74 473.899 219.31 472.877 218.535C471.868 217.765 470.959 216.677 470.148 215.273L466.142 208.334L484.689 197.626ZM479.614 205.8L480.932 208.083C481.592 209.225 482.226 209.913 482.835 210.148C483.452 210.377 484.112 210.29 484.814 209.884C485.525 209.474 485.881 208.919 485.882 208.219C485.897 207.522 485.58 206.612 484.931 205.487L483.737 203.419L479.614 205.8ZM476.493 207.601L471.66 210.392L473.14 212.954C473.823 214.138 474.528 214.831 475.253 215.033C475.978 215.234 476.725 215.113 477.495 214.668C477.952 214.405 478.295 214.071 478.524 213.668C478.754 213.265 478.827 212.766 478.743 212.172C478.664 211.586 478.383 210.874 477.9 210.037L476.493 207.601ZM500.11 233.8C501.038 235.407 501.324 236.86 500.969 238.159C500.627 239.461 499.547 240.637 497.729 241.687L488.481 247.026L486.24 243.144L494.523 238.362C495.538 237.776 496.204 237.16 496.519 236.516C496.835 235.871 496.783 235.185 496.363 234.458C495.772 233.435 494.984 232.92 494 232.913C493.023 232.902 491.854 233.289 490.493 234.075L483.376 238.184L481.142 234.315L489.426 229.532C490.102 229.142 490.625 228.738 490.994 228.322C491.363 227.907 491.571 227.476 491.619 227.031C491.666 226.587 491.549 226.119 491.265 225.629C490.85 224.91 490.341 224.448 489.738 224.244C489.149 224.043 488.452 224.056 487.647 224.284C486.856 224.515 485.957 224.921 484.951 225.502L478.278 229.355L476.044 225.486L490.227 217.297L491.934 220.253L490.42 221.82L490.544 222.036C491.201 222.04 491.806 222.17 492.359 222.426C492.918 222.69 493.42 223.043 493.867 223.484C494.313 223.925 494.693 224.417 495.005 224.958C495.606 225.998 495.945 226.975 496.021 227.889C496.103 228.812 495.901 229.673 495.415 230.472L495.613 230.815C496.584 230.818 497.457 231.109 498.231 231.688C499.01 232.276 499.637 232.98 500.11 233.8Z" fill="black"/>
<path d="M404.516 158.227L393.834 152.06L404.542 133.514L415.224 139.681L413.363 142.903L406.615 139.006L404.263 143.079L410.543 146.704L408.683 149.926L402.403 146.301L399.642 151.083L406.391 154.98L404.516 158.227ZM433.092 155.46C434.699 156.388 435.673 157.503 436.015 158.806C436.37 160.104 436.023 161.663 434.973 163.481L429.634 172.729L425.752 170.488L430.535 162.204C431.121 161.189 431.389 160.324 431.34 159.608C431.291 158.892 430.903 158.324 430.176 157.904C429.153 157.313 428.213 157.261 427.357 157.748C426.505 158.226 425.687 159.146 424.901 160.508L420.792 167.624L416.923 165.391L421.705 157.107C422.096 156.43 422.347 155.819 422.458 155.275C422.57 154.73 422.535 154.254 422.354 153.845C422.173 153.435 421.837 153.089 421.347 152.806C420.628 152.391 419.956 152.246 419.332 152.37C418.721 152.491 418.124 152.851 417.541 153.451C416.971 154.046 416.396 154.848 415.815 155.854L411.962 162.527L408.093 160.293L416.282 146.11L419.237 147.817L418.71 149.931L418.926 150.055C419.497 149.731 420.086 149.541 420.693 149.486C421.308 149.435 421.92 149.489 422.527 149.648C423.134 149.807 423.709 150.043 424.25 150.355C425.29 150.956 426.072 151.633 426.596 152.386C427.128 153.144 427.383 153.991 427.362 154.926L427.705 155.124C428.547 154.641 429.449 154.456 430.409 154.571C431.377 154.69 432.272 154.987 433.092 155.46Z" fill="black"/>
<path d="M185.839 104.93L179.39 108.653L161.544 77.7419L179.262 67.5124L182.362 72.8828L171.093 79.3891L175.695 87.3601L186.182 81.3054L189.27 86.6547L178.783 92.7093L185.839 104.93Z" fill="black"/>
<path d="M54.2341 197.921L59.7883 188.3C62.1646 184.185 64.541 181.403 66.9175 179.956C69.2941 178.509 71.9342 178.624 74.8378 180.3C76.0078 180.976 76.955 181.776 77.6797 182.702C78.4125 183.614 78.8785 184.597 79.0777 185.652C79.2769 186.707 79.1752 187.794 78.7725 188.915L78.9839 189.037C79.7894 188.13 80.693 187.411 81.6947 186.881C82.6823 186.342 83.8118 186.111 85.0833 186.187C86.3489 186.241 87.7922 186.736 89.4131 187.672C91.2878 188.755 92.6302 190.14 93.4403 191.83C94.2504 193.519 94.5226 195.424 94.2567 197.545C93.9849 199.643 93.1736 201.862 91.8227 204.202L85.1454 215.767L54.2341 197.921ZM70.2602 198.434L72.4574 194.628C73.5561 192.725 74.021 191.237 73.8521 190.162C73.6692 189.079 72.9928 188.2 71.8229 187.524C70.6388 186.841 69.5408 186.789 68.5288 187.37C67.5109 187.929 66.4607 189.146 65.3784 191.02L63.3886 194.467L70.2602 198.434ZM75.4614 201.437L83.517 206.088L85.9828 201.817C87.1221 199.844 87.535 198.25 87.2214 197.035C86.9079 195.82 86.1097 194.843 84.827 194.102C84.0659 193.663 83.2987 193.445 82.5255 193.45C81.7522 193.454 80.9716 193.765 80.1835 194.381C79.4036 194.983 78.6108 195.982 77.8052 197.378L75.4614 201.437ZM72.4737 161.739L80.1275 166.158C81.0155 166.671 81.8802 167.207 82.7216 167.768C83.5711 168.315 84.2151 168.762 84.6537 169.109L84.8002 168.856C84.1856 167.674 83.8493 166.352 83.7912 164.89C83.7191 163.42 84.1753 161.832 85.16 160.127C86.69 157.477 88.967 155.925 91.9912 155.473C95.0154 155.02 98.529 155.949 102.532 158.26C105.224 159.814 107.267 161.501 108.66 163.32C110.039 165.131 110.799 166.989 110.94 168.893C111.066 170.789 110.609 172.64 109.567 174.444C108.566 176.178 107.467 177.366 106.269 178.009C105.071 178.651 103.905 179.059 102.772 179.232L102.516 179.676L104.494 182.255L101.649 187.182L68.7505 168.188L72.4737 161.739ZM89.1227 165.177C88.4716 166.305 88.1874 167.334 88.2701 168.265C88.3528 169.196 88.7697 170.086 89.521 170.933C90.2804 171.766 91.3638 172.608 92.7711 173.458L93.4689 173.86C95.7664 175.187 97.7237 175.866 99.3406 175.897C100.943 175.921 102.262 175.037 103.295 173.247C104.06 171.922 104.053 170.518 103.275 169.035C102.504 167.537 100.963 166.121 98.6512 164.787C96.3395 163.452 94.3709 162.842 92.7452 162.956C91.1196 163.07 89.9121 163.81 89.1227 165.177Z" fill="black"/>
<path d="M67 324.951V345.508H31.3066L31.3066 324.951H37.5078V337.939H45.3447V325.854H51.5459L51.5459 337.939H60.75L60.75 324.951H67ZM29.0117 310.62H37.8496C38.875 310.62 39.8923 310.653 40.9014 310.718C41.9105 310.767 42.6917 310.832 43.2451 310.913V310.62C42.1221 309.904 41.1699 308.927 40.3887 307.69C39.5911 306.453 39.1924 304.85 39.1924 302.881C39.1924 299.821 40.3887 297.339 42.7812 295.435C45.1738 293.53 48.6813 292.578 53.3037 292.578C56.4124 292.578 59.0247 293.018 61.1406 293.896C63.2402 294.775 64.8271 296.004 65.9014 297.583C66.9593 299.162 67.4883 300.993 67.4883 303.076C67.4883 305.078 67.1302 306.657 66.4141 307.812C65.6979 308.968 64.8923 309.904 63.9971 310.62V311.133L67 312.378V318.066H29.0117V310.62ZM45.1494 305.273C45.1494 306.576 45.418 307.609 45.9551 308.374C46.4922 309.139 47.2979 309.701 48.3721 310.059C49.4463 310.4 50.8053 310.588 52.4492 310.62H53.2549C55.9079 310.62 57.9424 310.229 59.3584 309.448C60.7581 308.667 61.458 307.243 61.458 305.176C61.458 303.646 60.75 302.433 59.334 301.538C57.918 300.627 55.8753 300.171 53.2061 300.171C50.5368 300.171 48.5267 300.627 47.1758 301.538C45.8249 302.45 45.1494 303.695 45.1494 305.273Z" fill="black"/>
<path d="M103.228 448.71L97.1641 455.199L103.67 466.469L112.322 464.462L116.399 471.524L79.0623 478.534L74.4358 470.52L99.1508 441.648L103.228 448.71ZM92.5702 459.938L86.6754 466.329C86.2776 466.747 85.7743 467.291 85.1655 467.962C84.5346 468.627 83.9007 469.303 83.2638 469.991C82.6046 470.672 82.0268 471.25 81.5303 471.724C82.1896 471.532 83.0224 471.314 84.0287 471.071C85.0127 470.823 85.9505 470.591 86.8418 470.377C87.7332 470.163 88.3695 470.012 88.7506 469.924L97.221 467.993L92.5702 459.938ZM60.5635 450.79L68.2174 446.371C69.1054 445.858 70.0026 445.378 70.9091 444.93C71.8074 444.467 72.5166 444.133 73.0365 443.927L72.89 443.673C71.5593 443.614 70.2465 443.245 68.9514 442.564C67.6422 441.892 66.4953 440.703 65.5106 438.997C63.9807 436.347 63.7756 433.599 64.8955 430.754C66.0154 427.908 68.5769 425.33 72.58 423.019C75.2722 421.465 77.7543 420.539 80.0261 420.242C82.2839 419.954 84.2726 420.224 85.9923 421.054C87.6979 421.893 89.0716 423.214 90.1132 425.018C91.1142 426.752 91.5935 428.298 91.5511 429.657C91.5087 431.016 91.2789 432.229 90.8617 433.297L91.1181 433.741L94.3412 433.318L97.1855 438.244L64.2867 457.238L60.5635 450.79ZM71.8658 438.091C72.5169 439.218 73.2662 439.979 74.1139 440.373C74.9615 440.767 75.94 440.85 77.0493 440.623C78.1505 440.382 79.4211 439.865 80.861 439.071L81.5587 438.668C83.8563 437.342 85.4229 435.986 86.2586 434.602C87.0802 433.225 86.9742 431.642 85.9407 429.852C85.1757 428.527 83.9563 427.831 82.2824 427.763C80.6003 427.682 78.6035 428.309 76.2918 429.643C73.9802 430.978 72.4672 432.378 71.753 433.842C71.0388 435.307 71.0764 436.723 71.8658 438.091Z" fill="black"/>
<path d="M176.625 556.189C178.635 552.707 180.985 550.183 183.675 548.616C186.342 547.056 189.28 546.412 192.486 546.684C195.685 546.971 199.06 548.14 202.612 550.191L211.366 555.244L193.519 586.156L183.814 580.553C180.572 578.681 178.094 576.479 176.379 573.948C174.656 571.431 173.79 568.667 173.781 565.655C173.764 562.657 174.712 559.501 176.625 556.189ZM183.53 559.95C182.212 562.234 181.468 564.304 181.298 566.16C181.106 568.023 181.462 569.685 182.366 571.147C183.256 572.6 184.659 573.88 186.576 574.987L190.065 577.001L201.686 556.873L198.874 555.249C195.674 553.402 192.807 552.883 190.272 553.694C187.722 554.496 185.475 556.582 183.53 559.95ZM154.377 566.207L158.796 558.553C159.309 557.665 159.846 556.801 160.406 555.959C160.953 555.11 161.4 554.466 161.747 554.027L161.494 553.881C160.312 554.495 158.99 554.831 157.528 554.89C156.058 554.962 154.471 554.505 152.765 553.521C150.115 551.991 148.564 549.714 148.111 546.69C147.658 543.665 148.587 540.152 150.898 536.149C152.453 533.456 154.139 531.414 155.958 530.021C157.769 528.642 159.627 527.882 161.531 527.741C163.428 527.614 165.278 528.072 167.082 529.113C168.816 530.114 170.004 531.214 170.647 532.412C171.289 533.61 171.697 534.776 171.87 535.909L172.314 536.165L174.893 534.187L179.82 537.031L160.826 569.93L154.377 566.207ZM157.816 549.558C158.943 550.209 159.973 550.493 160.904 550.411C161.835 550.328 162.724 549.911 163.571 549.16C164.404 548.4 165.246 547.317 166.096 545.91L166.499 545.212C167.825 542.914 168.504 540.957 168.536 539.34C168.559 537.737 167.675 536.419 165.885 535.386C164.56 534.621 163.156 534.628 161.673 535.406C160.176 536.177 158.76 537.718 157.425 540.03C156.09 542.341 155.48 544.31 155.594 545.936C155.708 547.561 156.448 548.769 157.816 549.558Z" fill="black"/>
<path d="M337.062 572H344.508V607.693H324.049V601.492H337.062V592.288H324.952V586.111H337.062V572ZM297.169 592.605L298.316 586.941H292.018V581.912H299.269L301.148 572H306.52L304.615 581.912H309.352L311.207 572H316.456L314.649 581.912H320.46V586.941H313.697L312.55 592.605H318.702V597.708H311.646L309.767 607.645H304.42L306.3 597.708H301.466L299.562 607.645H294.312L296.217 597.708H290.357V592.605H297.169ZM308.399 586.941H303.614L302.467 592.605H307.252L308.399 586.941Z" fill="black"/>
<path d="M476.169 566.148L466.549 571.702C462.433 574.078 458.984 575.299 456.203 575.364C453.421 575.429 451.192 574.009 449.516 571.106C448.84 569.936 448.42 568.769 448.256 567.605C448.077 566.449 448.165 565.364 448.52 564.351C448.874 563.338 449.506 562.447 450.415 561.678L450.293 561.466C449.142 561.849 448 562.02 446.868 561.978C445.743 561.951 444.649 561.586 443.586 560.885C442.517 560.205 441.515 559.055 440.579 557.434C439.497 555.559 439.027 553.688 439.17 551.82C439.313 549.952 440.03 548.166 441.321 546.462C442.605 544.781 444.417 543.265 446.757 541.914L458.323 535.237L476.169 566.148ZM462.547 557.69L458.741 559.887C456.838 560.986 455.691 562.043 455.3 563.058C454.917 564.087 455.063 565.187 455.739 566.357C456.422 567.541 457.348 568.134 458.514 568.137C459.675 568.162 461.193 567.634 463.068 566.551L466.514 564.562L462.547 557.69ZM459.544 552.489L454.893 544.433L450.622 546.899C448.649 548.039 447.494 549.213 447.158 550.421C446.823 551.63 447.025 552.876 447.766 554.158C448.205 554.92 448.761 555.491 449.433 555.874C450.105 556.257 450.936 556.378 451.927 556.238C452.903 556.107 454.089 555.638 455.485 554.833L459.544 552.489Z" fill="black"/>
<path d="M537.466 457.193L547.744 439.39L578.656 457.237L568.377 475.04L563.007 471.939L569.501 460.691L562.714 456.772L556.672 467.238L551.301 464.138L557.344 453.672L549.373 449.07L542.879 460.318L537.466 457.193Z" fill="black"/>
<path d="M577 332.343L585.496 329.755V316.742L577 314.154V306L612.84 318.598V327.851L577 340.497V332.343ZM591.844 327.948L600.145 325.36C600.698 325.198 601.406 324.978 602.269 324.701C603.147 324.441 604.035 324.172 604.93 323.896C605.841 323.635 606.631 323.424 607.298 323.261C606.631 323.098 605.8 322.87 604.808 322.577C603.831 322.3 602.903 322.032 602.024 321.771C601.146 321.511 600.519 321.324 600.145 321.21L591.844 318.646V327.948Z" fill="black"/>
<path d="M563.795 190.943C560.314 192.953 557.016 193.964 553.903 193.976C550.813 193.994 547.947 193.083 545.306 191.243C542.68 189.396 540.341 186.696 538.29 183.144L533.236 174.39L564.148 156.544L569.751 166.248C571.623 169.49 572.668 172.636 572.888 175.686C573.121 178.727 572.489 181.554 570.99 184.167C569.506 186.772 567.108 189.03 563.795 190.943ZM559.695 184.232C561.979 182.914 563.658 181.493 564.734 179.97C565.831 178.453 566.354 176.836 566.302 175.118C566.258 173.415 565.682 171.604 564.576 169.687L562.562 166.199L542.433 177.82L544.057 180.632C545.904 183.831 548.128 185.714 550.729 186.28C553.338 186.86 556.327 186.177 559.695 184.232Z" fill="black"/>
<path d="M456.147 81.5618L468.41 88.6419L459.157 104.668C457.227 104.268 455.294 103.726 453.359 103.041C451.432 102.342 449.362 101.353 447.149 100.076C444.076 98.3015 441.819 96.1899 440.376 93.7407C438.933 91.2915 438.339 88.5615 438.593 85.5505C438.846 82.5396 439.97 79.3074 441.964 75.854C443.836 72.6121 446.075 70.1651 448.683 68.5132C451.304 66.8695 454.188 66.091 457.333 66.1776C460.492 66.2725 463.805 67.3208 467.272 69.3228C468.908 70.2668 470.42 71.3748 471.809 72.6468C473.198 73.9188 474.379 75.211 475.35 76.5235L470.145 80.5097C469.477 79.4852 468.631 78.4609 467.606 77.4369C466.581 76.4128 465.406 75.5183 464.081 74.7533C462.178 73.6547 460.269 73.1354 458.355 73.1955C456.455 73.2638 454.662 73.8635 452.975 74.9946C451.311 76.1197 449.864 77.7465 448.635 79.8749C447.471 81.8906 446.713 83.8394 446.359 85.7214C446.014 87.5893 446.177 89.309 446.848 90.8806C447.527 92.4381 448.819 93.7662 450.722 94.8648C451.652 95.4019 452.459 95.8113 453.142 96.0929C453.847 96.3686 454.51 96.6199 455.131 96.8467L458.854 90.3981L452.997 87.0167L456.147 81.5618Z" fill="black"/>
<path d="M323.653 38.0928C322.205 38.0928 320.919 38.3776 319.796 38.9473C318.689 39.5007 317.753 40.3063 316.988 41.3643C316.24 42.4222 315.67 43.6999 315.279 45.1973C314.889 46.6947 314.693 48.3792 314.693 50.251C314.693 52.7738 315.003 54.9303 315.621 56.7207C316.256 58.4948 317.232 59.8538 318.551 60.7979C319.869 61.7256 321.57 62.1895 323.653 62.1895C325.102 62.1895 326.55 62.0267 327.999 61.7012C329.464 61.3757 331.051 60.9118 332.76 60.3096V66.6572C331.181 67.3083 329.627 67.7721 328.097 68.0488C326.567 68.3418 324.85 68.4883 322.945 68.4883C319.267 68.4883 316.24 67.7314 313.863 66.2178C311.503 64.6878 309.754 62.5557 308.614 59.8213C307.475 57.0706 306.905 53.8643 306.905 50.2021C306.905 47.5003 307.271 45.0264 308.004 42.7803C308.736 40.5342 309.811 38.5892 311.227 36.9453C312.643 35.3014 314.392 34.0319 316.476 33.1367C318.559 32.2415 320.951 31.7939 323.653 31.7939C325.427 31.7939 327.201 32.0218 328.976 32.4775C330.766 32.917 332.475 33.5273 334.103 34.3086L331.661 40.4609C330.326 39.8262 328.984 39.2728 327.633 38.8008C326.282 38.3288 324.955 38.0928 323.653 38.0928Z" fill="black"/>
<path d="M297.617 181.15H301.616C303.327 181.15 304.622 181.391 305.501 181.871C306.38 182.352 306.819 183.195 306.819 184.402C306.819 184.889 306.74 185.328 306.582 185.721C306.43 186.113 306.207 186.436 305.914 186.688C305.621 186.939 305.264 187.104 304.842 187.18V187.268C305.27 187.355 305.656 187.508 306.002 187.725C306.348 187.936 306.623 188.246 306.828 188.656C307.039 189.061 307.145 189.6 307.145 190.273C307.145 191.053 306.954 191.721 306.573 192.277C306.192 192.834 305.647 193.262 304.938 193.561C304.235 193.854 303.397 194 302.425 194H297.617V181.15ZM300.342 186.239H301.924C302.715 186.239 303.263 186.116 303.567 185.87C303.872 185.618 304.024 185.249 304.024 184.763C304.024 184.271 303.843 183.919 303.479 183.708C303.122 183.491 302.554 183.383 301.774 183.383H300.342V186.239ZM300.342 188.401V191.75H302.117C302.938 191.75 303.509 191.592 303.831 191.275C304.153 190.959 304.314 190.534 304.314 190.001C304.314 189.685 304.244 189.406 304.104 189.166C303.963 188.926 303.726 188.738 303.392 188.604C303.063 188.469 302.609 188.401 302.029 188.401H300.342ZM312.611 194.176C311.516 194.176 310.622 193.748 309.931 192.893C309.245 192.031 308.902 190.769 308.902 189.104C308.902 187.423 309.251 186.151 309.948 185.29C310.646 184.423 311.557 183.989 312.682 183.989C313.15 183.989 313.563 184.054 313.921 184.183C314.278 184.312 314.586 184.484 314.844 184.701C315.107 184.918 315.33 185.161 315.512 185.431H315.6C315.564 185.243 315.521 184.968 315.468 184.604C315.421 184.235 315.397 183.857 315.397 183.471V180.324H318.087V194H316.03L315.512 192.726H315.397C315.228 192.995 315.014 193.241 314.756 193.464C314.504 193.681 314.202 193.854 313.851 193.982C313.499 194.111 313.086 194.176 312.611 194.176ZM313.552 192.04C314.284 192.04 314.8 191.823 315.099 191.39C315.403 190.95 315.564 190.291 315.582 189.412V189.122C315.582 188.167 315.436 187.438 315.143 186.934C314.85 186.424 314.305 186.169 313.508 186.169C312.916 186.169 312.453 186.424 312.119 186.934C311.785 187.443 311.618 188.179 311.618 189.14C311.618 190.101 311.785 190.824 312.119 191.311C312.459 191.797 312.937 192.04 313.552 192.04ZM323.571 184.174V194H320.891V184.174H323.571ZM322.235 180.324C322.634 180.324 322.977 180.418 323.264 180.605C323.551 180.787 323.694 181.13 323.694 181.634C323.694 182.132 323.551 182.478 323.264 182.671C322.977 182.858 322.634 182.952 322.235 182.952C321.831 182.952 321.485 182.858 321.198 182.671C320.917 182.478 320.776 182.132 320.776 181.634C320.776 181.13 320.917 180.787 321.198 180.605C321.485 180.418 321.831 180.324 322.235 180.324ZM337.933 183.989C339.046 183.989 339.887 184.276 340.455 184.851C341.029 185.419 341.316 186.333 341.316 187.593V194H338.627V188.261C338.627 187.558 338.507 187.027 338.267 186.67C338.026 186.312 337.654 186.134 337.15 186.134C336.441 186.134 335.938 186.389 335.639 186.898C335.34 187.402 335.19 188.126 335.19 189.069V194H332.51V188.261C332.51 187.792 332.457 187.399 332.352 187.083C332.246 186.767 332.085 186.529 331.868 186.371C331.651 186.213 331.373 186.134 331.033 186.134C330.535 186.134 330.143 186.26 329.855 186.512C329.574 186.758 329.372 187.124 329.249 187.61C329.132 188.091 329.073 188.68 329.073 189.377V194H326.393V184.174H328.44L328.801 185.431H328.95C329.149 185.091 329.398 184.815 329.697 184.604C330.002 184.394 330.336 184.238 330.699 184.139C331.062 184.039 331.432 183.989 331.807 183.989C332.527 183.989 333.137 184.106 333.635 184.341C334.139 184.575 334.525 184.938 334.795 185.431H335.032C335.325 184.927 335.738 184.561 336.271 184.332C336.811 184.104 337.364 183.989 337.933 183.989Z" fill="black"/>
<path d="M244.309 216.446L237.901 220.146L231.476 209.018L237.885 205.318L239.001 207.251L234.952 209.589L236.362 212.032L240.13 209.857L241.246 211.79L237.478 213.965L239.135 216.835L243.184 214.497L244.309 216.446ZM249.238 213.803C248.289 214.351 247.302 214.427 246.275 214.032C245.251 213.629 244.323 212.707 243.491 211.266C242.65 209.809 242.316 208.534 242.489 207.439C242.659 206.34 243.232 205.509 244.206 204.946C244.612 204.712 245.002 204.561 245.376 204.494C245.75 204.427 246.103 204.423 246.434 204.482C246.771 204.537 247.085 204.637 247.378 204.779L247.454 204.735C247.329 204.591 247.154 204.374 246.926 204.086C246.701 203.79 246.492 203.474 246.299 203.139L244.725 200.414L247.055 199.069L253.892 210.913L252.111 211.941L251.025 211.097L250.926 211.154C250.914 211.472 250.851 211.792 250.74 212.114C250.63 212.428 250.455 212.729 250.215 213.016C249.975 213.303 249.649 213.566 249.238 213.803ZM248.985 211.483C249.619 211.117 249.957 210.671 249.999 210.146C250.043 209.614 249.853 208.962 249.429 208.192L249.284 207.941C248.807 207.114 248.315 206.555 247.809 206.265C247.301 205.97 246.701 206.022 246.011 206.421C245.499 206.717 245.225 207.169 245.191 207.777C245.157 208.386 245.38 209.106 245.86 209.938C246.341 210.77 246.847 211.314 247.379 211.568C247.917 211.819 248.452 211.791 248.985 211.483ZM253.729 199.661L258.642 208.171L256.32 209.511L251.407 201.001L253.729 199.661ZM250.647 196.995C250.992 196.796 251.336 196.706 251.678 196.725C252.018 196.738 252.314 196.963 252.565 197.4C252.814 197.831 252.863 198.202 252.711 198.513C252.556 198.819 252.306 199.072 251.961 199.271C251.611 199.473 251.265 199.565 250.922 199.546C250.582 199.519 250.287 199.29 250.038 198.859C249.786 198.422 249.737 198.055 249.89 197.757C250.045 197.451 250.297 197.197 250.647 196.995ZM266.074 192.321C267.038 191.764 267.91 191.592 268.689 191.805C269.471 192.01 270.176 192.658 270.806 193.749L274.01 199.298L271.681 200.643L268.811 195.673C268.459 195.064 268.09 194.665 267.703 194.475C267.317 194.286 266.905 194.317 266.469 194.569C265.855 194.923 265.546 195.396 265.542 195.987C265.535 196.573 265.767 197.274 266.239 198.091L268.704 202.361L266.383 203.702L263.513 198.731C263.279 198.325 263.037 198.012 262.787 197.79C262.538 197.569 262.28 197.444 262.013 197.416C261.746 197.387 261.465 197.458 261.171 197.627C260.74 197.877 260.463 198.182 260.34 198.544C260.22 198.897 260.228 199.316 260.364 199.798C260.503 200.273 260.747 200.812 261.095 201.416L263.407 205.42L261.085 206.76L256.172 198.25L257.946 197.227L258.886 198.135L259.016 198.06C259.018 197.666 259.096 197.303 259.249 196.971C259.408 196.636 259.62 196.335 259.884 196.067C260.149 195.799 260.444 195.571 260.769 195.384C261.393 195.023 261.979 194.82 262.528 194.774C263.081 194.725 263.598 194.846 264.077 195.138L264.283 195.019C264.285 194.436 264.459 193.912 264.807 193.448C265.159 192.981 265.582 192.605 266.074 192.321Z" fill="black"/>
<path d="M201.196 268.99L198.082 268.268L195.739 272.325L197.922 274.661L196.454 277.203L187.548 266.824L189.214 263.94L202.664 266.448L201.196 268.99ZM195.777 267.689L192.724 267.001C192.522 266.952 192.261 266.893 191.943 266.824C191.622 266.747 191.297 266.671 190.968 266.597C190.637 266.514 190.353 266.438 190.115 266.368C190.294 266.539 190.512 266.76 190.769 267.03C191.023 267.292 191.264 267.542 191.492 267.782C191.719 268.021 191.88 268.192 191.977 268.295L194.103 270.589L195.777 267.689ZM205.079 262.616C204.532 263.565 203.714 264.125 202.628 264.296C201.539 264.459 200.274 264.124 198.833 263.292C197.377 262.452 196.45 261.514 196.053 260.479C195.65 259.442 195.73 258.436 196.293 257.462C196.527 257.056 196.789 256.73 197.08 256.485C197.37 256.24 197.674 256.06 197.99 255.945C198.31 255.825 198.632 255.754 198.956 255.732L199 255.656C198.82 255.592 198.56 255.493 198.219 255.357C197.875 255.213 197.536 255.044 197.202 254.851L194.477 253.277L195.821 250.948L207.665 257.786L206.637 259.567L205.274 259.379L205.217 259.478C205.365 259.76 205.471 260.068 205.535 260.403C205.597 260.729 205.596 261.077 205.532 261.446C205.467 261.815 205.317 262.205 205.079 262.616ZM203.7 260.734C204.066 260.099 204.136 259.544 203.91 259.069C203.682 258.585 203.192 258.116 202.439 257.661L202.188 257.516C201.361 257.039 200.656 256.801 200.073 256.803C199.485 256.802 198.992 257.146 198.593 257.836C198.298 258.349 198.287 258.877 198.561 259.421C198.836 259.965 199.389 260.478 200.221 260.958C201.054 261.439 201.764 261.656 202.352 261.61C202.943 261.558 203.392 261.267 203.7 260.734ZM201.897 248.123L210.407 253.037L209.067 255.358L200.557 250.445L201.897 248.123ZM197.896 247.356C198.095 247.011 198.347 246.761 198.653 246.606C198.954 246.448 199.323 246.495 199.759 246.747C200.191 246.996 200.418 247.293 200.442 247.638C200.461 247.981 200.371 248.324 200.171 248.67C199.969 249.02 199.715 249.272 199.409 249.427C199.101 249.574 198.732 249.523 198.3 249.274C197.864 249.022 197.637 248.729 197.621 248.394C197.602 248.052 197.693 247.706 197.896 247.356ZM208.918 235.594C209.475 234.63 210.144 234.045 210.925 233.84C211.705 233.627 212.64 233.835 213.731 234.465L219.28 237.669L217.935 239.998L212.965 237.128C212.356 236.777 211.836 236.616 211.407 236.645C210.977 236.674 210.636 236.907 210.384 237.344C210.03 237.958 209.999 238.521 210.291 239.035C210.578 239.546 211.13 240.037 211.947 240.509L216.217 242.974L214.876 245.296L209.906 242.426C209.5 242.192 209.134 242.041 208.807 241.974C208.48 241.907 208.194 241.928 207.949 242.037C207.703 242.145 207.496 242.347 207.326 242.641C207.077 243.073 206.99 243.475 207.064 243.85C207.137 244.217 207.353 244.575 207.712 244.925C208.07 245.266 208.551 245.612 209.154 245.96L213.158 248.272L211.818 250.593L203.308 245.68L204.332 243.907L205.601 244.223L205.675 244.094C205.481 243.751 205.367 243.398 205.333 243.034C205.303 242.664 205.336 242.297 205.431 241.933C205.526 241.568 205.668 241.224 205.855 240.899C206.216 240.275 206.622 239.806 207.074 239.492C207.529 239.172 208.037 239.019 208.598 239.032L208.716 238.826C208.426 238.321 208.316 237.78 208.385 237.204C208.456 236.623 208.634 236.086 208.918 235.594Z" fill="black"/>
<path d="M184.452 331.722C185.899 331.722 187.109 332 188.082 332.557C189.049 333.107 189.778 333.907 190.271 334.956C190.757 336.005 191 337.268 191 338.744V342.383H178.15V338.349C178.15 337.001 178.391 335.832 178.871 334.842C179.346 333.852 180.052 333.084 180.989 332.539C181.921 331.994 183.075 331.722 184.452 331.722ZM184.522 334.552C183.573 334.552 182.794 334.692 182.185 334.974C181.569 335.249 181.115 335.659 180.822 336.204C180.529 336.743 180.383 337.411 180.383 338.208V339.658H188.75V338.489C188.75 337.159 188.396 336.172 187.687 335.527C186.978 334.877 185.923 334.552 184.522 334.552ZM191.176 326.158C191.176 327.254 190.748 328.147 189.893 328.839C189.031 329.524 187.769 329.867 186.104 329.867C184.423 329.867 183.151 329.519 182.29 328.821C181.423 328.124 180.989 327.213 180.989 326.088C180.989 325.619 181.054 325.206 181.183 324.849C181.312 324.491 181.484 324.184 181.701 323.926C181.918 323.662 182.161 323.439 182.431 323.258V323.17C182.243 323.205 181.968 323.249 181.604 323.302C181.235 323.349 180.857 323.372 180.471 323.372H177.324V320.683H191V322.739L189.726 323.258V323.372C189.995 323.542 190.241 323.756 190.464 324.014C190.681 324.266 190.854 324.567 190.982 324.919C191.111 325.271 191.176 325.684 191.176 326.158ZM189.04 325.218C189.04 324.485 188.823 323.97 188.39 323.671C187.95 323.366 187.291 323.205 186.412 323.188H186.122C185.167 323.188 184.438 323.334 183.934 323.627C183.424 323.92 183.169 324.465 183.169 325.262C183.169 325.854 183.424 326.316 183.934 326.65C184.443 326.984 185.179 327.151 186.14 327.151C187.101 327.151 187.824 326.984 188.311 326.65C188.797 326.311 189.04 325.833 189.04 325.218ZM181.174 315.198H191V317.879H181.174V315.198ZM177.324 316.534C177.324 316.136 177.418 315.793 177.605 315.506C177.787 315.219 178.13 315.075 178.634 315.075C179.132 315.075 179.478 315.219 179.671 315.506C179.858 315.793 179.952 316.136 179.952 316.534C179.952 316.938 179.858 317.284 179.671 317.571C179.478 317.853 179.132 317.993 178.634 317.993C178.13 317.993 177.787 317.853 177.605 317.571C177.418 317.284 177.324 316.938 177.324 316.534ZM180.989 300.837C180.989 299.724 181.276 298.883 181.851 298.314C182.419 297.74 183.333 297.453 184.593 297.453H191V300.143H185.261C184.558 300.143 184.027 300.263 183.67 300.503C183.312 300.743 183.134 301.115 183.134 301.619C183.134 302.328 183.389 302.832 183.898 303.131C184.402 303.43 185.126 303.579 186.069 303.579H191V306.26H185.261C184.792 306.26 184.399 306.312 184.083 306.418C183.767 306.523 183.529 306.685 183.371 306.901C183.213 307.118 183.134 307.396 183.134 307.736C183.134 308.234 183.26 308.627 183.512 308.914C183.758 309.195 184.124 309.397 184.61 309.521C185.091 309.638 185.68 309.696 186.377 309.696H191V312.377H181.174V310.329L182.431 309.969V309.819C182.091 309.62 181.815 309.371 181.604 309.072C181.394 308.768 181.238 308.434 181.139 308.07C181.039 307.707 180.989 307.338 180.989 306.963C180.989 306.242 181.106 305.633 181.341 305.135C181.575 304.631 181.938 304.244 182.431 303.975V303.737C181.927 303.444 181.561 303.031 181.332 302.498C181.104 301.959 180.989 301.405 180.989 300.837Z" fill="black"/>
<path d="M210.958 402.552L208.409 398.137L214.179 394.806C214.708 395.279 215.213 395.796 215.693 396.358C216.168 396.922 216.636 397.603 217.095 398.4C217.734 399.506 218.058 400.571 218.067 401.594C218.076 402.617 217.77 403.575 217.149 404.468C216.528 405.361 215.595 406.167 214.352 406.885C213.185 407.558 212.046 407.918 210.936 407.964C209.823 408.004 208.784 407.728 207.819 407.135C206.851 406.537 206.007 405.614 205.286 404.365C204.946 403.777 204.674 403.159 204.47 402.512C204.266 401.866 204.131 401.25 204.064 400.666L206.404 400.361C206.428 400.8 206.508 401.272 206.643 401.776C206.778 402.279 206.983 402.77 207.259 403.247C207.654 403.932 208.156 404.437 208.763 404.763C209.368 405.084 210.035 405.22 210.765 405.171C211.486 405.119 212.23 404.873 212.996 404.43C213.722 404.011 214.309 403.54 214.758 403.017C215.202 402.497 215.461 401.931 215.534 401.321C215.603 400.713 215.439 400.066 215.044 399.381C214.85 399.046 214.673 398.774 214.51 398.563C214.34 398.35 214.179 398.152 214.026 397.97L211.704 399.31L212.922 401.418L210.958 402.552ZM211.826 389.273C212.374 390.222 212.451 391.21 212.055 392.237C211.652 393.261 210.73 394.189 209.289 395.021C207.833 395.862 206.557 396.196 205.463 396.023C204.363 395.852 203.532 395.28 202.969 394.306C202.735 393.9 202.584 393.51 202.517 393.136C202.45 392.762 202.446 392.409 202.505 392.077C202.561 391.741 202.66 391.426 202.803 391.134L202.759 391.058C202.614 391.182 202.397 391.358 202.109 391.585C201.813 391.81 201.497 392.02 201.163 392.213L198.438 393.786L197.093 391.457L208.936 384.619L209.965 386.4L209.12 387.487L209.177 387.586C209.496 387.598 209.816 387.66 210.138 387.772C210.451 387.882 210.752 388.057 211.039 388.297C211.327 388.537 211.589 388.862 211.826 389.273ZM209.507 389.527C209.14 388.893 208.695 388.554 208.17 388.512C207.637 388.468 206.986 388.658 206.216 389.083L205.964 389.228C205.137 389.705 204.579 390.197 204.289 390.702C203.994 391.211 204.046 391.81 204.444 392.5C204.74 393.013 205.192 393.286 205.801 393.321C206.409 393.355 207.129 393.132 207.962 392.652C208.794 392.171 209.337 391.665 209.591 391.132C209.842 390.595 209.814 390.06 209.507 389.527ZM197.685 384.783L206.194 379.87L207.535 382.191L199.025 387.104L197.685 384.783ZM195.019 387.865C194.819 387.52 194.729 387.176 194.748 386.833C194.762 386.494 194.987 386.198 195.423 385.946C195.855 385.697 196.226 385.649 196.537 385.801C196.843 385.956 197.095 386.206 197.294 386.551C197.497 386.901 197.588 387.247 197.569 387.589C197.543 387.93 197.314 388.224 196.882 388.473C196.446 388.725 196.079 388.775 195.781 388.622C195.475 388.467 195.221 388.215 195.019 387.865ZM190.344 372.438C189.787 371.474 189.616 370.602 189.829 369.823C190.034 369.041 190.682 368.336 191.773 367.706L197.322 364.502L198.666 366.831L193.696 369.701C193.087 370.052 192.688 370.421 192.499 370.808C192.309 371.195 192.34 371.607 192.592 372.043C192.947 372.657 193.42 372.966 194.01 372.97C194.596 372.977 195.298 372.744 196.115 372.273L200.385 369.807L201.725 372.129L196.755 374.998C196.349 375.233 196.035 375.475 195.814 375.724C195.593 375.974 195.468 376.232 195.439 376.499C195.41 376.766 195.481 377.046 195.651 377.341C195.9 377.772 196.205 378.049 196.567 378.172C196.921 378.292 197.339 378.284 197.822 378.147C198.296 378.009 198.836 377.765 199.44 377.416L203.443 375.105L204.784 377.426L196.274 382.34L195.25 380.566L196.158 379.626L196.084 379.496C195.69 379.494 195.327 379.416 194.994 379.262C194.659 379.104 194.358 378.892 194.09 378.627C193.822 378.363 193.594 378.068 193.407 377.743C193.047 377.119 192.843 376.533 192.797 375.984C192.748 375.431 192.87 374.914 193.161 374.434L193.042 374.229C192.46 374.227 191.936 374.053 191.471 373.705C191.004 373.352 190.628 372.93 190.344 372.438Z" fill="black"/>
<path d="M264.693 446.483C265.144 446.743 265.596 446.886 266.049 446.911C266.494 446.937 266.93 446.855 267.359 446.662C267.783 446.467 268.191 446.172 268.582 445.775C268.973 445.379 269.338 444.888 269.674 444.305C270.129 443.518 270.42 442.79 270.55 442.121C270.671 441.454 270.611 440.854 270.37 440.322C270.126 439.796 269.679 439.345 269.03 438.97C268.578 438.709 268.097 438.499 267.587 438.34C267.072 438.178 266.494 438.037 265.852 437.917L266.995 435.938C267.604 436.019 268.173 436.154 268.699 436.344C269.229 436.528 269.791 436.791 270.384 437.134C271.531 437.796 272.339 438.577 272.807 439.476C273.268 440.378 273.429 441.358 273.292 442.415C273.152 443.478 272.753 444.58 272.094 445.722C271.607 446.564 271.048 447.27 270.415 447.838C269.783 448.407 269.098 448.82 268.36 449.077C267.623 449.335 266.849 449.416 266.038 449.32C265.228 449.224 264.401 448.933 263.559 448.446C263.006 448.127 262.494 447.737 262.022 447.275C261.543 446.816 261.12 446.318 260.754 445.782L262.622 444.303C262.924 444.741 263.243 445.155 263.579 445.546C263.915 445.936 264.287 446.248 264.693 446.483ZM262.438 432.546C263.387 433.094 263.947 433.911 264.118 434.997C264.281 436.086 263.946 437.351 263.114 438.792C262.274 440.249 261.336 441.175 260.301 441.573C259.264 441.975 258.258 441.895 257.284 441.333C256.878 441.098 256.552 440.836 256.307 440.545C256.062 440.255 255.882 439.952 255.767 439.635C255.647 439.315 255.576 438.993 255.554 438.669L255.478 438.625C255.414 438.805 255.315 439.066 255.179 439.407C255.035 439.75 254.866 440.089 254.673 440.424L253.099 443.149L250.77 441.804L257.608 429.96L259.389 430.989L259.201 432.352L259.3 432.409C259.582 432.26 259.89 432.154 260.225 432.09C260.551 432.028 260.899 432.03 261.268 432.094C261.637 432.158 262.027 432.309 262.438 432.546ZM260.556 433.925C259.921 433.559 259.366 433.489 258.891 433.715C258.407 433.943 257.938 434.434 257.483 435.186L257.338 435.437C256.861 436.264 256.623 436.969 256.625 437.552C256.624 438.14 256.968 438.633 257.658 439.032C258.171 439.328 258.699 439.338 259.243 439.064C259.787 438.789 260.3 438.236 260.78 437.404C261.26 436.572 261.478 435.861 261.432 435.273C261.38 434.682 261.088 434.233 260.556 433.925ZM247.945 435.728L252.858 427.218L255.18 428.558L250.267 437.068L247.945 435.728ZM247.178 439.73C246.833 439.53 246.583 439.278 246.428 438.972C246.27 438.671 246.317 438.302 246.569 437.866C246.818 437.435 247.115 437.207 247.46 437.183C247.803 437.164 248.146 437.255 248.492 437.454C248.842 437.656 249.094 437.91 249.249 438.216C249.396 438.524 249.345 438.894 249.096 439.325C248.844 439.761 248.551 439.988 248.216 440.005C247.874 440.023 247.528 439.932 247.178 439.73ZM235.416 428.707C234.452 428.15 233.867 427.481 233.662 426.7C233.449 425.921 233.657 424.985 234.287 423.894L237.491 418.346L239.82 419.69L236.95 424.661C236.599 425.27 236.438 425.789 236.467 426.219C236.496 426.648 236.729 426.989 237.166 427.241C237.78 427.595 238.343 427.627 238.857 427.335C239.368 427.048 239.859 426.496 240.331 425.679L242.796 421.409L245.118 422.749L242.248 427.719C242.014 428.125 241.863 428.492 241.796 428.818C241.729 429.145 241.75 429.431 241.859 429.677C241.967 429.922 242.169 430.13 242.463 430.3C242.895 430.549 243.297 430.636 243.672 430.561C244.039 430.489 244.397 430.273 244.747 429.913C245.088 429.555 245.434 429.075 245.782 428.471L248.094 424.467L250.415 425.807L245.502 434.317L243.729 433.293L244.045 432.025L243.916 431.95C243.573 432.145 243.22 432.259 242.855 432.292C242.486 432.322 242.119 432.29 241.755 432.194C241.39 432.099 241.046 431.958 240.721 431.77C240.097 431.41 239.628 431.003 239.314 430.551C238.994 430.097 238.841 429.589 238.854 429.028L238.648 428.909C238.143 429.199 237.602 429.309 237.026 429.241C236.445 429.169 235.908 428.991 235.416 428.707Z" fill="black"/>
<path d="M398.883 418.938L401.219 421.121L405.276 418.779L404.553 415.664L407.095 414.196L409.619 427.637L406.734 429.303L396.34 420.406L398.883 418.938ZM402.925 422.775L405.226 424.897C405.376 425.04 405.572 425.221 405.813 425.44C406.053 425.667 406.296 425.896 406.544 426.125C406.789 426.362 406.997 426.57 407.168 426.749C407.098 426.512 407.02 426.212 406.933 425.85C406.843 425.495 406.76 425.158 406.683 424.837C406.606 424.516 406.551 424.287 406.519 424.15L405.825 421.1L402.925 422.775ZM392.438 431.224L391.776 429.252L389.812 430.386L388.907 428.818L391.168 427.513L389.969 424.084L391.644 423.117L392.834 426.55L394.311 425.698L393.105 422.273L394.742 421.328L395.963 424.744L397.774 423.698L398.68 425.266L396.571 426.483L397.233 428.456L399.151 427.348L400.07 428.939L397.87 430.209L399.072 433.645L397.405 434.608L396.203 431.172L394.696 432.042L395.891 435.482L394.254 436.427L393.059 432.987L391.233 434.041L390.314 432.45L392.438 431.224ZM394.92 427.437L393.428 428.298L394.089 430.271L395.581 429.409L394.92 427.437ZM382.255 428.335C383.204 427.787 384.191 427.711 385.218 428.106C386.242 428.509 387.17 429.431 388.003 430.872C388.843 432.329 389.177 433.604 389.004 434.699C388.834 435.798 388.261 436.629 387.287 437.192C386.881 437.426 386.491 437.577 386.117 437.644C385.743 437.711 385.39 437.715 385.059 437.656C384.722 437.6 384.408 437.501 384.116 437.359L384.039 437.403C384.164 437.547 384.339 437.764 384.567 438.052C384.792 438.348 385.001 438.664 385.194 438.999L386.768 441.724L384.439 443.069L377.601 431.225L379.382 430.197L380.468 431.041L380.567 430.984C380.579 430.666 380.642 430.345 380.754 430.024C380.863 429.71 381.038 429.409 381.278 429.122C381.518 428.835 381.844 428.572 382.255 428.335ZM382.508 430.655C381.874 431.021 381.536 431.467 381.494 431.991C381.45 432.524 381.64 433.176 382.064 433.946L382.209 434.197C382.686 435.024 383.178 435.583 383.684 435.872C384.192 436.167 384.792 436.116 385.482 435.717C385.994 435.421 386.268 434.969 386.302 434.361C386.337 433.752 386.113 433.032 385.633 432.2C385.153 431.368 384.646 430.824 384.114 430.57C383.576 430.319 383.041 430.347 382.508 430.655ZM377.764 442.477L372.851 433.967L375.173 432.627L380.086 441.137L377.764 442.477ZM380.846 445.143C380.501 445.342 380.157 445.432 379.815 445.413C379.475 445.4 379.18 445.175 378.928 444.738C378.679 444.307 378.63 443.936 378.782 443.625C378.937 443.319 379.187 443.066 379.532 442.867C379.882 442.665 380.228 442.573 380.571 442.592C380.911 442.619 381.206 442.848 381.455 443.279C381.707 443.716 381.756 444.083 381.603 444.381C381.449 444.687 381.196 444.941 380.846 445.143ZM365.419 449.817C364.455 450.374 363.583 450.546 362.804 450.333C362.023 450.128 361.317 449.48 360.687 448.389L357.483 442.84L359.813 441.495L362.682 446.465C363.034 447.074 363.403 447.473 363.79 447.663C364.176 447.852 364.588 447.821 365.024 447.569C365.638 447.215 365.947 446.742 365.951 446.151C365.958 445.565 365.726 444.864 365.254 444.047L362.789 439.777L365.11 438.436L367.98 443.407C368.214 443.813 368.456 444.126 368.706 444.348C368.955 444.569 369.213 444.694 369.48 444.722C369.747 444.751 370.028 444.68 370.322 444.51C370.753 444.261 371.03 443.956 371.153 443.594C371.273 443.241 371.265 442.822 371.129 442.34C370.99 441.865 370.746 441.326 370.398 440.722L368.086 436.718L370.408 435.378L375.321 443.888L373.547 444.911L372.607 444.003L372.477 444.078C372.475 444.472 372.397 444.835 372.244 445.167C372.085 445.502 371.874 445.803 371.609 446.071C371.344 446.339 371.049 446.567 370.724 446.754C370.1 447.115 369.514 447.318 368.965 447.364C368.412 447.413 367.895 447.292 367.416 447L367.21 447.119C367.209 447.702 367.034 448.225 366.686 448.69C366.334 449.157 365.911 449.533 365.419 449.817Z" fill="black"/>
<path d="M442.728 370.907C441.474 370.184 440.566 369.338 440.002 368.369C439.44 367.409 439.208 366.351 439.306 365.197C439.409 364.046 439.83 362.83 440.568 361.552L442.388 358.401L453.516 364.825L451.499 368.319C450.825 369.486 450.032 370.378 449.121 370.996C448.215 371.616 447.22 371.928 446.135 371.931C445.056 371.937 443.92 371.596 442.728 370.907ZM444.082 368.421C444.904 368.896 445.649 369.164 446.317 369.225C446.988 369.294 447.586 369.166 448.112 368.84C448.636 368.52 449.096 368.015 449.495 367.325L450.22 366.069L442.974 361.885L442.389 362.897C441.724 364.049 441.538 365.082 441.829 365.994C442.118 366.912 442.869 367.721 444.082 368.421ZM438.568 379.852L437.009 378.475L435.875 380.439L434.307 379.533L435.612 377.273L432.86 374.902L433.827 373.228L436.575 375.606L437.427 374.129L434.671 371.766L435.616 370.13L438.381 372.477L439.427 370.666L440.995 371.571L439.777 373.679L441.337 375.057L442.444 373.139L444.035 374.057L442.765 376.257L445.524 378.632L444.562 380.298L441.802 377.924L440.932 379.431L443.687 381.813L442.743 383.45L439.987 381.067L438.933 382.894L437.342 381.976L438.568 379.852ZM438.824 375.331L437.962 376.823L439.522 378.2L440.383 376.708L438.824 375.331ZM428.305 382.441C428.853 381.492 429.67 380.932 430.756 380.761C431.845 380.598 433.11 380.933 434.551 381.765C436.007 382.606 436.934 383.543 437.331 384.578C437.734 385.615 437.654 386.621 437.091 387.595C436.857 388.001 436.595 388.327 436.304 388.572C436.014 388.817 435.71 388.997 435.394 389.112C435.074 389.232 434.752 389.303 434.428 389.326L434.384 389.402C434.564 389.465 434.824 389.565 435.165 389.701C435.509 389.845 435.848 390.013 436.182 390.207L438.907 391.78L437.563 394.109L425.719 387.271L426.747 385.49L428.11 385.678L428.168 385.579C428.019 385.297 427.913 384.989 427.849 384.654C427.787 384.328 427.788 383.98 427.852 383.611C427.917 383.242 428.067 382.852 428.305 382.441ZM429.684 384.324C429.318 384.958 429.248 385.513 429.474 385.988C429.702 386.472 430.192 386.941 430.945 387.396L431.196 387.541C432.023 388.018 432.728 388.256 433.311 388.254C433.899 388.256 434.392 387.911 434.791 387.221C435.086 386.709 435.097 386.18 434.823 385.636C434.548 385.092 433.995 384.58 433.163 384.099C432.33 383.619 431.62 383.402 431.032 383.448C430.441 383.499 429.992 383.791 429.684 384.324ZM431.487 396.934L422.977 392.021L424.317 389.699L432.827 394.612L431.487 396.934ZM435.488 397.702C435.289 398.047 435.037 398.297 434.731 398.452C434.43 398.609 434.061 398.562 433.625 398.31C433.194 398.061 432.966 397.764 432.942 397.419C432.923 397.076 433.013 396.733 433.213 396.388C433.415 396.038 433.669 395.785 433.975 395.63C434.283 395.483 434.653 395.534 435.084 395.783C435.52 396.035 435.747 396.329 435.763 396.663C435.782 397.005 435.691 397.352 435.488 397.702ZM424.466 409.463C423.909 410.428 423.24 411.012 422.459 411.217C421.679 411.43 420.744 411.222 419.653 410.592L414.104 407.388L415.449 405.059L420.419 407.929C421.028 408.281 421.548 408.442 421.977 408.412C422.407 408.383 422.748 408.15 423 407.714C423.354 407.1 423.385 406.536 423.093 406.022C422.806 405.511 422.254 405.02 421.437 404.549L417.167 402.083L418.508 399.762L423.478 402.631C423.884 402.866 424.25 403.016 424.577 403.083C424.904 403.15 425.19 403.129 425.435 403.021C425.681 402.912 425.888 402.71 426.058 402.416C426.307 401.985 426.395 401.582 426.32 401.207C426.247 400.841 426.031 400.482 425.672 400.133C425.314 399.791 424.833 399.446 424.23 399.097L420.226 396.786L421.566 394.464L430.076 399.377L429.052 401.151L427.783 400.834L427.709 400.964C427.903 401.306 428.017 401.659 428.051 402.024C428.081 402.393 428.048 402.76 427.953 403.124C427.858 403.489 427.716 403.833 427.529 404.158C427.168 404.782 426.762 405.251 426.31 405.566C425.855 405.885 425.347 406.038 424.786 406.025L424.668 406.231C424.958 406.737 425.068 407.277 425 407.853C424.928 408.435 424.75 408.971 424.466 409.463Z" fill="black"/>
<path d="M451.216 297.495V302.593H444.554C444.331 301.919 444.152 301.219 444.018 300.492C443.889 299.766 443.824 298.942 443.824 298.022C443.824 296.745 444.076 295.661 444.58 294.771C445.084 293.88 445.828 293.203 446.812 292.74C447.797 292.277 449.007 292.046 450.442 292.046C451.79 292.046 452.956 292.304 453.94 292.819C454.925 293.341 455.687 294.1 456.226 295.096C456.765 296.098 457.034 297.319 457.034 298.761C457.034 299.44 456.961 300.111 456.814 300.773C456.668 301.436 456.478 302.036 456.243 302.575L454.063 301.67C454.263 301.277 454.43 300.829 454.564 300.325C454.699 299.821 454.767 299.294 454.767 298.743C454.767 297.952 454.585 297.264 454.222 296.678C453.858 296.098 453.349 295.646 452.692 295.324C452.042 295.008 451.274 294.85 450.39 294.85C449.552 294.85 448.808 294.964 448.157 295.192C447.513 295.421 447.006 295.781 446.637 296.273C446.273 296.766 446.092 297.407 446.092 298.198C446.092 298.585 446.109 298.91 446.145 299.174C446.186 299.443 446.227 299.695 446.268 299.93H448.948V297.495H451.216ZM451.418 312.823L449.379 312.41V314.678H447.568V312.067L444 311.391V309.457L447.568 310.143V308.438L444 307.77V305.88L447.568 306.53V304.438H449.379V306.873L451.418 307.286V305.071H453.255V307.611L456.832 308.288V310.213L453.255 309.536V311.276L456.832 311.962V313.852L453.255 313.166V315.275H451.418V312.823ZM449.379 308.78V310.503L451.418 310.916V309.193L449.379 308.78ZM443.824 320.197C443.824 319.102 444.252 318.208 445.107 317.517C445.969 316.831 447.231 316.488 448.896 316.488C450.577 316.488 451.849 316.837 452.71 317.534C453.577 318.231 454.011 319.143 454.011 320.268C454.011 320.736 453.946 321.149 453.817 321.507C453.688 321.864 453.516 322.172 453.299 322.43C453.082 322.693 452.839 322.916 452.569 323.098V323.186C452.757 323.15 453.032 323.106 453.396 323.054C453.765 323.007 454.143 322.983 454.529 322.983H457.676V325.673H444V323.616L445.274 323.098V322.983C445.005 322.813 444.759 322.6 444.536 322.342C444.319 322.09 444.146 321.788 444.018 321.437C443.889 321.085 443.824 320.672 443.824 320.197ZM445.96 321.138C445.96 321.87 446.177 322.386 446.61 322.685C447.05 322.989 447.709 323.15 448.588 323.168H448.878C449.833 323.168 450.562 323.021 451.066 322.729C451.576 322.436 451.831 321.891 451.831 321.094C451.831 320.502 451.576 320.039 451.066 319.705C450.557 319.371 449.821 319.204 448.86 319.204C447.899 319.204 447.176 319.371 446.689 319.705C446.203 320.045 445.96 320.522 445.96 321.138ZM453.826 331.157H444V328.477H453.826V331.157ZM457.676 329.821C457.676 330.22 457.582 330.562 457.395 330.85C457.213 331.137 456.87 331.28 456.366 331.28C455.868 331.28 455.522 331.137 455.329 330.85C455.142 330.562 455.048 330.22 455.048 329.821C455.048 329.417 455.142 329.071 455.329 328.784C455.522 328.503 455.868 328.362 456.366 328.362C456.87 328.362 457.213 328.503 457.395 328.784C457.582 329.071 457.676 329.417 457.676 329.821ZM454.011 345.519C454.011 346.632 453.724 347.473 453.149 348.041C452.581 348.615 451.667 348.902 450.407 348.902H444V346.213H449.739C450.442 346.213 450.973 346.093 451.33 345.853C451.688 345.612 451.866 345.24 451.866 344.736C451.866 344.027 451.611 343.523 451.102 343.225C450.598 342.926 449.874 342.776 448.931 342.776H444V340.096H449.739C450.208 340.096 450.601 340.043 450.917 339.938C451.233 339.832 451.471 339.671 451.629 339.454C451.787 339.237 451.866 338.959 451.866 338.619C451.866 338.121 451.74 337.729 451.488 337.441C451.242 337.16 450.876 336.958 450.39 336.835C449.909 336.718 449.32 336.659 448.623 336.659H444V333.979H453.826V336.026L452.569 336.387V336.536C452.909 336.735 453.185 336.984 453.396 337.283C453.606 337.588 453.762 337.922 453.861 338.285C453.961 338.648 454.011 339.018 454.011 339.393C454.011 340.113 453.894 340.723 453.659 341.221C453.425 341.725 453.062 342.111 452.569 342.381V342.618C453.073 342.911 453.439 343.324 453.668 343.857C453.896 344.396 454.011 344.95 454.011 345.519Z" fill="black"/>
<path d="M427.058 233.244C426.797 232.792 426.477 232.443 426.097 232.195C425.725 231.95 425.306 231.803 424.838 231.755C424.374 231.712 423.873 231.764 423.336 231.912C422.798 232.06 422.238 232.302 421.655 232.639C420.868 233.093 420.251 233.578 419.804 234.093C419.366 234.61 419.118 235.159 419.061 235.74C419.009 236.318 419.17 236.932 419.545 237.581C419.806 238.033 420.118 238.455 420.48 238.848C420.845 239.246 421.275 239.658 421.771 240.082L419.792 241.225C419.304 240.85 418.88 240.449 418.518 240.021C418.152 239.597 417.797 239.088 417.454 238.494C416.792 237.348 416.483 236.268 416.527 235.254C416.579 234.243 416.929 233.314 417.577 232.466C418.229 231.616 419.126 230.861 420.268 230.202C421.11 229.716 421.947 229.385 422.78 229.209C423.612 229.033 424.411 229.018 425.179 229.163C425.946 229.309 426.657 229.626 427.311 230.114C427.965 230.602 428.535 231.268 429.022 232.11C429.341 232.663 429.589 233.257 429.767 233.893C429.952 234.53 430.069 235.173 430.119 235.821L427.761 236.167C427.719 235.637 427.649 235.118 427.553 234.612C427.457 234.106 427.292 233.65 427.058 233.244ZM430.75 246.336L428.777 246.997L429.911 248.961L428.343 249.866L427.038 247.606L423.609 248.804L422.642 247.129L426.076 245.939L425.223 244.462L421.799 245.668L420.854 244.032L424.269 242.811L423.223 240.999L424.791 240.094L426.009 242.202L427.981 241.54L426.874 239.622L428.465 238.704L429.735 240.904L433.171 239.701L434.133 241.368L430.697 242.57L431.567 244.078L435.008 242.883L435.953 244.519L432.512 245.714L433.567 247.541L431.976 248.459L430.75 246.336ZM426.962 243.854L427.824 245.346L429.796 244.684L428.935 243.192L426.962 243.854ZM427.86 256.519C427.312 255.57 427.236 254.582 427.631 253.555C428.034 252.531 428.957 251.603 430.398 250.771C431.854 249.93 433.129 249.596 434.224 249.769C435.324 249.94 436.155 250.512 436.717 251.486C436.952 251.892 437.102 252.282 437.169 252.656C437.237 253.03 437.241 253.383 437.182 253.715C437.126 254.051 437.027 254.366 436.884 254.658L436.928 254.734C437.073 254.61 437.289 254.434 437.578 254.207C437.874 253.982 438.189 253.772 438.524 253.579L441.249 252.006L442.594 254.335L430.75 261.173L429.722 259.392L430.566 258.305L430.509 258.206C430.191 258.194 429.871 258.132 429.549 258.02C429.235 257.91 428.935 257.735 428.647 257.495C428.36 257.255 428.098 256.93 427.86 256.519ZM430.18 256.265C430.546 256.899 430.992 257.238 431.517 257.28C432.05 257.324 432.701 257.134 433.471 256.709L433.722 256.564C434.549 256.087 435.108 255.595 435.398 255.09C435.693 254.581 435.641 253.982 435.243 253.292C434.947 252.779 434.495 252.506 433.886 252.471C433.278 252.437 432.557 252.66 431.725 253.14C430.893 253.621 430.35 254.127 430.096 254.66C429.844 255.197 429.873 255.732 430.18 256.265ZM442.002 261.009L433.493 265.922L432.152 263.601L440.662 258.688L442.002 261.009ZM444.668 257.927C444.867 258.273 444.958 258.616 444.939 258.959C444.925 259.298 444.7 259.594 444.264 259.846C443.832 260.095 443.461 260.143 443.15 259.991C442.844 259.836 442.592 259.586 442.392 259.241C442.19 258.891 442.098 258.545 442.117 258.203C442.144 257.862 442.373 257.568 442.805 257.319C443.241 257.067 443.608 257.017 443.906 257.17C444.212 257.325 444.466 257.577 444.668 257.927ZM449.343 273.354C449.899 274.318 450.071 275.19 449.858 275.969C449.653 276.751 449.005 277.457 447.914 278.086L442.365 281.29L441.02 278.961L445.991 276.091C446.6 275.74 446.999 275.371 447.188 274.984C447.378 274.597 447.346 274.185 447.094 273.749C446.74 273.135 446.267 272.826 445.676 272.822C445.091 272.815 444.389 273.048 443.572 273.519L439.302 275.985L437.962 273.663L442.932 270.794C443.338 270.559 443.652 270.317 443.873 270.068C444.094 269.818 444.219 269.56 444.248 269.293C444.276 269.026 444.206 268.746 444.036 268.451C443.787 268.02 443.481 267.743 443.12 267.62C442.766 267.5 442.348 267.508 441.865 267.645C441.39 267.783 440.851 268.027 440.247 268.376L436.244 270.687L434.903 268.366L443.413 263.453L444.437 265.226L443.529 266.167L443.603 266.296C443.997 266.299 444.36 266.376 444.692 266.53C445.027 266.688 445.329 266.9 445.597 267.165C445.865 267.429 446.092 267.724 446.28 268.049C446.64 268.673 446.843 269.259 446.889 269.808C446.938 270.362 446.817 270.878 446.526 271.358L446.644 271.563C447.227 271.565 447.751 271.74 448.215 272.087C448.683 272.44 449.059 272.862 449.343 273.354Z" fill="black"/>
<path d="M362.722 198.603L360.401 197.263L366.825 186.135L373.204 189.818L372.088 191.751L368.031 189.409L366.374 192.278L370.149 194.458L369.037 196.384L365.262 194.204L362.722 198.603ZM378.868 199.36L377.491 200.919L379.455 202.053L378.55 203.621L376.289 202.316L373.919 205.068L372.244 204.101L374.622 201.353L373.145 200.501L370.783 203.257L369.146 202.312L371.494 199.547L369.682 198.501L370.587 196.933L372.696 198.151L374.073 196.591L372.155 195.484L373.073 193.893L375.273 195.163L377.648 192.404L379.315 193.366L376.94 196.126L378.447 196.996L380.829 194.241L382.466 195.185L380.084 197.94L381.91 198.995L380.992 200.586L378.868 199.36ZM374.347 199.104L375.839 199.966L377.217 198.406L375.725 197.545L374.347 199.104ZM381.458 209.623C380.509 209.075 379.949 208.258 379.778 207.172C379.615 206.083 379.949 204.818 380.781 203.377C381.622 201.921 382.56 200.994 383.594 200.596C384.632 200.194 385.637 200.274 386.612 200.837C387.018 201.071 387.343 201.333 387.588 201.624C387.833 201.914 388.013 202.218 388.128 202.534C388.248 202.854 388.319 203.176 388.342 203.5L388.418 203.544C388.481 203.364 388.581 203.104 388.717 202.763C388.861 202.419 389.03 202.08 389.223 201.746L390.796 199.021L393.125 200.365L386.287 212.209L384.506 211.181L384.694 209.818L384.595 209.76C384.314 209.909 384.005 210.015 383.671 210.079C383.344 210.141 382.996 210.14 382.627 210.075C382.259 210.011 381.869 209.861 381.458 209.623ZM383.34 208.244C383.974 208.61 384.529 208.68 385.005 208.454C385.488 208.226 385.957 207.736 386.412 206.983L386.557 206.732C387.035 205.905 387.273 205.2 387.271 204.617C387.272 204.029 386.927 203.536 386.237 203.137C385.725 202.842 385.196 202.831 384.652 203.105C384.108 203.38 383.596 203.933 383.115 204.765C382.635 205.598 382.418 206.308 382.464 206.896C382.515 207.487 382.807 207.936 383.34 208.244ZM395.95 206.441L391.037 214.951L388.715 213.611L393.629 205.101L395.95 206.441ZM396.718 202.44C397.063 202.639 397.313 202.891 397.468 203.197C397.626 203.498 397.579 203.867 397.327 204.303C397.078 204.734 396.78 204.962 396.435 204.986C396.093 205.005 395.749 204.915 395.404 204.715C395.054 204.513 394.801 204.259 394.646 203.953C394.5 203.645 394.551 203.275 394.8 202.844C395.052 202.408 395.345 202.181 395.679 202.165C396.022 202.146 396.368 202.237 396.718 202.44ZM408.48 213.462C409.444 214.019 410.028 214.688 410.234 215.469C410.447 216.249 410.238 217.184 409.608 218.275L406.405 223.824L404.076 222.479L406.945 217.509C407.297 216.9 407.458 216.38 407.429 215.951C407.399 215.521 407.166 215.18 406.73 214.928C406.116 214.574 405.552 214.543 405.038 214.835C404.528 215.122 404.037 215.674 403.565 216.491L401.099 220.761L398.778 219.42L401.648 214.45C401.882 214.044 402.033 213.678 402.099 213.351C402.166 213.024 402.145 212.738 402.037 212.493C401.928 212.247 401.727 212.04 401.432 211.87C401.001 211.621 400.598 211.533 400.223 211.608C399.857 211.681 399.499 211.897 399.149 212.256C398.807 212.614 398.462 213.095 398.113 213.698L395.802 217.702L393.48 216.362L398.393 207.852L400.167 208.876L399.851 210.145L399.98 210.219C400.322 210.025 400.676 209.911 401.04 209.877C401.409 209.847 401.776 209.879 402.141 209.975C402.505 210.07 402.85 210.212 403.174 210.399C403.799 210.76 404.268 211.166 404.582 211.618C404.901 212.073 405.054 212.581 405.042 213.142L405.247 213.26C405.753 212.97 406.294 212.86 406.87 212.928C407.451 213 407.987 213.178 408.48 213.462Z" fill="black"/>
<path d="M338.982 445H346.383V457.85H338.982V455.617H343.658V452.796H339.308V450.563H343.658V447.25H338.982V445ZM329.13 452.418L329.543 450.379H327.275V448.568H329.886L330.562 445H332.496L331.811 448.568H333.516L334.184 445H336.073L335.423 448.568H337.515V450.379H335.08L334.667 452.418H336.882V454.255H334.342L333.665 457.832H331.74L332.417 454.255H330.677L329.991 457.832H328.102L328.787 454.255H326.678V452.418H329.13ZM333.173 450.379H331.45L331.037 452.418H332.76L333.173 450.379ZM321.756 444.824C322.852 444.824 323.745 445.252 324.437 446.107C325.122 446.969 325.465 448.231 325.465 449.896C325.465 451.577 325.116 452.849 324.419 453.71C323.722 454.577 322.811 455.011 321.686 455.011C321.217 455.011 320.804 454.946 320.446 454.817C320.089 454.688 319.781 454.516 319.523 454.299C319.26 454.082 319.037 453.839 318.855 453.569H318.768C318.803 453.757 318.847 454.032 318.899 454.396C318.946 454.765 318.97 455.143 318.97 455.529V458.676H316.28V445H318.337L318.855 446.274H318.97C319.14 446.005 319.354 445.759 319.611 445.536C319.863 445.319 320.165 445.146 320.517 445.018C320.868 444.889 321.281 444.824 321.756 444.824ZM320.815 446.96C320.083 446.96 319.567 447.177 319.269 447.61C318.964 448.05 318.803 448.709 318.785 449.588V449.878C318.785 450.833 318.932 451.562 319.225 452.066C319.518 452.576 320.062 452.831 320.859 452.831C321.451 452.831 321.914 452.576 322.248 452.066C322.582 451.557 322.749 450.821 322.749 449.86C322.749 448.899 322.582 448.176 322.248 447.689C321.908 447.203 321.431 446.96 320.815 446.96ZM310.796 454.826V445H313.477V454.826H310.796ZM312.132 458.676C311.733 458.676 311.391 458.582 311.104 458.395C310.816 458.213 310.673 457.87 310.673 457.366C310.673 456.868 310.816 456.522 311.104 456.329C311.391 456.142 311.733 456.048 312.132 456.048C312.536 456.048 312.882 456.142 313.169 456.329C313.45 456.522 313.591 456.868 313.591 457.366C313.591 457.87 313.45 458.213 313.169 458.395C312.882 458.582 312.536 458.676 312.132 458.676ZM296.435 455.011C295.321 455.011 294.48 454.724 293.912 454.149C293.338 453.581 293.051 452.667 293.051 451.407V445H295.74V450.739C295.74 451.442 295.86 451.973 296.101 452.33C296.341 452.688 296.713 452.866 297.217 452.866C297.926 452.866 298.43 452.611 298.729 452.102C299.027 451.598 299.177 450.874 299.177 449.931V445H301.857V450.739C301.857 451.208 301.91 451.601 302.016 451.917C302.121 452.233 302.282 452.471 302.499 452.629C302.716 452.787 302.994 452.866 303.334 452.866C303.832 452.866 304.225 452.74 304.512 452.488C304.793 452.242 304.995 451.876 305.118 451.39C305.235 450.909 305.294 450.32 305.294 449.623V445H307.975V454.826H305.927L305.566 453.569H305.417C305.218 453.909 304.969 454.185 304.67 454.396C304.365 454.606 304.031 454.762 303.668 454.861C303.305 454.961 302.936 455.011 302.561 455.011C301.84 455.011 301.23 454.894 300.732 454.659C300.229 454.425 299.842 454.062 299.572 453.569H299.335C299.042 454.073 298.629 454.439 298.096 454.668C297.557 454.896 297.003 455.011 296.435 455.011Z" fill="black"/>
</svg>
