<svg width="460" height="227" viewBox="0 0 460 227" fill="none" xmlns="http://www.w3.org/2000/svg">
<path d="M168 87.4999L147.5 11.5C211.116 -2.68273 248.342 -2.44959 312 11.5L291.5 87.5C246.212 76.354 216.453 75.4836 168 87.4999Z" fill="#FF0000" fill-opacity="0.6"/>
<path d="M61.0284 148.954L5.27489 93.3864C53.2765 49.2959 85.6318 30.8847 147.736 11.1364L167.983 87.2043C123.189 100.196 96.982 114.321 61.0284 148.954Z" fill="#14FF00" fill-opacity="0.6"/>
<path d="M291.754 88.2043L312 12.1364C374.184 31.6617 406.306 50.4767 454.461 94.3864L398.708 149.954C365.06 117.658 339.724 102.024 291.754 88.2043Z" fill="#75009E" fill-opacity="0.6"/>
<path d="M117.5 206L62.5 150C99.3737 115.736 122.77 103.218 168 89.5L188.5 165.5C159.369 173.775 143.73 182.159 117.5 206Z" fill="#FD8C24" fill-opacity="0.6"/>
<path d="M188.631 165.392L169 89.3945C218.066 78.1578 244.587 79.0151 290.616 89.75L270.369 165.818C241.003 158.419 223.268 157.86 188.631 165.392Z" fill="#FF1AB1" fill-opacity="0.6"/>
<path d="M271.5 164.881L292.497 89.25C340.608 104.052 363.147 118.055 397.642 150.366L342.074 206.119C320.342 185.028 305.262 175.676 271.5 164.881Z" fill="#FDF424" fill-opacity="0.6"/>
<path d="M189 167L201 211.5C224.004 206.879 236.57 206.965 258.5 211.5L270.5 167C238.315 159.033 220.47 159.037 189 167Z" fill="#0008BC" fill-opacity="0.6"/>
</svg>
