<svg width="128" height="128" viewBox="0 0 128 128" fill="none" xmlns="http://www.w3.org/2000/svg">
<path d="M63.6684 70.9146L0.5 126.889V15.8855C0.5 11.8295 2.35408 7.92275 5.68367 5.03021C9.01549 2.13574 13.5477 0.5 18.2857 0.5H109.714C114.452 0.5 118.985 2.13574 122.316 5.03021C125.646 7.92275 127.5 11.8295 127.5 15.8855V126.889L64.3316 70.9146L64 70.6207L63.6684 70.9146ZM109.383 89.476L110.214 90.2127V89.1017V15.8855V15.3855H109.714H18.2857H17.7857V15.8855V89.1017V90.2127L18.6173 89.476L64 49.267L109.383 89.476Z" fill="white" stroke="white"/>
<rect x="15" y="8" width="105" height="62" fill="white"/>
<rect x="86" y="62" width="32" height="27" fill="white"/>
<rect x="86" y="62" width="32" height="27" fill="white"/>
<rect x="86" y="62" width="32" height="27" fill="white"/>
<rect x="15" y="64" width="25" height="27" fill="white"/>
</svg>
