<svg width="968" height="128" viewBox="0 0 968 128" fill="none" xmlns="http://www.w3.org/2000/svg">
<path d="M2.5 50C2.5 23.7665 23.7665 2.5 50 2.5H918C944.233 2.5 965.5 23.7665 965.5 50V78C965.5 104.234 944.234 125.5 918 125.5H50C23.7665 125.5 2.5 104.234 2.5 78V50Z" fill="#583733" stroke="black" stroke-width="5"/>
<path d="M2.5 50C2.5 23.7665 23.7665 2.5 50 2.5H400C426.234 2.5 447.5 23.7665 447.5 50V78C447.5 104.234 426.234 125.5 400 125.5H50C23.7665 125.5 2.5 104.234 2.5 78V50Z" fill="white" stroke="black" stroke-width="5"/>
<path d="M115.914 90H106.832V54.7266H95.2012V47.168H127.545V54.7266H115.914V90ZM146.939 56.6309C149.967 56.6309 152.574 57.2168 154.762 58.3887C156.949 59.541 158.639 61.2207 159.83 63.4277C161.021 65.6348 161.617 68.3301 161.617 71.5137V75.8496H140.494C140.592 78.3691 141.344 80.3516 142.75 81.7969C144.176 83.2227 146.148 83.9355 148.668 83.9355C150.758 83.9355 152.672 83.7207 154.41 83.291C156.148 82.8613 157.936 82.2168 159.771 81.3574V88.2715C158.15 89.0723 156.451 89.6582 154.674 90.0293C152.916 90.4004 150.777 90.5859 148.258 90.5859C144.977 90.5859 142.066 89.9805 139.527 88.7695C137.008 87.5586 135.025 85.7129 133.58 83.2324C132.154 80.752 131.441 77.627 131.441 73.8574C131.441 70.0293 132.086 66.8457 133.375 64.3066C134.684 61.748 136.5 59.834 138.824 58.5645C141.148 57.2754 143.854 56.6309 146.939 56.6309ZM146.998 62.9883C145.26 62.9883 143.814 63.5449 142.662 64.6582C141.529 65.7715 140.875 67.5195 140.699 69.9023H153.238C153.219 68.5742 152.975 67.3926 152.506 66.3574C152.057 65.3223 151.373 64.502 150.455 63.8965C149.557 63.291 148.404 62.9883 146.998 62.9883ZM210.162 57.2461V90H201.812V73.916C201.812 72.334 201.842 70.7812 201.9 69.2578C201.959 67.7344 202.047 66.3281 202.164 65.0391H201.988L192.936 90H186.227L177.027 64.9805H176.793C176.949 66.2891 177.057 67.6953 177.115 69.1992C177.174 70.7031 177.203 72.3535 177.203 74.1504V90H168.883V57.2461H181.539L189.684 79.4531L197.975 57.2461H210.162ZM228.502 57.2461V69.8438H240.982V57.2461H249.918V90H240.982V76.4941H228.502V90H219.566V57.2461H228.502ZM259.293 90V57.2461H268.229V69.9023H272.535C275.875 69.9023 278.629 70.2539 280.797 70.957C282.984 71.6602 284.605 72.7344 285.66 74.1797C286.715 75.6055 287.242 77.4023 287.242 79.5703C287.242 81.6797 286.754 83.5156 285.777 85.0781C284.801 86.6406 283.258 87.8516 281.148 88.7109C279.039 89.5703 276.275 90 272.857 90H259.293ZM268.229 83.8184H272.359C274.098 83.8184 275.523 83.5059 276.637 82.8809C277.75 82.2363 278.307 81.1719 278.307 79.6875C278.307 78.418 277.799 77.5 276.783 76.9336C275.768 76.3672 274.254 76.084 272.242 76.084H268.229V83.8184ZM291.988 90V57.2461H300.924V90H291.988ZM318.971 57.2461V70.1953C318.971 70.8594 318.941 71.6992 318.883 72.7148C318.844 73.7109 318.785 74.7266 318.707 75.7617C318.629 76.7969 318.551 77.7246 318.473 78.5449C318.395 79.3652 318.336 79.9219 318.297 80.2148L333.414 57.2461H344.166V90H335.523V76.9336C335.523 75.8594 335.562 74.6777 335.641 73.3887C335.719 72.0801 335.807 70.8496 335.904 69.6973C336.002 68.5449 336.07 67.6758 336.109 67.0898L321.051 90H310.328V57.2461H318.971ZM341.705 43.1543C341.49 45.2246 340.904 47.0508 339.947 48.6328C338.99 50.2148 337.496 51.4453 335.465 52.3242C333.434 53.2031 330.699 53.6426 327.262 53.6426C323.727 53.6426 320.973 53.2227 319 52.3828C317.027 51.5234 315.621 50.3125 314.781 48.75C313.941 47.168 313.434 45.3027 313.258 43.1543H321.256C321.432 45.3613 321.988 46.8262 322.926 47.5488C323.863 48.252 325.367 48.6035 327.438 48.6035C329.156 48.6035 330.562 48.2129 331.656 47.4316C332.75 46.6504 333.404 45.2246 333.619 43.1543H341.705Z" fill="black"/>
</svg>
