<svg width="968" height="128" viewBox="0 0 968 128" fill="none" xmlns="http://www.w3.org/2000/svg">
<path d="M50 2.5H918C944.234 2.5 965.5 23.7665 965.5 50V78C965.5 104.234 944.234 125.5 918 125.5H50C23.7665 125.5 2.5 104.234 2.5 78V50C2.5 23.7665 23.7665 2.5 50 2.5Z" fill="#F2BE68" stroke="black" stroke-width="5"/>
<path d="M568 2.5H918C944.234 2.5 965.5 23.7665 965.5 50V78C965.5 104.234 944.234 125.5 918 125.5H568C541.766 125.5 520.5 104.234 520.5 78V50C520.5 23.7665 541.766 2.5 568 2.5Z" fill="white" stroke="black" stroke-width="5"/>
<path d="M670.391 90V47.168H679.473V82.5H696.846V90H670.391ZM712.549 57.2461V90H703.613V57.2461H712.549ZM708.096 44.4141C709.424 44.4141 710.566 44.7266 711.523 45.3516C712.48 45.957 712.959 47.0996 712.959 48.7793C712.959 50.4395 712.48 51.5918 711.523 52.2363C710.566 52.8613 709.424 53.1738 708.096 53.1738C706.748 53.1738 705.596 52.8613 704.639 52.2363C703.701 51.5918 703.232 50.4395 703.232 48.7793C703.232 47.0996 703.701 45.957 704.639 45.3516C705.596 44.7266 706.748 44.4141 708.096 44.4141ZM731.533 104.414C726.963 104.414 723.467 103.613 721.045 102.012C718.643 100.43 717.441 98.2031 717.441 95.332C717.441 93.3594 718.057 91.709 719.287 90.3809C720.518 89.0527 722.324 88.1055 724.707 87.5391C723.789 87.1484 722.988 86.5137 722.305 85.6348C721.621 84.7363 721.279 83.7891 721.279 82.793C721.279 81.543 721.641 80.5078 722.363 79.6875C723.086 78.8477 724.131 78.0273 725.498 77.2266C723.779 76.4844 722.412 75.293 721.396 73.6523C720.4 72.0117 719.902 70.0781 719.902 67.8516C719.902 65.4688 720.42 63.4473 721.455 61.7871C722.51 60.1074 724.033 58.8281 726.025 57.9492C728.037 57.0703 730.479 56.6309 733.35 56.6309C733.955 56.6309 734.658 56.6699 735.459 56.748C736.26 56.8262 736.992 56.9141 737.656 57.0117C738.34 57.1094 738.799 57.1875 739.033 57.2461H750.459V61.7871L745.332 63.1055C745.801 63.8281 746.152 64.5996 746.387 65.4199C746.621 66.2402 746.738 67.1094 746.738 68.0273C746.738 71.543 745.508 74.2871 743.047 76.2598C740.605 78.2129 737.207 79.1895 732.852 79.1895C731.816 79.1309 730.84 79.0527 729.922 78.9551C729.473 79.3066 729.131 79.6777 728.896 80.0684C728.662 80.459 728.545 80.8691 728.545 81.2988C728.545 81.7285 728.721 82.0898 729.072 82.3828C729.443 82.6562 729.99 82.8711 730.713 83.0273C731.455 83.1641 732.373 83.2324 733.467 83.2324H739.033C742.627 83.2324 745.361 84.0039 747.236 85.5469C749.131 87.0898 750.078 89.3555 750.078 92.3438C750.078 96.1719 748.477 99.1406 745.273 101.25C742.09 103.359 737.51 104.414 731.533 104.414ZM731.914 98.584C734.043 98.584 735.869 98.3789 737.393 97.9688C738.936 97.5781 740.117 97.0117 740.938 96.2695C741.758 95.5469 742.168 94.6777 742.168 93.6621C742.168 92.8418 741.924 92.1875 741.436 91.6992C740.967 91.2305 740.244 90.8984 739.268 90.7031C738.311 90.5078 737.08 90.4102 735.576 90.4102H730.947C729.854 90.4102 728.867 90.5859 727.988 90.9375C727.129 91.2891 726.445 91.7773 725.938 92.4023C725.43 93.0469 725.176 93.7891 725.176 94.6289C725.176 95.8594 725.762 96.8262 726.934 97.5293C728.125 98.2324 729.785 98.584 731.914 98.584ZM733.35 73.7402C735.029 73.7402 736.26 73.2227 737.041 72.1875C737.822 71.1523 738.213 69.7461 738.213 67.9688C738.213 65.9961 737.803 64.5215 736.982 63.5449C736.182 62.5488 734.971 62.0508 733.35 62.0508C731.709 62.0508 730.479 62.5488 729.658 63.5449C728.838 64.5215 728.428 65.9961 728.428 67.9688C728.428 69.7461 728.828 71.1523 729.629 72.1875C730.449 73.2227 731.689 73.7402 733.35 73.7402ZM764.814 44.4141V53.7012C764.814 55.3223 764.756 56.8652 764.639 58.3301C764.541 59.7949 764.463 60.8301 764.404 61.4355H764.873C765.576 60.3027 766.406 59.3848 767.363 58.6816C768.34 57.9785 769.414 57.4609 770.586 57.1289C771.758 56.7969 773.018 56.6309 774.365 56.6309C776.729 56.6309 778.789 57.0508 780.547 57.8906C782.305 58.7109 783.672 60.0098 784.648 61.7871C785.625 63.5449 786.113 65.8301 786.113 68.6426V90H777.178V70.8691C777.178 68.5254 776.748 66.7578 775.889 65.5664C775.029 64.375 773.701 63.7793 771.904 63.7793C770.107 63.7793 768.691 64.1992 767.656 65.0391C766.621 65.8594 765.889 67.0801 765.459 68.7012C765.029 70.3027 764.814 72.2656 764.814 74.5898V90H755.879V44.4141H764.814ZM809.111 83.4668C810.088 83.4668 811.035 83.3691 811.953 83.1738C812.891 82.9785 813.818 82.7344 814.736 82.4414V89.0918C813.779 89.5215 812.588 89.873 811.162 90.1465C809.756 90.4395 808.213 90.5859 806.533 90.5859C804.58 90.5859 802.822 90.2734 801.26 89.6484C799.717 89.0039 798.496 87.9004 797.598 86.3379C796.719 84.7559 796.279 82.5586 796.279 79.7461V63.9551H792.002V60.1758L796.924 57.1875L799.502 50.2734H805.215V57.2461H814.385V63.9551H805.215V79.7461C805.215 80.9961 805.566 81.9336 806.27 82.5586C806.992 83.1641 807.939 83.4668 809.111 83.4668Z" fill="black"/>
</svg>
