<svg width="968" height="128" viewBox="0 0 968 128" fill="none" xmlns="http://www.w3.org/2000/svg">
<path d="M2.5 50C2.5 23.7665 23.7665 2.5 50 2.5H918C944.233 2.5 965.5 23.7665 965.5 50V78C965.5 104.234 944.234 125.5 918 125.5H50C23.7665 125.5 2.5 104.234 2.5 78V50Z" fill="#F2BE68" stroke="black" stroke-width="5"/>
<path d="M520.5 50C520.5 23.7665 541.766 2.5 568 2.5H918C944.234 2.5 965.5 23.7665 965.5 50V78C965.5 104.234 944.234 125.5 918 125.5H568C541.766 125.5 520.5 104.234 520.5 78V50Z" fill="white" stroke="black" stroke-width="5"/>
<path d="M625.584 54.1113C623.846 54.1113 622.303 54.4531 620.955 55.1367C619.627 55.8008 618.504 56.7676 617.586 58.0371C616.688 59.3066 616.004 60.8398 615.535 62.6367C615.066 64.4336 614.832 66.4551 614.832 68.7012C614.832 71.7285 615.203 74.3164 615.945 76.4648C616.707 78.5938 617.879 80.2246 619.461 81.3574C621.043 82.4707 623.084 83.0273 625.584 83.0273C627.322 83.0273 629.061 82.832 630.799 82.4414C632.557 82.0508 634.461 81.4941 636.512 80.7715V88.3887C634.617 89.1699 632.752 89.7266 630.916 90.0586C629.08 90.4102 627.02 90.5859 624.734 90.5859C620.32 90.5859 616.688 89.6777 613.836 87.8613C611.004 86.0254 608.904 83.4668 607.537 80.1855C606.17 76.8848 605.486 73.0371 605.486 68.6426C605.486 65.4004 605.926 62.4316 606.805 59.7363C607.684 57.041 608.973 54.707 610.672 52.7344C612.371 50.7617 614.471 49.2383 616.971 48.1641C619.471 47.0898 622.342 46.5527 625.584 46.5527C627.713 46.5527 629.842 46.8262 631.971 47.373C634.119 47.9004 636.17 48.6328 638.123 49.5703L635.193 56.9531C633.592 56.1914 631.98 55.5273 630.359 54.9609C628.738 54.3945 627.146 54.1113 625.584 54.1113ZM673.982 65.8301C673.982 67.5879 673.426 69.0918 672.312 70.3418C671.219 71.5723 669.598 72.3633 667.449 72.7148V72.9492C669.715 73.2227 671.541 74.0137 672.928 75.3223C674.314 76.6113 675.008 78.2422 675.008 80.2148C675.008 82.0898 674.52 83.7695 673.543 85.2539C672.566 86.7188 671.014 87.8809 668.885 88.7402C666.756 89.5801 663.973 90 660.535 90H644.949V57.2461H660.535C663.094 57.2461 665.389 57.5195 667.42 58.0664C669.451 58.5938 671.053 59.4824 672.225 60.7324C673.396 61.9824 673.982 63.6816 673.982 65.8301ZM665.75 79.7461C665.75 78.457 665.242 77.5293 664.227 76.9629C663.23 76.377 661.746 76.084 659.773 76.084H653.885V83.8184H659.949C661.629 83.8184 663.016 83.5059 664.109 82.8809C665.203 82.2559 665.75 81.2109 665.75 79.7461ZM664.93 66.5332C664.93 65.5176 664.529 64.7656 663.729 64.2773C662.928 63.7891 661.746 63.5449 660.184 63.5449H653.885V70.0195H659.158C661.053 70.0195 662.488 69.7461 663.465 69.1992C664.441 68.6523 664.93 67.7637 664.93 66.5332ZM696.189 56.6309C699.217 56.6309 701.824 57.2168 704.012 58.3887C706.199 59.541 707.889 61.2207 709.08 63.4277C710.271 65.6348 710.867 68.3301 710.867 71.5137V75.8496H689.744C689.842 78.3691 690.594 80.3516 692 81.7969C693.426 83.2227 695.398 83.9355 697.918 83.9355C700.008 83.9355 701.922 83.7207 703.66 83.291C705.398 82.8613 707.186 82.2168 709.021 81.3574V88.2715C707.4 89.0723 705.701 89.6582 703.924 90.0293C702.166 90.4004 700.027 90.5859 697.508 90.5859C694.227 90.5859 691.316 89.9805 688.777 88.7695C686.258 87.5586 684.275 85.7129 682.83 83.2324C681.404 80.752 680.691 77.627 680.691 73.8574C680.691 70.0293 681.336 66.8457 682.625 64.3066C683.934 61.748 685.75 59.834 688.074 58.5645C690.398 57.2754 693.104 56.6309 696.189 56.6309ZM696.248 62.9883C694.51 62.9883 693.064 63.5449 691.912 64.6582C690.779 65.7715 690.125 67.5195 689.949 69.9023H702.488C702.469 68.5742 702.225 67.3926 701.756 66.3574C701.307 65.3223 700.623 64.502 699.705 63.8965C698.807 63.291 697.654 62.9883 696.248 62.9883ZM745.232 63.9551H734.51V90H725.574V63.9551H714.822V57.2461H745.232V63.9551ZM780.682 90H771.746V63.9551H763.514C763.104 68.7598 762.615 72.8516 762.049 76.2305C761.482 79.6094 760.76 82.3633 759.881 84.4922C759.002 86.6016 757.908 88.1445 756.6 89.1211C755.291 90.0977 753.68 90.5859 751.766 90.5859C750.711 90.5859 749.764 90.5078 748.924 90.3516C748.104 90.1953 747.352 89.9609 746.668 89.6484V82.5C747.098 82.6758 747.557 82.8223 748.045 82.9395C748.533 83.0371 749.031 83.0859 749.539 83.0859C750.105 83.0859 750.643 82.8613 751.15 82.4121C751.658 81.9629 752.137 81.1914 752.586 80.0977C753.035 78.9844 753.455 77.4512 753.846 75.498C754.256 73.5449 754.627 71.0742 754.959 68.0859C755.291 65.0977 755.604 61.4844 755.896 57.2461H780.682V90ZM790.086 90V57.2461H799.021V69.9023H803.328C806.668 69.9023 809.422 70.2539 811.59 70.957C813.777 71.6602 815.398 72.7344 816.453 74.1797C817.508 75.6055 818.035 77.4023 818.035 79.5703C818.035 81.6797 817.547 83.5156 816.57 85.0781C815.594 86.6406 814.051 87.8516 811.941 88.7109C809.832 89.5703 807.068 90 803.65 90H790.086ZM799.021 83.8184H803.152C804.891 83.8184 806.316 83.5059 807.43 82.8809C808.543 82.2363 809.1 81.1719 809.1 79.6875C809.1 78.418 808.592 77.5 807.576 76.9336C806.561 76.3672 805.047 76.084 803.035 76.084H799.021V83.8184ZM822.781 90V57.2461H831.717V90H822.781ZM849.764 57.2461V70.1953C849.764 70.8594 849.734 71.6992 849.676 72.7148C849.637 73.7109 849.578 74.7266 849.5 75.7617C849.422 76.7969 849.344 77.7246 849.266 78.5449C849.188 79.3652 849.129 79.9219 849.09 80.2148L864.207 57.2461H874.959V90H866.316V76.9336C866.316 75.8594 866.355 74.6777 866.434 73.3887C866.512 72.0801 866.6 70.8496 866.697 69.6973C866.795 68.5449 866.863 67.6758 866.902 67.0898L851.844 90H841.121V57.2461H849.764ZM872.498 43.1543C872.283 45.2246 871.697 47.0508 870.74 48.6328C869.783 50.2148 868.289 51.4453 866.258 52.3242C864.227 53.2031 861.492 53.6426 858.055 53.6426C854.52 53.6426 851.766 53.2227 849.793 52.3828C847.82 51.5234 846.414 50.3125 845.574 48.75C844.734 47.168 844.227 45.3027 844.051 43.1543H852.049C852.225 45.3613 852.781 46.8262 853.719 47.5488C854.656 48.252 856.16 48.6035 858.23 48.6035C859.949 48.6035 861.355 48.2129 862.449 47.4316C863.543 46.6504 864.197 45.2246 864.412 43.1543H872.498Z" fill="black"/>
</svg>
