<svg width="968" height="128" viewBox="0 0 968 128" fill="none" xmlns="http://www.w3.org/2000/svg">
<path d="M50 2.5H918C944.234 2.5 965.5 23.7665 965.5 50V78C965.5 104.234 944.234 125.5 918 125.5H50C23.7665 125.5 2.5 104.234 2.5 78V50C2.5 23.7665 23.7665 2.5 50 2.5Z" fill="#583733" stroke="black" stroke-width="5"/>
<path d="M50 2.5H400C426.234 2.5 447.5 23.7665 447.5 50V78C447.5 104.234 426.234 125.5 400 125.5H50C23.7665 125.5 2.5 104.234 2.5 78V50C2.5 23.7665 23.7665 2.5 50 2.5Z" fill="white" stroke="black" stroke-width="5"/>
<path d="M192.928 68.1738C192.928 72.998 192 77.0312 190.145 80.2734C188.309 83.4961 185.643 85.9277 182.146 87.5684C178.65 89.1895 174.441 90 169.52 90H157.391V47.168H170.838C175.33 47.168 179.227 47.9688 182.527 49.5703C185.828 51.1523 188.387 53.5059 190.203 56.6309C192.02 59.7363 192.928 63.584 192.928 68.1738ZM183.494 68.4082C183.494 65.2441 183.025 62.6465 182.088 60.6152C181.17 58.5645 179.803 57.0508 177.986 56.0742C176.189 55.0977 173.963 54.6094 171.307 54.6094H166.473V82.5H170.369C174.803 82.5 178.094 81.3184 180.242 78.9551C182.41 76.5918 183.494 73.0762 183.494 68.4082ZM214.52 56.5723C218.914 56.5723 222.283 57.5293 224.627 59.4434C226.971 61.3574 228.143 64.2676 228.143 68.1738V90H221.902L220.174 85.5469H219.939C219.002 86.7188 218.045 87.6758 217.068 88.418C216.092 89.1602 214.969 89.707 213.699 90.0586C212.43 90.4102 210.887 90.5859 209.07 90.5859C207.137 90.5859 205.398 90.2148 203.855 89.4727C202.332 88.7305 201.131 87.5977 200.252 86.0742C199.373 84.5312 198.934 82.5781 198.934 80.2148C198.934 76.7383 200.154 74.1797 202.596 72.5391C205.037 70.8789 208.699 69.9609 213.582 69.7852L219.266 69.6094V68.1738C219.266 66.4551 218.816 65.1953 217.918 64.3945C217.02 63.5938 215.77 63.1934 214.168 63.1934C212.586 63.1934 211.033 63.418 209.51 63.8672C207.986 64.3164 206.463 64.8828 204.939 65.5664L201.98 59.5312C203.719 58.6133 205.662 57.8906 207.811 57.3633C209.979 56.8359 212.215 56.5723 214.52 56.5723ZM219.266 74.8242L215.809 74.9414C212.918 75.0195 210.906 75.5371 209.773 76.4941C208.66 77.4512 208.104 78.7109 208.104 80.2734C208.104 81.6406 208.504 82.6172 209.305 83.2031C210.105 83.7695 211.15 84.0527 212.439 84.0527C214.354 84.0527 215.965 83.4863 217.273 82.3535C218.602 81.2207 219.266 79.6094 219.266 77.5195V74.8242ZM255.652 56.6309C256.102 56.6309 256.619 56.6602 257.205 56.7188C257.811 56.7578 258.299 56.8164 258.67 56.8945L257.996 65.2734C257.703 65.1758 257.283 65.1074 256.736 65.0684C256.209 65.0098 255.75 64.9805 255.359 64.9805C254.207 64.9805 253.084 65.127 251.99 65.4199C250.916 65.7129 249.949 66.1914 249.09 66.8555C248.23 67.5 247.547 68.3594 247.039 69.4336C246.551 70.4883 246.307 71.7871 246.307 73.3301V90H237.371V57.2461H244.139L245.457 62.7539H245.896C246.541 61.6406 247.342 60.625 248.299 59.707C249.275 58.7695 250.379 58.0273 251.609 57.4805C252.859 56.9141 254.207 56.6309 255.652 56.6309ZM273.553 44.4141V64.8047C273.553 66.0352 273.504 67.2656 273.406 68.4961C273.309 69.7266 273.201 70.957 273.084 72.1875H273.201C273.807 71.3281 274.422 70.4785 275.047 69.6387C275.691 68.7988 276.375 67.9883 277.098 67.207L286.268 57.2461H296.346L283.338 71.4551L297.137 90H286.824L277.391 76.7285L273.553 79.8047V90H264.617V44.4141H273.553Z" fill="black"/>
</svg>
