<svg width="968" height="128" viewBox="0 0 968 128" fill="none" xmlns="http://www.w3.org/2000/svg">
<path d="M2.5 50C2.5 23.7665 23.7665 2.5 50 2.5H400C426.234 2.5 447.5 23.7665 447.5 50V78C447.5 104.234 426.234 125.5 400 125.5H50C23.7665 125.5 2.5 104.234 2.5 78V50Z" fill="#AAAAAA" stroke="black" stroke-width="5"/>
<path d="M520.5 50C520.5 23.7665 541.766 2.5 568 2.5H918C944.234 2.5 965.5 23.7665 965.5 50V78C965.5 104.234 944.234 125.5 918 125.5H568C541.766 125.5 520.5 104.234 520.5 78V50Z" fill="white" stroke="black" stroke-width="5"/>
<path d="M783.381 28H701.619C696.307 28 692 32.2981 692 37.6V90.4C692 95.7019 696.307 100 701.619 100H783.381C788.693 100 793 95.7019 793 90.4V37.6C793 32.2981 788.693 28 783.381 28Z" fill="#0034A9"/>
<path fill-rule="evenodd" clip-rule="evenodd" d="M692 76H793V100H692V76Z" fill="#D7280F"/>
<path fill-rule="evenodd" clip-rule="evenodd" d="M692 28H793V52H692V28Z" fill="white"/>
<path d="M702 31H783V25H702V31ZM790 38V90H796V38H790ZM783 97H702V103H783V97ZM695 90V38H689V90H695ZM702 97C698.134 97 695 93.866 695 90H689C689 97.1797 694.82 103 702 103V97ZM790 90C790 93.866 786.866 97 783 97V103C790.18 103 796 97.1797 796 90H790ZM783 31C786.866 31 790 34.134 790 38H796C796 30.8203 790.18 25 783 25V31ZM702 25C694.82 25 689 30.8203 689 38H695C695 34.134 698.134 31 702 31V25Z" fill="black"/>
<path d="M266.381 28H184.619C179.307 28 175 32.2981 175 37.6V90.4C175 95.7019 179.307 100 184.619 100H266.381C271.693 100 276 95.7019 276 90.4V37.6C276 32.2981 271.693 28 266.381 28Z" fill="#22438B"/>
<path fill-rule="evenodd" clip-rule="evenodd" d="M189.429 32.8L179.684 32.9248L179.81 42.4L261.485 95.3344L271.282 95.1569L271.099 85.7393L189.429 32.8Z" fill="white"/>
<path fill-rule="evenodd" clip-rule="evenodd" d="M184.619 32.8L179.81 37.6L266.381 95.2001L271.19 90.4001L184.619 32.8Z" fill="#C7152A"/>
<path fill-rule="evenodd" clip-rule="evenodd" d="M261.571 32.8H271.19V42.4C271.19 42.4 214.679 77.9008 189.515 95.3344C189.212 95.5456 179.906 95.3488 179.906 95.3488L179.16 86.224L261.571 32.8Z" fill="white"/>
<path fill-rule="evenodd" clip-rule="evenodd" d="M266.588 32.6655L271.19 37.5999L184.619 95.1999L179.81 90.3999L266.588 32.6655Z" fill="#C7152A"/>
<path fill-rule="evenodd" clip-rule="evenodd" d="M213.476 32.8H237.524V52H271.19V76H237.524V95.2001H213.476V76H179.81V52H213.476V32.8Z" fill="white"/>
<path fill-rule="evenodd" clip-rule="evenodd" d="M218.286 32.8H232.714V56.8H271.19V71.2001H232.714V95.2001H218.286V71.2001H179.81V56.8H218.286V32.8Z" fill="#C7152A"/>
<path d="M185 31H266V25H185V31ZM273 38V90H279V38H273ZM266 97H185V103H266V97ZM178 90V38H172V90H178ZM185 97C181.134 97 178 93.866 178 90H172C172 97.1797 177.82 103 185 103V97ZM273 90C273 93.866 269.866 97 266 97V103C273.18 103 279 97.1797 279 90H273ZM266 31C269.866 31 273 34.134 273 38H279C279 30.8203 273.18 25 266 25V31ZM185 25C177.82 25 172 30.8203 172 38H178C178 34.134 181.134 31 185 31V25Z" fill="black"/>
<rect x="158" y="22" width="134" height="84" fill="#AAAAAA" fill-opacity="0.6"/>
</svg>
