<svg width="546" height="55" viewBox="0 0 546 55" fill="none" xmlns="http://www.w3.org/2000/svg">
<rect x="169" y="1" width="35" height="54" fill="#FF6666"/>
<rect x="208" y="1" width="35" height="54" fill="#FEBA7C"/>
<rect x="247" y="1" width="60" height="54" fill="#FEF97C"/>
<rect x="311" y="1" width="50" height="54" fill="#72FF66"/>
<rect x="471" y="1" width="75" height="54" fill="#666BD7"/>
<rect x="417" y="1" width="50" height="54" fill="#FF76D0"/>
<rect x="365" y="1" width="48" height="54" fill="#AC66C5"/>
<path d="M182.594 44V15.4453H188.648V44H182.594ZM222.105 22.1641V44H216.148V22.1641H222.105ZM219.137 13.6094C220.022 13.6094 220.784 13.8177 221.422 14.2344C222.06 14.638 222.379 15.3997 222.379 16.5195C222.379 17.6263 222.06 18.3945 221.422 18.8242C220.784 19.2409 220.022 19.4492 219.137 19.4492C218.238 19.4492 217.47 19.2409 216.832 18.8242C216.207 18.3945 215.895 17.6263 215.895 16.5195C215.895 15.3997 216.207 14.638 216.832 14.2344C217.47 13.8177 218.238 13.6094 219.137 13.6094ZM234.332 22.1641V44H228.375V22.1641H234.332ZM231.363 13.6094C232.249 13.6094 233.01 13.8177 233.648 14.2344C234.286 14.638 234.605 15.3997 234.605 16.5195C234.605 17.6263 234.286 18.3945 233.648 18.8242C233.01 19.2409 232.249 19.4492 231.363 19.4492C230.465 19.4492 229.697 19.2409 229.059 18.8242C228.434 18.3945 228.121 17.6263 228.121 16.5195C228.121 15.3997 228.434 14.638 229.059 14.2344C229.697 13.8177 230.465 13.6094 231.363 13.6094ZM267.34 22.1641V44H261.383V22.1641H267.34ZM264.371 13.6094C265.257 13.6094 266.018 13.8177 266.656 14.2344C267.294 14.638 267.613 15.3997 267.613 16.5195C267.613 17.6263 267.294 18.3945 266.656 18.8242C266.018 19.2409 265.257 19.4492 264.371 19.4492C263.473 19.4492 262.704 19.2409 262.066 18.8242C261.441 18.3945 261.129 17.6263 261.129 16.5195C261.129 15.3997 261.441 14.638 262.066 14.2344C262.704 13.8177 263.473 13.6094 264.371 13.6094ZM279.566 22.1641V44H273.609V22.1641H279.566ZM276.598 13.6094C277.483 13.6094 278.245 13.8177 278.883 14.2344C279.521 14.638 279.84 15.3997 279.84 16.5195C279.84 17.6263 279.521 18.3945 278.883 18.8242C278.245 19.2409 277.483 19.4492 276.598 19.4492C275.699 19.4492 274.931 19.2409 274.293 18.8242C273.668 18.3945 273.355 17.6263 273.355 16.5195C273.355 15.3997 273.668 14.638 274.293 14.2344C274.931 13.8177 275.699 13.6094 276.598 13.6094ZM291.793 22.1641V44H285.836V22.1641H291.793ZM288.824 13.6094C289.71 13.6094 290.471 13.8177 291.109 14.2344C291.747 14.638 292.066 15.3997 292.066 16.5195C292.066 17.6263 291.747 18.3945 291.109 18.8242C290.471 19.2409 289.71 19.4492 288.824 19.4492C287.926 19.4492 287.158 19.2409 286.52 18.8242C285.895 18.3945 285.582 17.6263 285.582 16.5195C285.582 15.3997 285.895 14.638 286.52 14.2344C287.158 13.8177 287.926 13.6094 288.824 13.6094ZM319.312 44V15.4453H325.367V44H319.312ZM354.957 15.4453L345.25 44H338.648L328.961 15.4453H335.074L340.445 32.4375C340.536 32.724 340.686 33.2643 340.895 34.0586C341.103 34.8398 341.311 35.6732 341.52 36.5586C341.741 37.431 341.891 38.1536 341.969 38.7266C342.047 38.1536 342.184 37.431 342.379 36.5586C342.587 35.6862 342.789 34.8594 342.984 34.0781C343.193 33.2839 343.342 32.737 343.434 32.4375L348.844 15.4453H354.957ZM401.754 15.4453L392.047 44H385.445L375.758 15.4453H381.871L387.242 32.4375C387.333 32.724 387.483 33.2643 387.691 34.0586C387.9 34.8398 388.108 35.6732 388.316 36.5586C388.538 37.431 388.688 38.1536 388.766 38.7266C388.844 38.1536 388.98 37.431 389.176 36.5586C389.384 35.6862 389.586 34.8594 389.781 34.0781C389.99 33.2839 390.139 32.737 390.23 32.4375L395.641 15.4453H401.754ZM430.875 44L422.555 22.1641H428.785L433.004 34.6055C433.238 35.3346 433.421 36.1029 433.551 36.9102C433.694 37.7174 433.792 38.4401 433.844 39.0781H434C434.039 38.388 434.13 37.6523 434.273 36.8711C434.43 36.0898 434.632 35.3346 434.879 34.6055L439.078 22.1641H445.309L436.988 44H430.875ZM454.41 22.1641V44H448.453V22.1641H454.41ZM451.441 13.6094C452.327 13.6094 453.089 13.8177 453.727 14.2344C454.365 14.638 454.684 15.3997 454.684 16.5195C454.684 17.6263 454.365 18.3945 453.727 18.8242C453.089 19.2409 452.327 19.4492 451.441 19.4492C450.543 19.4492 449.775 19.2409 449.137 18.8242C448.512 18.3945 448.199 17.6263 448.199 16.5195C448.199 15.3997 448.512 14.638 449.137 14.2344C449.775 13.8177 450.543 13.6094 451.441 13.6094ZM486.656 44L478.336 22.1641H484.566L488.785 34.6055C489.02 35.3346 489.202 36.1029 489.332 36.9102C489.475 37.7174 489.573 38.4401 489.625 39.0781H489.781C489.82 38.388 489.911 37.6523 490.055 36.8711C490.211 36.0898 490.413 35.3346 490.66 34.6055L494.859 22.1641H501.09L492.77 44H486.656ZM510.191 22.1641V44H504.234V22.1641H510.191ZM507.223 13.6094C508.108 13.6094 508.87 13.8177 509.508 14.2344C510.146 14.638 510.465 15.3997 510.465 16.5195C510.465 17.6263 510.146 18.3945 509.508 18.8242C508.87 19.2409 508.108 19.4492 507.223 19.4492C506.324 19.4492 505.556 19.2409 504.918 18.8242C504.293 18.3945 503.98 17.6263 503.98 16.5195C503.98 15.3997 504.293 14.638 504.918 14.2344C505.556 13.8177 506.324 13.6094 507.223 13.6094ZM522.418 22.1641V44H516.461V22.1641H522.418ZM519.449 13.6094C520.335 13.6094 521.096 13.8177 521.734 14.2344C522.372 14.638 522.691 15.3997 522.691 16.5195C522.691 17.6263 522.372 18.3945 521.734 18.8242C521.096 19.2409 520.335 19.4492 519.449 19.4492C518.551 19.4492 517.783 19.2409 517.145 18.8242C516.52 18.3945 516.207 17.6263 516.207 16.5195C516.207 15.3997 516.52 14.638 517.145 14.2344C517.783 13.8177 518.551 13.6094 519.449 13.6094ZM534.117 28.5117C532.75 28.5117 531.539 28.2318 530.484 27.6719C529.43 27.099 528.603 26.3047 528.004 25.2891C527.418 24.2734 527.125 23.1081 527.125 21.793C527.125 20.4909 527.418 19.332 528.004 18.3164C528.603 17.3008 529.43 16.5 530.484 15.9141C531.539 15.3281 532.75 15.0352 534.117 15.0352C535.497 15.0352 536.708 15.3281 537.75 15.9141C538.792 16.487 539.605 17.2812 540.191 18.2969C540.79 19.3125 541.09 20.4779 541.09 21.793C541.09 23.1081 540.79 24.2734 540.191 25.2891C539.605 26.3047 538.792 27.099 537.75 27.6719C536.708 28.2318 535.497 28.5117 534.117 28.5117ZM534.117 24.8008C534.964 24.8008 535.68 24.5339 536.266 24C536.865 23.4531 537.164 22.7174 537.164 21.793C537.164 20.8294 536.865 20.0807 536.266 19.5469C535.68 19 534.964 18.7266 534.117 18.7266C533.284 18.7266 532.568 19 531.969 19.5469C531.383 20.0807 531.09 20.8294 531.09 21.793C531.09 22.7174 531.383 23.4531 531.969 24C532.568 24.5339 533.284 24.8008 534.117 24.8008Z" fill="black"/>
<path d="M15.6836 43L8.80859 20.5977H8.63281C8.65885 21.1315 8.69792 21.9388 8.75 23.0195C8.8151 24.0872 8.8737 25.2266 8.92578 26.4375C8.97786 27.6484 9.00391 28.7422 9.00391 29.7188V43H3.59375V14.4453H11.8359L18.5938 36.2812H18.7109L25.8789 14.4453H34.1211V43H28.4766V29.4844C28.4766 28.5859 28.4896 27.5508 28.5156 26.3789C28.5547 25.207 28.6003 24.0938 28.6523 23.0391C28.7044 21.9714 28.7435 21.1706 28.7695 20.6367H28.5938L21.2305 43H15.6836ZM49.8047 20.7148C52.7344 20.7148 54.9805 21.3529 56.543 22.6289C58.1055 23.9049 58.8867 25.8451 58.8867 28.4492V43H54.7266L53.5742 40.0312H53.418C52.793 40.8125 52.1549 41.4505 51.5039 41.9453C50.8529 42.4401 50.1042 42.8047 49.2578 43.0391C48.4115 43.2734 47.3828 43.3906 46.1719 43.3906C44.8828 43.3906 43.724 43.1432 42.6953 42.6484C41.6797 42.1536 40.8789 41.3984 40.293 40.3828C39.707 39.3542 39.4141 38.0521 39.4141 36.4766C39.4141 34.1589 40.2279 32.4531 41.8555 31.3594C43.4831 30.2526 45.9245 29.6406 49.1797 29.5234L52.9688 29.4062V28.4492C52.9688 27.3034 52.6693 26.4635 52.0703 25.9297C51.4714 25.3958 50.638 25.1289 49.5703 25.1289C48.5156 25.1289 47.4805 25.2786 46.4648 25.5781C45.4492 25.8776 44.4336 26.2552 43.418 26.7109L41.4453 22.6875C42.6042 22.0755 43.8997 21.5938 45.332 21.2422C46.7773 20.8906 48.2682 20.7148 49.8047 20.7148ZM52.9688 32.8828L50.6641 32.9609C48.737 33.013 47.3958 33.3581 46.6406 33.9961C45.8984 34.6341 45.5273 35.474 45.5273 36.5156C45.5273 37.4271 45.7943 38.0781 46.3281 38.4688C46.862 38.8464 47.5586 39.0352 48.418 39.0352C49.694 39.0352 50.7682 38.6576 51.6406 37.9023C52.526 37.1471 52.9688 36.0729 52.9688 34.6797V32.8828ZM96.0742 21.1641L88.0273 31.6328L96.8359 43H90.4688L82.1484 31.9258V43H76.6016V31.9258L68.2812 43H61.9141L70.7227 31.6328L62.6758 21.1641H68.8281L76.6016 31.7695V21.1641H82.1484V31.7695L89.9219 21.1641H96.0742ZM119.805 32.043C119.805 33.8659 119.557 35.4805 119.062 36.8867C118.581 38.293 117.871 39.4844 116.934 40.4609C116.009 41.4245 114.889 42.1536 113.574 42.6484C112.272 43.1432 110.801 43.3906 109.16 43.3906C107.624 43.3906 106.211 43.1432 104.922 42.6484C103.646 42.1536 102.533 41.4245 101.582 40.4609C100.645 39.4844 99.9154 38.293 99.3945 36.8867C98.8867 35.4805 98.6328 33.8659 98.6328 32.043C98.6328 29.6211 99.0625 27.5703 99.9219 25.8906C100.781 24.2109 102.005 22.9349 103.594 22.0625C105.182 21.1901 107.077 20.7539 109.277 20.7539C111.322 20.7539 113.132 21.1901 114.707 22.0625C116.296 22.9349 117.539 24.2109 118.438 25.8906C119.349 27.5703 119.805 29.6211 119.805 32.043ZM104.707 32.043C104.707 33.4753 104.863 34.6797 105.176 35.6562C105.488 36.6328 105.977 37.3685 106.641 37.8633C107.305 38.3581 108.171 38.6055 109.238 38.6055C110.293 38.6055 111.146 38.3581 111.797 37.8633C112.461 37.3685 112.943 36.6328 113.242 35.6562C113.555 34.6797 113.711 33.4753 113.711 32.043C113.711 30.5977 113.555 29.3997 113.242 28.4492C112.943 27.4857 112.461 26.763 111.797 26.2812C111.133 25.7995 110.267 25.5586 109.199 25.5586C107.624 25.5586 106.478 26.099 105.762 27.1797C105.059 28.2604 104.707 29.8815 104.707 32.043ZM136.875 20.7539C139.336 20.7539 141.322 21.7109 142.832 23.625C144.355 25.5391 145.117 28.3451 145.117 32.043C145.117 34.5169 144.759 36.6003 144.043 38.293C143.327 39.9727 142.337 41.2422 141.074 42.1016C139.811 42.9609 138.359 43.3906 136.719 43.3906C135.664 43.3906 134.759 43.2604 134.004 43C133.249 42.7266 132.604 42.3815 132.07 41.9648C131.536 41.5352 131.074 41.0794 130.684 40.5977H130.371C130.475 41.1185 130.553 41.6523 130.605 42.1992C130.658 42.7461 130.684 43.2799 130.684 43.8008V52.6094H124.727V21.1641H129.57L130.41 23.9961H130.684C131.074 23.4102 131.549 22.8698 132.109 22.375C132.669 21.8802 133.34 21.4896 134.121 21.2031C134.915 20.9036 135.833 20.7539 136.875 20.7539ZM134.961 25.5195C133.919 25.5195 133.092 25.7344 132.48 26.1641C131.868 26.5938 131.419 27.2383 131.133 28.0977C130.859 28.957 130.71 30.0443 130.684 31.3594V32.0039C130.684 33.4102 130.814 34.6016 131.074 35.5781C131.348 36.5547 131.797 37.2969 132.422 37.8047C133.06 38.3125 133.932 38.5664 135.039 38.5664C135.951 38.5664 136.699 38.3125 137.285 37.8047C137.871 37.2969 138.307 36.5547 138.594 35.5781C138.893 34.5885 139.043 33.3841 139.043 31.9648C139.043 29.8294 138.711 28.2214 138.047 27.1406C137.383 26.0599 136.354 25.5195 134.961 25.5195ZM149.199 40.207C149.199 38.9831 149.531 38.1237 150.195 37.6289C150.872 37.1341 151.686 36.8867 152.637 36.8867C153.561 36.8867 154.355 37.1341 155.02 37.6289C155.697 38.1237 156.035 38.9831 156.035 40.207C156.035 41.3789 155.697 42.2253 155.02 42.7461C154.355 43.2669 153.561 43.5273 152.637 43.5273C151.686 43.5273 150.872 43.2669 150.195 42.7461C149.531 42.2253 149.199 41.3789 149.199 40.207ZM149.199 24.0742C149.199 22.8503 149.531 21.9909 150.195 21.4961C150.872 21.0013 151.686 20.7539 152.637 20.7539C153.561 20.7539 154.355 21.0013 155.02 21.4961C155.697 21.9909 156.035 22.8503 156.035 24.0742C156.035 25.2591 155.697 26.112 155.02 26.6328C154.355 27.1406 153.561 27.3945 152.637 27.3945C151.686 27.3945 150.872 27.1406 150.195 26.6328C149.531 26.112 149.199 25.2591 149.199 24.0742Z" fill="white"/>
</svg>
