<svg width="531" height="54" viewBox="0 0 531 54" fill="none" xmlns="http://www.w3.org/2000/svg">
<rect x="154" width="35" height="54" fill="#FF6666"/>
<rect x="193" width="35" height="54" fill="#FEBA7C"/>
<rect x="232" width="60" height="54" fill="#FEF97C"/>
<rect x="296" width="50" height="54" fill="#72FF66"/>
<rect x="456" width="75" height="54" fill="#666BD7"/>
<rect x="402" width="50" height="54" fill="#FF76D0"/>
<rect x="350" width="48" height="54" fill="#AC66C5"/>
<path d="M167.594 43V14.4453H173.648V43H167.594ZM207.105 21.1641V43H201.148V21.1641H207.105ZM204.137 12.6094C205.022 12.6094 205.784 12.8177 206.422 13.2344C207.06 13.638 207.379 14.3997 207.379 15.5195C207.379 16.6263 207.06 17.3945 206.422 17.8242C205.784 18.2409 205.022 18.4492 204.137 18.4492C203.238 18.4492 202.47 18.2409 201.832 17.8242C201.207 17.3945 200.895 16.6263 200.895 15.5195C200.895 14.3997 201.207 13.638 201.832 13.2344C202.47 12.8177 203.238 12.6094 204.137 12.6094ZM219.332 21.1641V43H213.375V21.1641H219.332ZM216.363 12.6094C217.249 12.6094 218.01 12.8177 218.648 13.2344C219.286 13.638 219.605 14.3997 219.605 15.5195C219.605 16.6263 219.286 17.3945 218.648 17.8242C218.01 18.2409 217.249 18.4492 216.363 18.4492C215.465 18.4492 214.697 18.2409 214.059 17.8242C213.434 17.3945 213.121 16.6263 213.121 15.5195C213.121 14.3997 213.434 13.638 214.059 13.2344C214.697 12.8177 215.465 12.6094 216.363 12.6094ZM252.34 21.1641V43H246.383V21.1641H252.34ZM249.371 12.6094C250.257 12.6094 251.018 12.8177 251.656 13.2344C252.294 13.638 252.613 14.3997 252.613 15.5195C252.613 16.6263 252.294 17.3945 251.656 17.8242C251.018 18.2409 250.257 18.4492 249.371 18.4492C248.473 18.4492 247.704 18.2409 247.066 17.8242C246.441 17.3945 246.129 16.6263 246.129 15.5195C246.129 14.3997 246.441 13.638 247.066 13.2344C247.704 12.8177 248.473 12.6094 249.371 12.6094ZM264.566 21.1641V43H258.609V21.1641H264.566ZM261.598 12.6094C262.483 12.6094 263.245 12.8177 263.883 13.2344C264.521 13.638 264.84 14.3997 264.84 15.5195C264.84 16.6263 264.521 17.3945 263.883 17.8242C263.245 18.2409 262.483 18.4492 261.598 18.4492C260.699 18.4492 259.931 18.2409 259.293 17.8242C258.668 17.3945 258.355 16.6263 258.355 15.5195C258.355 14.3997 258.668 13.638 259.293 13.2344C259.931 12.8177 260.699 12.6094 261.598 12.6094ZM276.793 21.1641V43H270.836V21.1641H276.793ZM273.824 12.6094C274.71 12.6094 275.471 12.8177 276.109 13.2344C276.747 13.638 277.066 14.3997 277.066 15.5195C277.066 16.6263 276.747 17.3945 276.109 17.8242C275.471 18.2409 274.71 18.4492 273.824 18.4492C272.926 18.4492 272.158 18.2409 271.52 17.8242C270.895 17.3945 270.582 16.6263 270.582 15.5195C270.582 14.3997 270.895 13.638 271.52 13.2344C272.158 12.8177 272.926 12.6094 273.824 12.6094ZM304.312 43V14.4453H310.367V43H304.312ZM339.957 14.4453L330.25 43H323.648L313.961 14.4453H320.074L325.445 31.4375C325.536 31.724 325.686 32.2643 325.895 33.0586C326.103 33.8398 326.311 34.6732 326.52 35.5586C326.741 36.431 326.891 37.1536 326.969 37.7266C327.047 37.1536 327.184 36.431 327.379 35.5586C327.587 34.6862 327.789 33.8594 327.984 33.0781C328.193 32.2839 328.342 31.737 328.434 31.4375L333.844 14.4453H339.957ZM386.754 14.4453L377.047 43H370.445L360.758 14.4453H366.871L372.242 31.4375C372.333 31.724 372.483 32.2643 372.691 33.0586C372.9 33.8398 373.108 34.6732 373.316 35.5586C373.538 36.431 373.688 37.1536 373.766 37.7266C373.844 37.1536 373.98 36.431 374.176 35.5586C374.384 34.6862 374.586 33.8594 374.781 33.0781C374.99 32.2839 375.139 31.737 375.23 31.4375L380.641 14.4453H386.754ZM415.875 43L407.555 21.1641H413.785L418.004 33.6055C418.238 34.3346 418.421 35.1029 418.551 35.9102C418.694 36.7174 418.792 37.4401 418.844 38.0781H419C419.039 37.388 419.13 36.6523 419.273 35.8711C419.43 35.0898 419.632 34.3346 419.879 33.6055L424.078 21.1641H430.309L421.988 43H415.875ZM439.41 21.1641V43H433.453V21.1641H439.41ZM436.441 12.6094C437.327 12.6094 438.089 12.8177 438.727 13.2344C439.365 13.638 439.684 14.3997 439.684 15.5195C439.684 16.6263 439.365 17.3945 438.727 17.8242C438.089 18.2409 437.327 18.4492 436.441 18.4492C435.543 18.4492 434.775 18.2409 434.137 17.8242C433.512 17.3945 433.199 16.6263 433.199 15.5195C433.199 14.3997 433.512 13.638 434.137 13.2344C434.775 12.8177 435.543 12.6094 436.441 12.6094ZM471.656 43L463.336 21.1641H469.566L473.785 33.6055C474.02 34.3346 474.202 35.1029 474.332 35.9102C474.475 36.7174 474.573 37.4401 474.625 38.0781H474.781C474.82 37.388 474.911 36.6523 475.055 35.8711C475.211 35.0898 475.413 34.3346 475.66 33.6055L479.859 21.1641H486.09L477.77 43H471.656ZM495.191 21.1641V43H489.234V21.1641H495.191ZM492.223 12.6094C493.108 12.6094 493.87 12.8177 494.508 13.2344C495.146 13.638 495.465 14.3997 495.465 15.5195C495.465 16.6263 495.146 17.3945 494.508 17.8242C493.87 18.2409 493.108 18.4492 492.223 18.4492C491.324 18.4492 490.556 18.2409 489.918 17.8242C489.293 17.3945 488.98 16.6263 488.98 15.5195C488.98 14.3997 489.293 13.638 489.918 13.2344C490.556 12.8177 491.324 12.6094 492.223 12.6094ZM507.418 21.1641V43H501.461V21.1641H507.418ZM504.449 12.6094C505.335 12.6094 506.096 12.8177 506.734 13.2344C507.372 13.638 507.691 14.3997 507.691 15.5195C507.691 16.6263 507.372 17.3945 506.734 17.8242C506.096 18.2409 505.335 18.4492 504.449 18.4492C503.551 18.4492 502.783 18.2409 502.145 17.8242C501.52 17.3945 501.207 16.6263 501.207 15.5195C501.207 14.3997 501.52 13.638 502.145 13.2344C502.783 12.8177 503.551 12.6094 504.449 12.6094ZM519.117 27.5117C517.75 27.5117 516.539 27.2318 515.484 26.6719C514.43 26.099 513.603 25.3047 513.004 24.2891C512.418 23.2734 512.125 22.1081 512.125 20.793C512.125 19.4909 512.418 18.332 513.004 17.3164C513.603 16.3008 514.43 15.5 515.484 14.9141C516.539 14.3281 517.75 14.0352 519.117 14.0352C520.497 14.0352 521.708 14.3281 522.75 14.9141C523.792 15.487 524.605 16.2812 525.191 17.2969C525.79 18.3125 526.09 19.4779 526.09 20.793C526.09 22.1081 525.79 23.2734 525.191 24.2891C524.605 25.3047 523.792 26.099 522.75 26.6719C521.708 27.2318 520.497 27.5117 519.117 27.5117ZM519.117 23.8008C519.964 23.8008 520.68 23.5339 521.266 23C521.865 22.4531 522.164 21.7174 522.164 20.793C522.164 19.8294 521.865 19.0807 521.266 18.5469C520.68 18 519.964 17.7266 519.117 17.7266C518.284 17.7266 517.568 18 516.969 18.5469C516.383 19.0807 516.09 19.8294 516.09 20.793C516.09 21.7174 516.383 22.4531 516.969 23C517.568 23.5339 518.284 23.8008 519.117 23.8008Z" fill="black"/>
<path d="M15.6836 43L8.80859 20.5977H8.63281C8.65885 21.1315 8.69792 21.9388 8.75 23.0195C8.8151 24.0872 8.8737 25.2266 8.92578 26.4375C8.97786 27.6484 9.00391 28.7422 9.00391 29.7188V43H3.59375V14.4453H11.8359L18.5938 36.2812H18.7109L25.8789 14.4453H34.1211V43H28.4766V29.4844C28.4766 28.5859 28.4896 27.5508 28.5156 26.3789C28.5547 25.207 28.6003 24.0938 28.6523 23.0391C28.7044 21.9714 28.7435 21.1706 28.7695 20.6367H28.5938L21.2305 43H15.6836ZM49.8047 20.7148C52.7344 20.7148 54.9805 21.3529 56.543 22.6289C58.1055 23.9049 58.8867 25.8451 58.8867 28.4492V43H54.7266L53.5742 40.0312H53.418C52.793 40.8125 52.1549 41.4505 51.5039 41.9453C50.8529 42.4401 50.1042 42.8047 49.2578 43.0391C48.4115 43.2734 47.3828 43.3906 46.1719 43.3906C44.8828 43.3906 43.724 43.1432 42.6953 42.6484C41.6797 42.1536 40.8789 41.3984 40.293 40.3828C39.707 39.3542 39.4141 38.0521 39.4141 36.4766C39.4141 34.1589 40.2279 32.4531 41.8555 31.3594C43.4831 30.2526 45.9245 29.6406 49.1797 29.5234L52.9688 29.4062V28.4492C52.9688 27.3034 52.6693 26.4635 52.0703 25.9297C51.4714 25.3958 50.638 25.1289 49.5703 25.1289C48.5156 25.1289 47.4805 25.2786 46.4648 25.5781C45.4492 25.8776 44.4336 26.2552 43.418 26.7109L41.4453 22.6875C42.6042 22.0755 43.8997 21.5938 45.332 21.2422C46.7773 20.8906 48.2682 20.7148 49.8047 20.7148ZM52.9688 32.8828L50.6641 32.9609C48.737 33.013 47.3958 33.3581 46.6406 33.9961C45.8984 34.6341 45.5273 35.474 45.5273 36.5156C45.5273 37.4271 45.7943 38.0781 46.3281 38.4688C46.862 38.8464 47.5586 39.0352 48.418 39.0352C49.694 39.0352 50.7682 38.6576 51.6406 37.9023C52.526 37.1471 52.9688 36.0729 52.9688 34.6797V32.8828ZM63.2812 52.6094C62.6042 52.6094 61.901 52.5573 61.1719 52.4531C60.4427 52.362 59.8372 52.2513 59.3555 52.1211V47.4336C59.8372 47.5638 60.293 47.6549 60.7227 47.707C61.1393 47.7721 61.6146 47.8047 62.1484 47.8047C62.9557 47.8047 63.6393 47.5768 64.1992 47.1211C64.7591 46.6784 65.0391 45.7995 65.0391 44.4844V21.1641H70.9961V45.3633C70.9961 46.6914 70.7422 47.9023 70.2344 48.9961C69.7266 50.1029 68.9062 50.9818 67.7734 51.6328C66.6406 52.2839 65.1432 52.6094 63.2812 52.6094ZM64.7852 15.5195C64.7852 14.3997 65.0977 13.638 65.7227 13.2344C66.3607 12.8177 67.1289 12.6094 68.0273 12.6094C68.9128 12.6094 69.6745 12.8177 70.3125 13.2344C70.9505 13.638 71.2695 14.3997 71.2695 15.5195C71.2695 16.6263 70.9505 17.3945 70.3125 17.8242C69.6745 18.2409 68.9128 18.4492 68.0273 18.4492C67.1289 18.4492 66.3607 18.2409 65.7227 17.8242C65.0977 17.3945 64.7852 16.6263 64.7852 15.5195ZM97.1094 32.043C97.1094 33.8659 96.862 35.4805 96.3672 36.8867C95.8854 38.293 95.1758 39.4844 94.2383 40.4609C93.3138 41.4245 92.194 42.1536 90.8789 42.6484C89.5768 43.1432 88.1055 43.3906 86.4648 43.3906C84.9284 43.3906 83.5156 43.1432 82.2266 42.6484C80.9505 42.1536 79.8372 41.4245 78.8867 40.4609C77.9492 39.4844 77.2201 38.293 76.6992 36.8867C76.1914 35.4805 75.9375 33.8659 75.9375 32.043C75.9375 29.6211 76.3672 27.5703 77.2266 25.8906C78.0859 24.2109 79.3099 22.9349 80.8984 22.0625C82.487 21.1901 84.3815 20.7539 86.582 20.7539C88.6263 20.7539 90.4362 21.1901 92.0117 22.0625C93.6003 22.9349 94.8438 24.2109 95.7422 25.8906C96.6536 27.5703 97.1094 29.6211 97.1094 32.043ZM82.0117 32.043C82.0117 33.4753 82.168 34.6797 82.4805 35.6562C82.793 36.6328 83.2812 37.3685 83.9453 37.8633C84.6094 38.3581 85.4753 38.6055 86.543 38.6055C87.5977 38.6055 88.4505 38.3581 89.1016 37.8633C89.7656 37.3685 90.2474 36.6328 90.5469 35.6562C90.8594 34.6797 91.0156 33.4753 91.0156 32.043C91.0156 30.5977 90.8594 29.3997 90.5469 28.4492C90.2474 27.4857 89.7656 26.763 89.1016 26.2812C88.4375 25.7995 87.5716 25.5586 86.5039 25.5586C84.9284 25.5586 83.7826 26.099 83.0664 27.1797C82.3633 28.2604 82.0117 29.8815 82.0117 32.043ZM114.219 20.7539C114.518 20.7539 114.863 20.7734 115.254 20.8125C115.658 20.8385 115.983 20.8776 116.23 20.9297L115.781 26.5156C115.586 26.4505 115.306 26.4049 114.941 26.3789C114.59 26.3398 114.284 26.3203 114.023 26.3203C113.255 26.3203 112.507 26.418 111.777 26.6133C111.061 26.8086 110.417 27.1276 109.844 27.5703C109.271 28 108.815 28.5729 108.477 29.2891C108.151 29.9922 107.988 30.8581 107.988 31.8867V43H102.031V21.1641H106.543L107.422 24.8359H107.715C108.145 24.0938 108.678 23.4167 109.316 22.8047C109.967 22.1797 110.703 21.6849 111.523 21.3203C112.357 20.9427 113.255 20.7539 114.219 20.7539ZM119.355 40.207C119.355 38.9831 119.688 38.1237 120.352 37.6289C121.029 37.1341 121.842 36.8867 122.793 36.8867C123.717 36.8867 124.512 37.1341 125.176 37.6289C125.853 38.1237 126.191 38.9831 126.191 40.207C126.191 41.3789 125.853 42.2253 125.176 42.7461C124.512 43.2669 123.717 43.5273 122.793 43.5273C121.842 43.5273 121.029 43.2669 120.352 42.7461C119.688 42.2253 119.355 41.3789 119.355 40.207ZM119.355 24.0742C119.355 22.8503 119.688 21.9909 120.352 21.4961C121.029 21.0013 121.842 20.7539 122.793 20.7539C123.717 20.7539 124.512 21.0013 125.176 21.4961C125.853 21.9909 126.191 22.8503 126.191 24.0742C126.191 25.2591 125.853 26.112 125.176 26.6328C124.512 27.1406 123.717 27.3945 122.793 27.3945C121.842 27.3945 121.029 27.1406 120.352 26.6328C119.688 26.112 119.355 25.2591 119.355 24.0742Z" fill="white"/>
</svg>
