<svg width="512" height="512" viewBox="0 0 512 512" fill="none" xmlns="http://www.w3.org/2000/svg">
<path d="M373.332 256C373.332 260.219 372.081 264.343 369.737 267.851C367.393 271.359 364.061 274.094 360.163 275.708C356.265 277.323 351.976 277.745 347.838 276.922C343.7 276.099 339.899 274.067 336.916 271.084C333.933 268.101 331.901 264.3 331.078 260.162C330.255 256.024 330.677 251.735 332.292 247.837C333.906 243.939 336.641 240.607 340.149 238.263C343.657 235.919 347.781 234.668 352 234.668C357.658 234.668 363.083 236.915 367.084 240.916C371.085 244.917 373.332 250.342 373.332 256V256ZM256 234.668C251.781 234.668 247.657 235.919 244.149 238.263C240.641 240.607 237.906 243.939 236.292 247.837C234.677 251.735 234.255 256.024 235.078 260.162C235.901 264.3 237.933 268.101 240.916 271.084C243.899 274.067 247.7 276.099 251.838 276.922C255.976 277.745 260.265 277.323 264.163 275.708C268.061 274.094 271.393 271.359 273.737 267.851C276.081 264.343 277.332 260.219 277.332 256C277.332 250.342 275.085 244.917 271.084 240.916C267.083 236.915 261.658 234.668 256 234.668V234.668ZM160 234.668C155.781 234.668 151.657 235.919 148.149 238.263C144.641 240.607 141.906 243.939 140.292 247.837C138.677 251.735 138.255 256.024 139.078 260.162C139.901 264.3 141.933 268.101 144.916 271.084C147.899 274.067 151.7 276.099 155.838 276.922C159.976 277.745 164.265 277.323 168.163 275.708C172.061 274.094 175.393 271.359 177.737 267.851C180.081 264.343 181.332 260.219 181.332 256C181.332 250.342 179.085 244.917 175.084 240.916C171.083 236.915 165.658 234.668 160 234.668V234.668ZM464 256C464 297.139 451.801 337.353 428.946 371.559C406.09 405.764 373.605 432.424 335.598 448.167C297.591 463.91 255.769 468.029 215.421 460.003C175.073 451.978 138.011 432.168 108.922 403.078C79.8325 373.989 60.0224 336.927 51.9967 296.579C43.9709 256.231 48.09 214.409 63.8331 176.402C79.5761 138.395 106.236 105.91 140.441 83.0543C174.647 60.199 214.861 48 256 48C311.146 48.0625 364.015 69.9967 403.009 108.991C442.003 147.985 463.938 200.854 464 256ZM432 256C432 221.19 421.678 187.163 402.339 158.22C383 129.277 355.512 106.718 323.352 93.3972C291.193 80.0762 255.805 76.5908 221.664 83.3818C187.523 90.1728 156.163 106.935 131.549 131.549C106.935 156.163 90.1728 187.523 83.3818 221.664C76.5908 255.805 80.0762 291.193 93.3972 323.352C106.718 355.512 129.277 383 158.22 402.339C187.163 421.678 221.19 432 256 432C302.662 431.949 347.399 413.39 380.394 380.394C413.39 347.399 431.949 302.662 432 256Z" fill="white"/>
</svg>
