<svg width="537" height="54" viewBox="0 0 537 54" fill="none" xmlns="http://www.w3.org/2000/svg">
<rect x="154" width="35" height="54" fill="#FF76D0"/>
<rect x="193" width="50" height="54" fill="#666BD7"/>
<rect x="247" width="64" height="54" fill="#FF6666"/>
<rect x="315" width="46" height="54" fill="#FEBA7C"/>
<rect x="365" width="43" height="54" fill="#FEF97C"/>
<rect x="412" width="54" height="54" fill="#72FF66"/>
<rect x="470" width="67" height="54" fill="#AC66C5"/>
<path d="M173.082 21.1641V43H167.125V21.1641H173.082ZM170.113 12.6094C170.999 12.6094 171.76 12.8177 172.398 13.2344C173.036 13.638 173.355 14.3997 173.355 15.5195C173.355 16.6263 173.036 17.3945 172.398 17.8242C171.76 18.2409 170.999 18.4492 170.113 18.4492C169.215 18.4492 168.447 18.2409 167.809 17.8242C167.184 17.3945 166.871 16.6263 166.871 15.5195C166.871 14.3997 167.184 13.638 167.809 13.2344C168.447 12.8177 169.215 12.6094 170.113 12.6094ZM206.09 21.1641V43H200.133V21.1641H206.09ZM203.121 12.6094C204.007 12.6094 204.768 12.8177 205.406 13.2344C206.044 13.638 206.363 14.3997 206.363 15.5195C206.363 16.6263 206.044 17.3945 205.406 17.8242C204.768 18.2409 204.007 18.4492 203.121 18.4492C202.223 18.4492 201.454 18.2409 200.816 17.8242C200.191 17.3945 199.879 16.6263 199.879 15.5195C199.879 14.3997 200.191 13.638 200.816 13.2344C201.454 12.8177 202.223 12.6094 203.121 12.6094ZM218.316 21.1641V43H212.359V21.1641H218.316ZM215.348 12.6094C216.233 12.6094 216.995 12.8177 217.633 13.2344C218.271 13.638 218.59 14.3997 218.59 15.5195C218.59 16.6263 218.271 17.3945 217.633 17.8242C216.995 18.2409 216.233 18.4492 215.348 18.4492C214.449 18.4492 213.681 18.2409 213.043 17.8242C212.418 17.3945 212.105 16.6263 212.105 15.5195C212.105 14.3997 212.418 13.638 213.043 13.2344C213.681 12.8177 214.449 12.6094 215.348 12.6094ZM230.016 27.5117C228.648 27.5117 227.438 27.2318 226.383 26.6719C225.328 26.099 224.501 25.3047 223.902 24.2891C223.316 23.2734 223.023 22.1081 223.023 20.793C223.023 19.4909 223.316 18.332 223.902 17.3164C224.501 16.3008 225.328 15.5 226.383 14.9141C227.438 14.3281 228.648 14.0352 230.016 14.0352C231.396 14.0352 232.607 14.3281 233.648 14.9141C234.69 15.487 235.504 16.2812 236.09 17.2969C236.689 18.3125 236.988 19.4779 236.988 20.793C236.988 22.1081 236.689 23.2734 236.09 24.2891C235.504 25.3047 234.69 26.099 233.648 26.6719C232.607 27.2318 231.396 27.5117 230.016 27.5117ZM230.016 23.8008C230.862 23.8008 231.578 23.5339 232.164 23C232.763 22.4531 233.062 21.7174 233.062 20.793C233.062 19.8294 232.763 19.0807 232.164 18.5469C231.578 18 230.862 17.7266 230.016 17.7266C229.182 17.7266 228.466 18 227.867 18.5469C227.281 19.0807 226.988 19.8294 226.988 20.793C226.988 21.7174 227.281 22.4531 227.867 23C228.466 23.5339 229.182 23.8008 230.016 23.8008ZM262.984 43V14.4453H269.039V43H262.984ZM276.227 43V14.4453H282.281V43H276.227ZM289.469 43V14.4453H295.523V43H289.469ZM328.98 21.1641V43H323.023V21.1641H328.98ZM326.012 12.6094C326.897 12.6094 327.659 12.8177 328.297 13.2344C328.935 13.638 329.254 14.3997 329.254 15.5195C329.254 16.6263 328.935 17.3945 328.297 17.8242C327.659 18.2409 326.897 18.4492 326.012 18.4492C325.113 18.4492 324.345 18.2409 323.707 17.8242C323.082 17.3945 322.77 16.6263 322.77 15.5195C322.77 14.3997 323.082 13.638 323.707 13.2344C324.345 12.8177 325.113 12.6094 326.012 12.6094ZM340.445 43L332.125 21.1641H338.355L342.574 33.6055C342.809 34.3346 342.991 35.1029 343.121 35.9102C343.264 36.7174 343.362 37.4401 343.414 38.0781H343.57C343.609 37.388 343.701 36.6523 343.844 35.8711C344 35.0898 344.202 34.3346 344.449 33.6055L348.648 21.1641H354.879L346.559 43H340.445ZM384 43L375.68 21.1641H381.91L386.129 33.6055C386.363 34.3346 386.546 35.1029 386.676 35.9102C386.819 36.7174 386.917 37.4401 386.969 38.0781H387.125C387.164 37.388 387.255 36.6523 387.398 35.8711C387.555 35.0898 387.757 34.3346 388.004 33.6055L392.203 21.1641H398.434L390.113 43H384ZM445.23 14.4453L435.523 43H428.922L419.234 14.4453H425.348L430.719 31.4375C430.81 31.724 430.96 32.2643 431.168 33.0586C431.376 33.8398 431.585 34.6732 431.793 35.5586C432.014 36.431 432.164 37.1536 432.242 37.7266C432.32 37.1536 432.457 36.431 432.652 35.5586C432.861 34.6862 433.062 33.8594 433.258 33.0781C433.466 32.2839 433.616 31.737 433.707 31.4375L439.117 14.4453H445.23ZM448.844 43V14.4453H454.898V43H448.844ZM505.27 14.4453L495.562 43H488.961L479.273 14.4453H485.387L490.758 31.4375C490.849 31.724 490.999 32.2643 491.207 33.0586C491.415 33.8398 491.624 34.6732 491.832 35.5586C492.053 36.431 492.203 37.1536 492.281 37.7266C492.359 37.1536 492.496 36.431 492.691 35.5586C492.9 34.6862 493.102 33.8594 493.297 33.0781C493.505 32.2839 493.655 31.737 493.746 31.4375L499.156 14.4453H505.27ZM508.883 43V14.4453H514.938V43H508.883ZM522.125 43V14.4453H528.18V43H522.125Z" fill="black"/>
<path d="M15.6836 43L8.80859 20.5977H8.63281C8.65885 21.1315 8.69792 21.9388 8.75 23.0195C8.8151 24.0872 8.8737 25.2266 8.92578 26.4375C8.97786 27.6484 9.00391 28.7422 9.00391 29.7188V43H3.59375V14.4453H11.8359L18.5938 36.2812H18.7109L25.8789 14.4453H34.1211V43H28.4766V29.4844C28.4766 28.5859 28.4896 27.5508 28.5156 26.3789C28.5547 25.207 28.6003 24.0938 28.6523 23.0391C28.7044 21.9714 28.7435 21.1706 28.7695 20.6367H28.5938L21.2305 43H15.6836ZM46.8164 21.1641V43H40.8594V21.1641H46.8164ZM43.8477 12.6094C44.7331 12.6094 45.4948 12.8177 46.1328 13.2344C46.7708 13.638 47.0898 14.3997 47.0898 15.5195C47.0898 16.6263 46.7708 17.3945 46.1328 17.8242C45.4948 18.2409 44.7331 18.4492 43.8477 18.4492C42.9492 18.4492 42.181 18.2409 41.543 17.8242C40.918 17.3945 40.6055 16.6263 40.6055 15.5195C40.6055 14.3997 40.918 13.638 41.543 13.2344C42.181 12.8177 42.9492 12.6094 43.8477 12.6094ZM65.4883 20.7539C67.819 20.7539 69.694 21.3919 71.1133 22.668C72.5326 23.931 73.2422 25.9622 73.2422 28.7617V43H67.2852V30.2461C67.2852 28.6836 66.9987 27.5052 66.4258 26.7109C65.8659 25.9167 64.9805 25.5195 63.7695 25.5195C61.9466 25.5195 60.7031 26.138 60.0391 27.375C59.375 28.612 59.043 30.3958 59.043 32.7266V43H53.0859V21.1641H57.6367L58.4375 23.957H58.7695C59.2383 23.2018 59.8177 22.5898 60.5078 22.1211C61.2109 21.6523 61.9857 21.3073 62.832 21.0859C63.6914 20.8646 64.5768 20.7539 65.4883 20.7539ZM99.2188 32.043C99.2188 33.8659 98.9714 35.4805 98.4766 36.8867C97.9948 38.293 97.2852 39.4844 96.3477 40.4609C95.4232 41.4245 94.3034 42.1536 92.9883 42.6484C91.6862 43.1432 90.2148 43.3906 88.5742 43.3906C87.0378 43.3906 85.625 43.1432 84.3359 42.6484C83.0599 42.1536 81.9466 41.4245 80.9961 40.4609C80.0586 39.4844 79.3294 38.293 78.8086 36.8867C78.3008 35.4805 78.0469 33.8659 78.0469 32.043C78.0469 29.6211 78.4766 27.5703 79.3359 25.8906C80.1953 24.2109 81.4193 22.9349 83.0078 22.0625C84.5964 21.1901 86.4909 20.7539 88.6914 20.7539C90.7357 20.7539 92.5456 21.1901 94.1211 22.0625C95.7096 22.9349 96.9531 24.2109 97.8516 25.8906C98.763 27.5703 99.2188 29.6211 99.2188 32.043ZM84.1211 32.043C84.1211 33.4753 84.2773 34.6797 84.5898 35.6562C84.9023 36.6328 85.3906 37.3685 86.0547 37.8633C86.7188 38.3581 87.5846 38.6055 88.6523 38.6055C89.707 38.6055 90.5599 38.3581 91.2109 37.8633C91.875 37.3685 92.3568 36.6328 92.6562 35.6562C92.9688 34.6797 93.125 33.4753 93.125 32.043C93.125 30.5977 92.9688 29.3997 92.6562 28.4492C92.3568 27.4857 91.875 26.763 91.2109 26.2812C90.5469 25.7995 89.681 25.5586 88.6133 25.5586C87.0378 25.5586 85.8919 26.099 85.1758 27.1797C84.4727 28.2604 84.1211 29.8815 84.1211 32.043ZM116.328 20.7539C116.628 20.7539 116.973 20.7734 117.363 20.8125C117.767 20.8385 118.092 20.8776 118.34 20.9297L117.891 26.5156C117.695 26.4505 117.415 26.4049 117.051 26.3789C116.699 26.3398 116.393 26.3203 116.133 26.3203C115.365 26.3203 114.616 26.418 113.887 26.6133C113.171 26.8086 112.526 27.1276 111.953 27.5703C111.38 28 110.924 28.5729 110.586 29.2891C110.26 29.9922 110.098 30.8581 110.098 31.8867V43H104.141V21.1641H108.652L109.531 24.8359H109.824C110.254 24.0938 110.788 23.4167 111.426 22.8047C112.077 22.1797 112.812 21.6849 113.633 21.3203C114.466 20.9427 115.365 20.7539 116.328 20.7539ZM121.465 40.207C121.465 38.9831 121.797 38.1237 122.461 37.6289C123.138 37.1341 123.952 36.8867 124.902 36.8867C125.827 36.8867 126.621 37.1341 127.285 37.6289C127.962 38.1237 128.301 38.9831 128.301 40.207C128.301 41.3789 127.962 42.2253 127.285 42.7461C126.621 43.2669 125.827 43.5273 124.902 43.5273C123.952 43.5273 123.138 43.2669 122.461 42.7461C121.797 42.2253 121.465 41.3789 121.465 40.207ZM121.465 24.0742C121.465 22.8503 121.797 21.9909 122.461 21.4961C123.138 21.0013 123.952 20.7539 124.902 20.7539C125.827 20.7539 126.621 21.0013 127.285 21.4961C127.962 21.9909 128.301 22.8503 128.301 24.0742C128.301 25.2591 127.962 26.112 127.285 26.6328C126.621 27.1406 125.827 27.3945 124.902 27.3945C123.952 27.3945 123.138 27.1406 122.461 26.6328C121.797 26.112 121.465 25.2591 121.465 24.0742Z" fill="white"/>
</svg>
