<svg width="552" height="54" viewBox="0 0 552 54" fill="none" xmlns="http://www.w3.org/2000/svg">
<rect x="169" width="35" height="54" fill="#FF76D0"/>
<rect x="208" width="50" height="54" fill="#666BD7"/>
<rect x="262" width="64" height="54" fill="#FF6666"/>
<rect x="330" width="46" height="54" fill="#FEBA7C"/>
<rect x="380" width="43" height="54" fill="#FEF97C"/>
<rect x="427" width="54" height="54" fill="#72FF66"/>
<rect x="485" width="67" height="54" fill="#AC66C5"/>
<path d="M188.082 21.1641V43H182.125V21.1641H188.082ZM185.113 12.6094C185.999 12.6094 186.76 12.8177 187.398 13.2344C188.036 13.638 188.355 14.3997 188.355 15.5195C188.355 16.6263 188.036 17.3945 187.398 17.8242C186.76 18.2409 185.999 18.4492 185.113 18.4492C184.215 18.4492 183.447 18.2409 182.809 17.8242C182.184 17.3945 181.871 16.6263 181.871 15.5195C181.871 14.3997 182.184 13.638 182.809 13.2344C183.447 12.8177 184.215 12.6094 185.113 12.6094ZM221.09 21.1641V43H215.133V21.1641H221.09ZM218.121 12.6094C219.007 12.6094 219.768 12.8177 220.406 13.2344C221.044 13.638 221.363 14.3997 221.363 15.5195C221.363 16.6263 221.044 17.3945 220.406 17.8242C219.768 18.2409 219.007 18.4492 218.121 18.4492C217.223 18.4492 216.454 18.2409 215.816 17.8242C215.191 17.3945 214.879 16.6263 214.879 15.5195C214.879 14.3997 215.191 13.638 215.816 13.2344C216.454 12.8177 217.223 12.6094 218.121 12.6094ZM233.316 21.1641V43H227.359V21.1641H233.316ZM230.348 12.6094C231.233 12.6094 231.995 12.8177 232.633 13.2344C233.271 13.638 233.59 14.3997 233.59 15.5195C233.59 16.6263 233.271 17.3945 232.633 17.8242C231.995 18.2409 231.233 18.4492 230.348 18.4492C229.449 18.4492 228.681 18.2409 228.043 17.8242C227.418 17.3945 227.105 16.6263 227.105 15.5195C227.105 14.3997 227.418 13.638 228.043 13.2344C228.681 12.8177 229.449 12.6094 230.348 12.6094ZM245.016 27.5117C243.648 27.5117 242.438 27.2318 241.383 26.6719C240.328 26.099 239.501 25.3047 238.902 24.2891C238.316 23.2734 238.023 22.1081 238.023 20.793C238.023 19.4909 238.316 18.332 238.902 17.3164C239.501 16.3008 240.328 15.5 241.383 14.9141C242.438 14.3281 243.648 14.0352 245.016 14.0352C246.396 14.0352 247.607 14.3281 248.648 14.9141C249.69 15.487 250.504 16.2812 251.09 17.2969C251.689 18.3125 251.988 19.4779 251.988 20.793C251.988 22.1081 251.689 23.2734 251.09 24.2891C250.504 25.3047 249.69 26.099 248.648 26.6719C247.607 27.2318 246.396 27.5117 245.016 27.5117ZM245.016 23.8008C245.862 23.8008 246.578 23.5339 247.164 23C247.763 22.4531 248.062 21.7174 248.062 20.793C248.062 19.8294 247.763 19.0807 247.164 18.5469C246.578 18 245.862 17.7266 245.016 17.7266C244.182 17.7266 243.466 18 242.867 18.5469C242.281 19.0807 241.988 19.8294 241.988 20.793C241.988 21.7174 242.281 22.4531 242.867 23C243.466 23.5339 244.182 23.8008 245.016 23.8008ZM277.984 43V14.4453H284.039V43H277.984ZM291.227 43V14.4453H297.281V43H291.227ZM304.469 43V14.4453H310.523V43H304.469ZM343.98 21.1641V43H338.023V21.1641H343.98ZM341.012 12.6094C341.897 12.6094 342.659 12.8177 343.297 13.2344C343.935 13.638 344.254 14.3997 344.254 15.5195C344.254 16.6263 343.935 17.3945 343.297 17.8242C342.659 18.2409 341.897 18.4492 341.012 18.4492C340.113 18.4492 339.345 18.2409 338.707 17.8242C338.082 17.3945 337.77 16.6263 337.77 15.5195C337.77 14.3997 338.082 13.638 338.707 13.2344C339.345 12.8177 340.113 12.6094 341.012 12.6094ZM355.445 43L347.125 21.1641H353.355L357.574 33.6055C357.809 34.3346 357.991 35.1029 358.121 35.9102C358.264 36.7174 358.362 37.4401 358.414 38.0781H358.57C358.609 37.388 358.701 36.6523 358.844 35.8711C359 35.0898 359.202 34.3346 359.449 33.6055L363.648 21.1641H369.879L361.559 43H355.445ZM399 43L390.68 21.1641H396.91L401.129 33.6055C401.363 34.3346 401.546 35.1029 401.676 35.9102C401.819 36.7174 401.917 37.4401 401.969 38.0781H402.125C402.164 37.388 402.255 36.6523 402.398 35.8711C402.555 35.0898 402.757 34.3346 403.004 33.6055L407.203 21.1641H413.434L405.113 43H399ZM460.23 14.4453L450.523 43H443.922L434.234 14.4453H440.348L445.719 31.4375C445.81 31.724 445.96 32.2643 446.168 33.0586C446.376 33.8398 446.585 34.6732 446.793 35.5586C447.014 36.431 447.164 37.1536 447.242 37.7266C447.32 37.1536 447.457 36.431 447.652 35.5586C447.861 34.6862 448.062 33.8594 448.258 33.0781C448.466 32.2839 448.616 31.737 448.707 31.4375L454.117 14.4453H460.23ZM463.844 43V14.4453H469.898V43H463.844ZM520.27 14.4453L510.562 43H503.961L494.273 14.4453H500.387L505.758 31.4375C505.849 31.724 505.999 32.2643 506.207 33.0586C506.415 33.8398 506.624 34.6732 506.832 35.5586C507.053 36.431 507.203 37.1536 507.281 37.7266C507.359 37.1536 507.496 36.431 507.691 35.5586C507.9 34.6862 508.102 33.8594 508.297 33.0781C508.505 32.2839 508.655 31.737 508.746 31.4375L514.156 14.4453H520.27ZM523.883 43V14.4453H529.938V43H523.883ZM537.125 43V14.4453H543.18V43H537.125Z" fill="black"/>
<path d="M15.6836 43L8.80859 20.5977H8.63281C8.65885 21.1315 8.69792 21.9388 8.75 23.0195C8.8151 24.0872 8.8737 25.2266 8.92578 26.4375C8.97786 27.6484 9.00391 28.7422 9.00391 29.7188V43H3.59375V14.4453H11.8359L18.5938 36.2812H18.7109L25.8789 14.4453H34.1211V43H28.4766V29.4844C28.4766 28.5859 28.4896 27.5508 28.5156 26.3789C28.5547 25.207 28.6003 24.0938 28.6523 23.0391C28.7044 21.9714 28.7435 21.1706 28.7695 20.6367H28.5938L21.2305 43H15.6836ZM46.6211 21.1641V29.7969C46.6211 30.2396 46.6016 30.7995 46.5625 31.4766C46.5365 32.1406 46.4974 32.8177 46.4453 33.5078C46.3932 34.1979 46.3411 34.8164 46.2891 35.3633C46.237 35.9102 46.1979 36.2812 46.1719 36.4766L56.25 21.1641H63.418V43H57.6562V34.2891C57.6562 33.5729 57.6823 32.7852 57.7344 31.9258C57.7865 31.0534 57.8451 30.2331 57.9102 29.4648C57.9753 28.6966 58.0208 28.1172 58.0469 27.7266L48.0078 43H40.8594V21.1641H46.6211ZM75.6445 21.1641V29.5625H83.9648V21.1641H89.9219V43H83.9648V33.9961H75.6445V43H69.6875V21.1641H75.6445ZM116.016 32.043C116.016 33.8659 115.768 35.4805 115.273 36.8867C114.792 38.293 114.082 39.4844 113.145 40.4609C112.22 41.4245 111.1 42.1536 109.785 42.6484C108.483 43.1432 107.012 43.3906 105.371 43.3906C103.835 43.3906 102.422 43.1432 101.133 42.6484C99.8568 42.1536 98.7435 41.4245 97.793 40.4609C96.8555 39.4844 96.1263 38.293 95.6055 36.8867C95.0977 35.4805 94.8438 33.8659 94.8438 32.043C94.8438 29.6211 95.2734 27.5703 96.1328 25.8906C96.9922 24.2109 98.2161 22.9349 99.8047 22.0625C101.393 21.1901 103.288 20.7539 105.488 20.7539C107.533 20.7539 109.342 21.1901 110.918 22.0625C112.507 22.9349 113.75 24.2109 114.648 25.8906C115.56 27.5703 116.016 29.6211 116.016 32.043ZM100.918 32.043C100.918 33.4753 101.074 34.6797 101.387 35.6562C101.699 36.6328 102.188 37.3685 102.852 37.8633C103.516 38.3581 104.382 38.6055 105.449 38.6055C106.504 38.6055 107.357 38.3581 108.008 37.8633C108.672 37.3685 109.154 36.6328 109.453 35.6562C109.766 34.6797 109.922 33.4753 109.922 32.043C109.922 30.5977 109.766 29.3997 109.453 28.4492C109.154 27.4857 108.672 26.763 108.008 26.2812C107.344 25.7995 106.478 25.5586 105.41 25.5586C103.835 25.5586 102.689 26.099 101.973 27.1797C101.27 28.2604 100.918 29.8815 100.918 32.043ZM133.086 20.7539C135.547 20.7539 137.533 21.7109 139.043 23.625C140.566 25.5391 141.328 28.3451 141.328 32.043C141.328 34.5169 140.97 36.6003 140.254 38.293C139.538 39.9727 138.548 41.2422 137.285 42.1016C136.022 42.9609 134.57 43.3906 132.93 43.3906C131.875 43.3906 130.97 43.2604 130.215 43C129.46 42.7266 128.815 42.3815 128.281 41.9648C127.747 41.5352 127.285 41.0794 126.895 40.5977H126.582C126.686 41.1185 126.764 41.6523 126.816 42.1992C126.868 42.7461 126.895 43.2799 126.895 43.8008V52.6094H120.938V21.1641H125.781L126.621 23.9961H126.895C127.285 23.4102 127.76 22.8698 128.32 22.375C128.88 21.8802 129.551 21.4896 130.332 21.2031C131.126 20.9036 132.044 20.7539 133.086 20.7539ZM131.172 25.5195C130.13 25.5195 129.303 25.7344 128.691 26.1641C128.079 26.5938 127.63 27.2383 127.344 28.0977C127.07 28.957 126.921 30.0443 126.895 31.3594V32.0039C126.895 33.4102 127.025 34.6016 127.285 35.5781C127.559 36.5547 128.008 37.2969 128.633 37.8047C129.271 38.3125 130.143 38.5664 131.25 38.5664C132.161 38.5664 132.91 38.3125 133.496 37.8047C134.082 37.2969 134.518 36.5547 134.805 35.5781C135.104 34.5885 135.254 33.3841 135.254 31.9648C135.254 29.8294 134.922 28.2214 134.258 27.1406C133.594 26.0599 132.565 25.5195 131.172 25.5195ZM145.41 40.207C145.41 38.9831 145.742 38.1237 146.406 37.6289C147.083 37.1341 147.897 36.8867 148.848 36.8867C149.772 36.8867 150.566 37.1341 151.23 37.6289C151.908 38.1237 152.246 38.9831 152.246 40.207C152.246 41.3789 151.908 42.2253 151.23 42.7461C150.566 43.2669 149.772 43.5273 148.848 43.5273C147.897 43.5273 147.083 43.2669 146.406 42.7461C145.742 42.2253 145.41 41.3789 145.41 40.207ZM145.41 24.0742C145.41 22.8503 145.742 21.9909 146.406 21.4961C147.083 21.0013 147.897 20.7539 148.848 20.7539C149.772 20.7539 150.566 21.0013 151.23 21.4961C151.908 21.9909 152.246 22.8503 152.246 24.0742C152.246 25.2591 151.908 26.112 151.23 26.6328C150.566 27.1406 149.772 27.3945 148.848 27.3945C147.897 27.3945 147.083 27.1406 146.406 26.6328C145.742 26.112 145.41 25.2591 145.41 24.0742Z" fill="white"/>
</svg>
