<svg width="968" height="291" viewBox="0 0 968 291" fill="none" xmlns="http://www.w3.org/2000/svg">
<circle cx="64" cy="64" r="59" fill="white" stroke="black" stroke-width="10"/>
<circle cx="204" cy="64" r="59" fill="white" stroke="black" stroke-width="10"/>
<circle cx="344" cy="64" r="59" fill="white" stroke="black" stroke-width="10"/>
<circle cx="484" cy="64" r="59" fill="white" stroke="black" stroke-width="10"/>
<circle cx="624" cy="64" r="59" fill="white" stroke="black" stroke-width="10"/>
<circle cx="764" cy="64" r="59" fill="white" stroke="black" stroke-width="10"/>
<circle cx="904" cy="64" r="59" fill="white" stroke="black" stroke-width="10"/>
<path d="M222.596 65.1738C222.596 69.998 221.668 74.0312 219.812 77.2734C217.977 80.4961 215.311 82.9277 211.814 84.5684C208.318 86.1895 204.109 87 199.188 87H187.059V44.168H200.506C204.998 44.168 208.895 44.9688 212.195 46.5703C215.496 48.1523 218.055 50.5059 219.871 53.6309C221.688 56.7363 222.596 60.584 222.596 65.1738ZM213.162 65.4082C213.162 62.2441 212.693 59.6465 211.756 57.6152C210.838 55.5645 209.471 54.0508 207.654 53.0742C205.857 52.0977 203.631 51.6094 200.975 51.6094H196.141V79.5H200.037C204.471 79.5 207.762 78.3184 209.91 75.9551C212.078 73.5918 213.162 70.0762 213.162 65.4082Z" fill="black"/>
<path d="M68.3281 51.1113C66.5898 51.1113 65.0469 51.4531 63.6992 52.1367C62.3711 52.8008 61.248 53.7676 60.3301 55.0371C59.4316 56.3066 58.748 57.8398 58.2793 59.6367C57.8105 61.4336 57.5762 63.4551 57.5762 65.7012C57.5762 68.7285 57.9473 71.3164 58.6895 73.4648C59.4512 75.5938 60.623 77.2246 62.2051 78.3574C63.7871 79.4707 65.8281 80.0273 68.3281 80.0273C70.0664 80.0273 71.8047 79.832 73.543 79.4414C75.3008 79.0508 77.2051 78.4941 79.2559 77.7715V85.3887C77.3613 86.1699 75.4961 86.7266 73.6602 87.0586C71.8242 87.4102 69.7637 87.5859 67.4785 87.5859C63.0645 87.5859 59.4316 86.6777 56.5801 84.8613C53.748 83.0254 51.6484 80.4668 50.2812 77.1855C48.9141 73.8848 48.2305 70.0371 48.2305 65.6426C48.2305 62.4004 48.6699 59.4316 49.5488 56.7363C50.4277 54.041 51.7168 51.707 53.416 49.7344C55.1152 47.7617 57.2148 46.2383 59.7148 45.1641C62.2148 44.0898 65.0859 43.5527 68.3281 43.5527C70.457 43.5527 72.5859 43.8262 74.7148 44.373C76.8633 44.9004 78.9141 45.6328 80.8672 46.5703L77.9375 53.9531C76.3359 53.1914 74.7246 52.5273 73.1035 51.9609C71.4824 51.3945 69.8906 51.1113 68.3281 51.1113Z" fill="black"/>
<path d="M357.117 87H332.449V44.168H357.117V51.6094H341.531V61.0137H356.033V68.4551H341.531V79.5H357.117V87Z" fill="black"/>
<path d="M481.736 87H472.801V44.168H497.352V51.6094H481.736V62.6543H496.268V70.0664H481.736V87Z" fill="black"/>
<path d="M623.787 62.9473H640.779V85.1543C638.533 85.8965 636.199 86.4922 633.777 86.9414C631.355 87.3711 628.611 87.5859 625.545 87.5859C621.287 87.5859 617.674 86.7461 614.705 85.0664C611.736 83.3867 609.48 80.9062 607.938 77.625C606.395 74.3438 605.623 70.3105 605.623 65.5254C605.623 61.0332 606.482 57.1465 608.201 53.8652C609.939 50.584 612.469 48.0449 615.789 46.248C619.129 44.4512 623.201 43.5527 628.006 43.5527C630.271 43.5527 632.508 43.7969 634.715 44.2852C636.922 44.7734 638.924 45.4082 640.721 46.1895L637.703 53.4551C636.395 52.791 634.9 52.2344 633.221 51.7852C631.541 51.3359 629.783 51.1113 627.947 51.1113C625.311 51.1113 623.016 51.7168 621.062 52.9277C619.129 54.1387 617.625 55.8379 616.551 58.0254C615.496 60.1934 614.969 62.752 614.969 65.7012C614.969 68.4941 615.35 70.9746 616.111 73.1426C616.873 75.291 618.074 76.9805 619.715 78.2109C621.355 79.4219 623.494 80.0273 626.131 80.0273C627.42 80.0273 628.504 79.9688 629.383 79.8516C630.281 79.7148 631.121 79.5781 631.902 79.4414V70.5059H623.787V62.9473Z" fill="black"/>
<path d="M774.773 87L771.668 76.8047H756.053L752.947 87H743.162L758.279 43.9922H769.383L784.559 87H774.773ZM769.5 69.1875L766.395 59.2266C766.199 58.5625 765.936 57.7129 765.604 56.6777C765.291 55.623 764.969 54.5586 764.637 53.4844C764.324 52.3906 764.07 51.4434 763.875 50.6426C763.68 51.4434 763.406 52.4395 763.055 53.6309C762.723 54.8027 762.4 55.916 762.088 56.9707C761.775 58.0254 761.551 58.7773 761.414 59.2266L758.338 69.1875H769.5Z" fill="black"/>
<path d="M889.109 44.168H902.439C908.143 44.168 912.459 44.9688 915.389 46.5703C918.318 48.1719 919.783 50.9844 919.783 55.0078C919.783 56.6289 919.52 58.0938 918.992 59.4023C918.484 60.7109 917.742 61.7852 916.766 62.625C915.789 63.4648 914.598 64.0117 913.191 64.2656V64.5586C914.617 64.8516 915.906 65.3594 917.059 66.082C918.211 66.7852 919.129 67.8203 919.812 69.1875C920.516 70.5352 920.867 72.332 920.867 74.5781C920.867 77.1758 920.232 79.4023 918.963 81.2578C917.693 83.1133 915.877 84.5391 913.514 85.5352C911.17 86.5117 908.377 87 905.135 87H889.109V44.168ZM898.191 61.1309H903.465C906.102 61.1309 907.928 60.7207 908.943 59.9004C909.959 59.0605 910.467 57.8301 910.467 56.209C910.467 54.5684 909.861 53.3965 908.65 52.6934C907.459 51.9707 905.564 51.6094 902.967 51.6094H898.191V61.1309ZM898.191 68.3379V79.5H904.109C906.844 79.5 908.748 78.9727 909.822 77.918C910.896 76.8633 911.434 75.4473 911.434 73.6699C911.434 72.6152 911.199 71.6875 910.73 70.8867C910.262 70.0859 909.471 69.4609 908.357 69.0117C907.264 68.5625 905.75 68.3379 903.816 68.3379H898.191Z" fill="black"/>
<circle cx="64" cy="227" r="59" fill="#AAAAAA" stroke="black" stroke-width="10"/>
<circle cx="204" cy="227" r="59" fill="#AAAAAA" stroke="black" stroke-width="10"/>
<circle cx="344" cy="227" r="59" fill="#AAAAAA" stroke="black" stroke-width="10"/>
<circle cx="484" cy="227" r="59" fill="#AAAAAA" stroke="black" stroke-width="10"/>
<circle cx="624" cy="227" r="59" fill="#AAAAAA" stroke="black" stroke-width="10"/>
<circle cx="764" cy="227" r="59" fill="#AAAAAA" stroke="black" stroke-width="10"/>
<circle cx="904" cy="227" r="59" fill="#AAAAAA" stroke="black" stroke-width="10"/>
<path d="M61.7266 210.307V239.701H66.4873V256.4H59.1875V246H36.8242V256.4H29.5244V239.701H32.2832C33.2109 237.846 34.1061 235.884 34.9688 233.817C35.8314 231.75 36.637 229.529 37.3857 227.152C38.1344 224.776 38.8099 222.196 39.4121 219.413C40.0143 216.63 40.5189 213.594 40.9258 210.307H61.7266ZM54.1826 216.605H46.9316C46.6875 218.331 46.3538 220.17 45.9307 222.123C45.5075 224.076 45.0029 226.07 44.417 228.104C43.8473 230.123 43.2044 232.117 42.4883 234.086C41.7884 236.055 41.0397 237.927 40.2422 239.701H54.1826V216.605ZM96.2236 232.304C96.2236 234.582 95.9144 236.601 95.2959 238.358C94.6937 240.116 93.8066 241.605 92.6348 242.826C91.4792 244.031 90.0794 244.942 88.4355 245.561C86.8079 246.179 84.9688 246.488 82.918 246.488C80.9974 246.488 79.2314 246.179 77.6201 245.561C76.0251 244.942 74.6335 244.031 73.4453 242.826C72.2734 241.605 71.362 240.116 70.7109 238.358C70.0762 236.601 69.7588 234.582 69.7588 232.304C69.7588 229.276 70.2959 226.713 71.3701 224.613C72.4443 222.514 73.9743 220.919 75.96 219.828C77.9456 218.738 80.3138 218.192 83.0645 218.192C85.6198 218.192 87.8822 218.738 89.8516 219.828C91.8372 220.919 93.3916 222.514 94.5146 224.613C95.654 226.713 96.2236 229.276 96.2236 232.304ZM77.3516 232.304C77.3516 234.094 77.5469 235.6 77.9375 236.82C78.3281 238.041 78.9385 238.961 79.7686 239.579C80.5986 240.198 81.681 240.507 83.0156 240.507C84.334 240.507 85.4001 240.198 86.2139 239.579C87.0439 238.961 87.6462 238.041 88.0205 236.82C88.4111 235.6 88.6064 234.094 88.6064 232.304C88.6064 230.497 88.4111 229 88.0205 227.812C87.6462 226.607 87.0439 225.704 86.2139 225.102C85.3838 224.499 84.3014 224.198 82.9668 224.198C80.9974 224.198 79.5651 224.874 78.6699 226.225C77.791 227.576 77.3516 229.602 77.3516 232.304Z" fill="black"/>
<path d="M189.3 210.307C193.906 210.307 197.267 211.299 199.383 213.285C201.499 215.255 202.557 217.973 202.557 221.439C202.557 223.002 202.321 224.499 201.849 225.932C201.377 227.348 200.604 228.609 199.529 229.716C198.471 230.823 197.055 231.701 195.281 232.353C193.507 232.987 191.318 233.305 188.714 233.305H185.467V246H177.898V210.307H189.3ZM188.909 216.508H185.467V227.104H187.957C189.373 227.104 190.602 226.916 191.644 226.542C192.685 226.168 193.491 225.582 194.061 224.784C194.63 223.987 194.915 222.961 194.915 221.708C194.915 219.95 194.427 218.648 193.45 217.802C192.474 216.939 190.96 216.508 188.909 216.508ZM219.964 218.192C222.487 218.192 224.66 218.681 226.482 219.657C228.305 220.618 229.713 222.017 230.706 223.856C231.699 225.696 232.195 227.942 232.195 230.595V234.208H214.593C214.674 236.308 215.301 237.96 216.473 239.164C217.661 240.352 219.305 240.946 221.404 240.946C223.146 240.946 224.741 240.767 226.189 240.409C227.638 240.051 229.127 239.514 230.657 238.798V244.56C229.306 245.227 227.89 245.715 226.409 246.024C224.944 246.334 223.162 246.488 221.062 246.488C218.328 246.488 215.903 245.984 213.787 244.975C211.688 243.965 210.035 242.427 208.831 240.36C207.643 238.293 207.049 235.689 207.049 232.548C207.049 229.358 207.586 226.705 208.66 224.589C209.751 222.457 211.264 220.862 213.201 219.804C215.138 218.729 217.392 218.192 219.964 218.192ZM220.013 223.49C218.564 223.49 217.36 223.954 216.399 224.882C215.455 225.81 214.91 227.266 214.764 229.252H225.213C225.197 228.145 224.993 227.16 224.603 226.298C224.228 225.435 223.659 224.752 222.894 224.247C222.145 223.743 221.185 223.49 220.013 223.49Z" fill="black"/>
<path d="M321.878 246L313.284 217.997H313.064C313.097 218.664 313.146 219.674 313.211 221.024C313.292 222.359 313.366 223.783 313.431 225.297C313.496 226.811 313.528 228.178 313.528 229.398V246H306.766V210.307H317.068L325.516 237.602H325.662L334.622 210.307H344.925V246H337.869V229.105C337.869 227.982 337.885 226.688 337.918 225.224C337.967 223.759 338.024 222.367 338.089 221.049C338.154 219.714 338.203 218.713 338.235 218.046H338.016L328.812 246H321.878ZM360.55 218.705V229.496C360.55 230.049 360.525 230.749 360.477 231.596C360.444 232.426 360.395 233.272 360.33 234.135C360.265 234.997 360.2 235.771 360.135 236.454C360.07 237.138 360.021 237.602 359.988 237.846L372.586 218.705H381.546V246H374.344V235.111C374.344 234.216 374.376 233.231 374.441 232.157C374.507 231.067 374.58 230.041 374.661 229.081C374.743 228.121 374.799 227.396 374.832 226.908L362.283 246H353.348V218.705H360.55Z" fill="black"/>
<path d="M472.156 209.794V214.188C476.046 214.286 479.147 214.962 481.458 216.215C483.769 217.468 485.438 219.088 486.463 221.073C487.488 223.043 488.001 225.183 488.001 227.494C488.001 229.008 487.741 230.546 487.22 232.108C486.699 233.671 485.828 235.111 484.607 236.43C483.403 237.748 481.784 238.822 479.749 239.652C477.715 240.482 475.184 240.93 472.156 240.995V246.488H465.345V240.995C462.269 240.93 459.705 240.482 457.654 239.652C455.62 238.806 454 237.724 452.796 236.405C451.608 235.071 450.761 233.622 450.257 232.06C449.752 230.497 449.5 228.975 449.5 227.494C449.5 225.753 449.777 224.101 450.33 222.538C450.9 220.976 451.803 219.584 453.04 218.363C454.293 217.126 455.929 216.142 457.947 215.409C459.965 214.677 462.431 214.27 465.345 214.188V209.794H472.156ZM465.345 220.097C463.18 220.194 461.455 220.569 460.169 221.22C458.899 221.871 457.988 222.733 457.435 223.808C456.881 224.866 456.604 226.078 456.604 227.445C456.604 228.943 456.906 230.253 457.508 231.376C458.126 232.499 459.078 233.386 460.364 234.037C461.666 234.688 463.326 235.062 465.345 235.16V220.097ZM472.156 220.097V235.16C474.191 235.062 475.851 234.688 477.137 234.037C478.423 233.386 479.367 232.499 479.969 231.376C480.587 230.253 480.896 228.943 480.896 227.445C480.896 226.078 480.62 224.866 480.066 223.808C479.513 222.733 478.593 221.871 477.308 221.22C476.038 220.569 474.321 220.194 472.156 220.097ZM505.359 218.144C509.021 218.144 511.829 218.941 513.782 220.536C515.735 222.131 516.712 224.556 516.712 227.812V246H511.512L510.071 242.289H509.876C509.095 243.266 508.297 244.063 507.483 244.682C506.67 245.3 505.734 245.756 504.676 246.049C503.618 246.342 502.332 246.488 500.818 246.488C499.207 246.488 497.758 246.179 496.473 245.561C495.203 244.942 494.202 243.998 493.47 242.729C492.737 241.443 492.371 239.815 492.371 237.846C492.371 234.949 493.388 232.816 495.423 231.449C497.457 230.066 500.509 229.301 504.578 229.154L509.314 229.008V227.812C509.314 226.379 508.94 225.329 508.191 224.662C507.443 223.995 506.401 223.661 505.066 223.661C503.748 223.661 502.454 223.848 501.185 224.223C499.915 224.597 498.646 225.069 497.376 225.639L494.91 220.609C496.359 219.844 497.978 219.242 499.769 218.803C501.575 218.363 503.439 218.144 505.359 218.144ZM509.314 233.354L506.434 233.451C504.025 233.516 502.348 233.948 501.404 234.745C500.477 235.543 500.013 236.592 500.013 237.895C500.013 239.034 500.346 239.848 501.014 240.336C501.681 240.808 502.552 241.044 503.626 241.044C505.221 241.044 506.564 240.572 507.654 239.628C508.761 238.684 509.314 237.341 509.314 235.6V233.354Z" fill="black"/>
<path d="M596.188 219.859C595.26 219.859 594.438 220.042 593.719 220.406C593.01 220.76 592.411 221.276 591.922 221.953C591.443 222.63 591.078 223.448 590.828 224.406C590.578 225.365 590.453 226.443 590.453 227.641C590.453 229.255 590.651 230.635 591.047 231.781C591.453 232.917 592.078 233.786 592.922 234.391C593.766 234.984 594.854 235.281 596.188 235.281C597.115 235.281 598.042 235.177 598.969 234.969C599.906 234.76 600.922 234.464 602.016 234.078V238.141C601.005 238.557 600.01 238.854 599.031 239.031C598.052 239.219 596.953 239.312 595.734 239.312C593.38 239.312 591.443 238.828 589.922 237.859C588.411 236.88 587.292 235.516 586.562 233.766C585.833 232.005 585.469 229.953 585.469 227.609C585.469 225.88 585.703 224.297 586.172 222.859C586.641 221.422 587.328 220.177 588.234 219.125C589.141 218.073 590.26 217.26 591.594 216.688C592.927 216.115 594.458 215.828 596.188 215.828C597.323 215.828 598.458 215.974 599.594 216.266C600.74 216.547 601.833 216.938 602.875 217.438L601.312 221.375C600.458 220.969 599.599 220.615 598.734 220.312C597.87 220.01 597.021 219.859 596.188 219.859ZM622.391 230.234C622.391 231.693 622.193 232.984 621.797 234.109C621.411 235.234 620.844 236.188 620.094 236.969C619.354 237.74 618.458 238.323 617.406 238.719C616.365 239.115 615.188 239.312 613.875 239.312C612.646 239.312 611.516 239.115 610.484 238.719C609.464 238.323 608.573 237.74 607.812 236.969C607.062 236.188 606.479 235.234 606.062 234.109C605.656 232.984 605.453 231.693 605.453 230.234C605.453 228.297 605.797 226.656 606.484 225.312C607.172 223.969 608.151 222.948 609.422 222.25C610.693 221.552 612.208 221.203 613.969 221.203C615.604 221.203 617.052 221.552 618.312 222.25C619.583 222.948 620.578 223.969 621.297 225.312C622.026 226.656 622.391 228.297 622.391 230.234ZM610.312 230.234C610.312 231.38 610.438 232.344 610.688 233.125C610.938 233.906 611.328 234.495 611.859 234.891C612.391 235.286 613.083 235.484 613.938 235.484C614.781 235.484 615.464 235.286 615.984 234.891C616.516 234.495 616.901 233.906 617.141 233.125C617.391 232.344 617.516 231.38 617.516 230.234C617.516 229.078 617.391 228.12 617.141 227.359C616.901 226.589 616.516 226.01 615.984 225.625C615.453 225.24 614.76 225.047 613.906 225.047C612.646 225.047 611.729 225.479 611.156 226.344C610.594 227.208 610.312 228.505 610.312 230.234ZM641.969 239H637.203V225.109H632.812C632.594 227.672 632.333 229.854 632.031 231.656C631.729 233.458 631.344 234.927 630.875 236.062C630.406 237.188 629.823 238.01 629.125 238.531C628.427 239.052 627.568 239.312 626.547 239.312C625.984 239.312 625.479 239.271 625.031 239.188C624.594 239.104 624.193 238.979 623.828 238.812V235C624.057 235.094 624.302 235.172 624.562 235.234C624.823 235.286 625.089 235.312 625.359 235.312C625.661 235.312 625.948 235.193 626.219 234.953C626.49 234.714 626.745 234.302 626.984 233.719C627.224 233.125 627.448 232.307 627.656 231.266C627.875 230.224 628.073 228.906 628.25 227.312C628.427 225.719 628.594 223.792 628.75 221.531H641.969V239ZM651.75 228.281H655.109C656.901 228.281 658.38 228.469 659.547 228.844C660.714 229.219 661.583 229.792 662.156 230.562C662.729 231.323 663.016 232.281 663.016 233.438C663.016 234.562 662.755 235.542 662.234 236.375C661.714 237.208 660.885 237.854 659.75 238.312C658.615 238.771 657.13 239 655.297 239H646.984V221.531H651.75V228.281ZM658.25 233.5C658.25 232.823 657.979 232.333 657.438 232.031C656.896 231.729 656.089 231.578 655.016 231.578H651.75V235.703H655.078C656.005 235.703 656.766 235.536 657.359 235.203C657.953 234.859 658.25 234.292 658.25 233.5Z" fill="black"/>
<path d="M763.167 246H755.623V216.605H746.883C746.688 218.135 746.476 219.804 746.248 221.61C746.02 223.417 745.784 225.24 745.54 227.079C745.296 228.918 745.035 230.668 744.759 232.328C744.498 233.988 744.238 235.445 743.978 236.698C743.554 238.782 742.977 240.556 742.244 242.021C741.528 243.469 740.543 244.576 739.29 245.341C738.053 246.106 736.434 246.488 734.432 246.488C733.764 246.488 733.121 246.439 732.503 246.342C731.901 246.244 731.339 246.114 730.818 245.951V239.75C731.242 239.896 731.665 240.019 732.088 240.116C732.511 240.198 732.975 240.238 733.479 240.238C734.131 240.238 734.668 240.027 735.091 239.604C735.53 239.164 735.921 238.424 736.263 237.382C736.604 236.324 736.946 234.867 737.288 233.012C737.435 232.198 737.63 231.05 737.874 229.569C738.118 228.072 738.395 226.322 738.704 224.32C739.013 222.302 739.331 220.105 739.656 217.729C739.998 215.352 740.324 212.878 740.633 210.307H763.167V246ZM775.74 246H767.684L775.032 235.209C774.104 234.818 773.234 234.281 772.42 233.598C771.606 232.898 770.947 232.019 770.442 230.961C769.938 229.903 769.686 228.633 769.686 227.152C769.686 224.434 770.711 222.351 772.762 220.902C774.829 219.438 777.49 218.705 780.745 218.705H793.44V246H785.994V235.844H781.893L775.74 246ZM776.985 227.201C776.985 228.34 777.433 229.236 778.328 229.887C779.24 230.521 780.411 230.839 781.844 230.839H785.994V223.954H780.892C779.557 223.954 778.572 224.28 777.938 224.931C777.303 225.565 776.985 226.322 776.985 227.201Z" fill="black"/>
<path d="M889.568 216.093C888.12 216.093 886.834 216.378 885.711 216.947C884.604 217.501 883.668 218.306 882.903 219.364C882.155 220.422 881.585 221.7 881.194 223.197C880.804 224.695 880.608 226.379 880.608 228.251C880.608 230.774 880.918 232.93 881.536 234.721C882.171 236.495 883.147 237.854 884.466 238.798C885.784 239.726 887.485 240.189 889.568 240.189C891.017 240.189 892.465 240.027 893.914 239.701C895.379 239.376 896.966 238.912 898.675 238.31V244.657C897.096 245.308 895.542 245.772 894.012 246.049C892.482 246.342 890.765 246.488 888.86 246.488C885.182 246.488 882.155 245.731 879.778 244.218C877.418 242.688 875.669 240.556 874.529 237.821C873.39 235.071 872.82 231.864 872.82 228.202C872.82 225.5 873.187 223.026 873.919 220.78C874.651 218.534 875.726 216.589 877.142 214.945C878.558 213.301 880.307 212.032 882.391 211.137C884.474 210.242 886.867 209.794 889.568 209.794C891.342 209.794 893.117 210.022 894.891 210.478C896.681 210.917 898.39 211.527 900.018 212.309L897.576 218.461C896.242 217.826 894.899 217.273 893.548 216.801C892.197 216.329 890.87 216.093 889.568 216.093ZM912.908 218.705V229.496C912.908 230.049 912.884 230.749 912.835 231.596C912.802 232.426 912.754 233.272 912.688 234.135C912.623 234.997 912.558 235.771 912.493 236.454C912.428 237.138 912.379 237.602 912.347 237.846L924.944 218.705H933.904V246H926.702V235.111C926.702 234.216 926.735 233.231 926.8 232.157C926.865 231.067 926.938 230.041 927.02 229.081C927.101 228.121 927.158 227.396 927.19 226.908L914.642 246H905.706V218.705H912.908Z" fill="black"/>
</svg>
