<svg width="968" height="291" viewBox="0 0 968 291" fill="none" xmlns="http://www.w3.org/2000/svg">
<circle cx="64" cy="64" r="59" fill="#AAAAAA" stroke="black" stroke-width="10"/>
<circle cx="204" cy="64" r="59" fill="#AAAAAA" stroke="black" stroke-width="10"/>
<circle cx="344" cy="64" r="59" fill="#AAAAAA" stroke="black" stroke-width="10"/>
<circle cx="484" cy="64" r="59" fill="#AAAAAA" stroke="black" stroke-width="10"/>
<circle cx="624" cy="64" r="59" fill="#AAAAAA" stroke="black" stroke-width="10"/>
<circle cx="764" cy="64" r="59" fill="#AAAAAA" stroke="black" stroke-width="10"/>
<circle cx="904" cy="64" r="59" fill="#AAAAAA" stroke="black" stroke-width="10"/>
<path d="M222.596 65.1738C222.596 69.998 221.668 74.0312 219.812 77.2734C217.977 80.4961 215.311 82.9277 211.814 84.5684C208.318 86.1895 204.109 87 199.188 87H187.059V44.168H200.506C204.998 44.168 208.895 44.9688 212.195 46.5703C215.496 48.1523 218.055 50.5059 219.871 53.6309C221.688 56.7363 222.596 60.584 222.596 65.1738ZM213.162 65.4082C213.162 62.2441 212.693 59.6465 211.756 57.6152C210.838 55.5645 209.471 54.0508 207.654 53.0742C205.857 52.0977 203.631 51.6094 200.975 51.6094H196.141V79.5H200.037C204.471 79.5 207.762 78.3184 209.91 75.9551C212.078 73.5918 213.162 70.0762 213.162 65.4082Z" fill="black"/>
<path d="M68.3281 51.1113C66.5898 51.1113 65.0469 51.4531 63.6992 52.1367C62.3711 52.8008 61.248 53.7676 60.3301 55.0371C59.4316 56.3066 58.748 57.8398 58.2793 59.6367C57.8105 61.4336 57.5762 63.4551 57.5762 65.7012C57.5762 68.7285 57.9473 71.3164 58.6895 73.4648C59.4512 75.5938 60.623 77.2246 62.2051 78.3574C63.7871 79.4707 65.8281 80.0273 68.3281 80.0273C70.0664 80.0273 71.8047 79.832 73.543 79.4414C75.3008 79.0508 77.2051 78.4941 79.2559 77.7715V85.3887C77.3613 86.1699 75.4961 86.7266 73.6602 87.0586C71.8242 87.4102 69.7637 87.5859 67.4785 87.5859C63.0645 87.5859 59.4316 86.6777 56.5801 84.8613C53.748 83.0254 51.6484 80.4668 50.2812 77.1855C48.9141 73.8848 48.2305 70.0371 48.2305 65.6426C48.2305 62.4004 48.6699 59.4316 49.5488 56.7363C50.4277 54.041 51.7168 51.707 53.416 49.7344C55.1152 47.7617 57.2148 46.2383 59.7148 45.1641C62.2148 44.0898 65.0859 43.5527 68.3281 43.5527C70.457 43.5527 72.5859 43.8262 74.7148 44.373C76.8633 44.9004 78.9141 45.6328 80.8672 46.5703L77.9375 53.9531C76.3359 53.1914 74.7246 52.5273 73.1035 51.9609C71.4824 51.3945 69.8906 51.1113 68.3281 51.1113Z" fill="black"/>
<path d="M357.117 87H332.449V44.168H357.117V51.6094H341.531V61.0137H356.033V68.4551H341.531V79.5H357.117V87Z" fill="black"/>
<path d="M481.736 87H472.801V44.168H497.352V51.6094H481.736V62.6543H496.268V70.0664H481.736V87Z" fill="black"/>
<path d="M623.787 62.9473H640.779V85.1543C638.533 85.8965 636.199 86.4922 633.777 86.9414C631.355 87.3711 628.611 87.5859 625.545 87.5859C621.287 87.5859 617.674 86.7461 614.705 85.0664C611.736 83.3867 609.48 80.9062 607.938 77.625C606.395 74.3438 605.623 70.3105 605.623 65.5254C605.623 61.0332 606.482 57.1465 608.201 53.8652C609.939 50.584 612.469 48.0449 615.789 46.248C619.129 44.4512 623.201 43.5527 628.006 43.5527C630.271 43.5527 632.508 43.7969 634.715 44.2852C636.922 44.7734 638.924 45.4082 640.721 46.1895L637.703 53.4551C636.395 52.791 634.9 52.2344 633.221 51.7852C631.541 51.3359 629.783 51.1113 627.947 51.1113C625.311 51.1113 623.016 51.7168 621.062 52.9277C619.129 54.1387 617.625 55.8379 616.551 58.0254C615.496 60.1934 614.969 62.752 614.969 65.7012C614.969 68.4941 615.35 70.9746 616.111 73.1426C616.873 75.291 618.074 76.9805 619.715 78.2109C621.355 79.4219 623.494 80.0273 626.131 80.0273C627.42 80.0273 628.504 79.9688 629.383 79.8516C630.281 79.7148 631.121 79.5781 631.902 79.4414V70.5059H623.787V62.9473Z" fill="black"/>
<path d="M774.773 87L771.668 76.8047H756.053L752.947 87H743.162L758.279 43.9922H769.383L784.559 87H774.773ZM769.5 69.1875L766.395 59.2266C766.199 58.5625 765.936 57.7129 765.604 56.6777C765.291 55.623 764.969 54.5586 764.637 53.4844C764.324 52.3906 764.07 51.4434 763.875 50.6426C763.68 51.4434 763.406 52.4395 763.055 53.6309C762.723 54.8027 762.4 55.916 762.088 56.9707C761.775 58.0254 761.551 58.7773 761.414 59.2266L758.338 69.1875H769.5Z" fill="black"/>
<path d="M889.109 44.168H902.439C908.143 44.168 912.459 44.9688 915.389 46.5703C918.318 48.1719 919.783 50.9844 919.783 55.0078C919.783 56.6289 919.52 58.0938 918.992 59.4023C918.484 60.7109 917.742 61.7852 916.766 62.625C915.789 63.4648 914.598 64.0117 913.191 64.2656V64.5586C914.617 64.8516 915.906 65.3594 917.059 66.082C918.211 66.7852 919.129 67.8203 919.812 69.1875C920.516 70.5352 920.867 72.332 920.867 74.5781C920.867 77.1758 920.232 79.4023 918.963 81.2578C917.693 83.1133 915.877 84.5391 913.514 85.5352C911.17 86.5117 908.377 87 905.135 87H889.109V44.168ZM898.191 61.1309H903.465C906.102 61.1309 907.928 60.7207 908.943 59.9004C909.959 59.0605 910.467 57.8301 910.467 56.209C910.467 54.5684 909.861 53.3965 908.65 52.6934C907.459 51.9707 905.564 51.6094 902.967 51.6094H898.191V61.1309ZM898.191 68.3379V79.5H904.109C906.844 79.5 908.748 78.9727 909.822 77.918C910.896 76.8633 911.434 75.4473 911.434 73.6699C911.434 72.6152 911.199 71.6875 910.73 70.8867C910.262 70.0859 909.471 69.4609 908.357 69.0117C907.264 68.5625 905.75 68.3379 903.816 68.3379H898.191Z" fill="black"/>
<circle cx="64" cy="227" r="59" fill="white" stroke="black" stroke-width="10"/>
<circle cx="204" cy="227" r="59" fill="white" stroke="black" stroke-width="10"/>
<circle cx="344" cy="227" r="59" fill="white" stroke="black" stroke-width="10"/>
<circle cx="484" cy="227" r="59" fill="white" stroke="black" stroke-width="10"/>
<circle cx="624" cy="227" r="59" fill="white" stroke="black" stroke-width="10"/>
<circle cx="764" cy="227" r="59" fill="white" stroke="black" stroke-width="10"/>
<circle cx="904" cy="227" r="59" fill="white" stroke="black" stroke-width="10"/>
<path d="M63.9971 227.812C63.9971 231.832 63.224 235.193 61.6777 237.895C60.1478 240.58 57.9261 242.606 55.0127 243.974C52.0993 245.325 48.5918 246 44.4902 246H34.3828V210.307H45.5889C49.3324 210.307 52.5794 210.974 55.3301 212.309C58.0807 213.627 60.2129 215.588 61.7266 218.192C63.2402 220.78 63.9971 223.987 63.9971 227.812ZM56.1357 228.007C56.1357 225.37 55.7451 223.205 54.9639 221.513C54.1989 219.804 53.0596 218.542 51.5459 217.729C50.0485 216.915 48.193 216.508 45.9795 216.508H41.9512V239.75H45.1982C48.8929 239.75 51.6354 238.765 53.4258 236.796C55.2324 234.826 56.1357 231.897 56.1357 228.007ZM95.6133 232.304C95.6133 234.582 95.304 236.601 94.6855 238.358C94.0833 240.116 93.1963 241.605 92.0244 242.826C90.8688 244.031 89.4691 244.942 87.8252 245.561C86.1976 246.179 84.3584 246.488 82.3076 246.488C80.387 246.488 78.6211 246.179 77.0098 245.561C75.4147 244.942 74.0231 244.031 72.835 242.826C71.6631 241.605 70.7516 240.116 70.1006 238.358C69.4658 236.601 69.1484 234.582 69.1484 232.304C69.1484 229.276 69.6855 226.713 70.7598 224.613C71.834 222.514 73.3639 220.919 75.3496 219.828C77.3353 218.738 79.7035 218.192 82.4541 218.192C85.0094 218.192 87.2718 218.738 89.2412 219.828C91.2269 220.919 92.7812 222.514 93.9043 224.613C95.0436 226.713 95.6133 229.276 95.6133 232.304ZM76.7412 232.304C76.7412 234.094 76.9365 235.6 77.3271 236.82C77.7178 238.041 78.3281 238.961 79.1582 239.579C79.9883 240.198 81.0706 240.507 82.4053 240.507C83.7236 240.507 84.7897 240.198 85.6035 239.579C86.4336 238.961 87.0358 238.041 87.4102 236.82C87.8008 235.6 87.9961 234.094 87.9961 232.304C87.9961 230.497 87.8008 229 87.4102 227.812C87.0358 226.607 86.4336 225.704 85.6035 225.102C84.7734 224.499 83.6911 224.198 82.3564 224.198C80.387 224.198 78.9548 224.874 78.0596 226.225C77.1807 227.576 76.7412 229.602 76.7412 232.304Z" fill="black"/>
<path d="M187.493 210.307C190.732 210.307 193.401 210.697 195.501 211.479C197.617 212.26 199.188 213.44 200.213 215.019C201.238 216.597 201.751 218.591 201.751 221C201.751 222.628 201.442 224.052 200.823 225.272C200.205 226.493 199.391 227.527 198.382 228.373C197.373 229.219 196.282 229.911 195.11 230.448L205.608 246H197.21L188.689 232.304H184.661V246H177.093V210.307H187.493ZM186.956 216.508H184.661V226.151H187.103C189.609 226.151 191.399 225.736 192.474 224.906C193.564 224.06 194.109 222.823 194.109 221.195C194.109 219.503 193.523 218.298 192.352 217.582C191.196 216.866 189.397 216.508 186.956 216.508ZM220.77 218.192C223.292 218.192 225.465 218.681 227.288 219.657C229.111 220.618 230.519 222.017 231.512 223.856C232.505 225.696 233.001 227.942 233.001 230.595V234.208H215.398C215.48 236.308 216.106 237.96 217.278 239.164C218.466 240.352 220.11 240.946 222.21 240.946C223.951 240.946 225.547 240.767 226.995 240.409C228.444 240.051 229.933 239.514 231.463 238.798V244.56C230.112 245.227 228.696 245.715 227.215 246.024C225.75 246.334 223.968 246.488 221.868 246.488C219.134 246.488 216.709 245.984 214.593 244.975C212.493 243.965 210.841 242.427 209.637 240.36C208.449 238.293 207.854 235.689 207.854 232.548C207.854 229.358 208.392 226.705 209.466 224.589C210.556 222.457 212.07 220.862 214.007 219.804C215.944 218.729 218.198 218.192 220.77 218.192ZM220.818 223.49C219.37 223.49 218.165 223.954 217.205 224.882C216.261 225.81 215.716 227.266 215.569 229.252H226.019C226.002 228.145 225.799 227.16 225.408 226.298C225.034 225.435 224.464 224.752 223.699 224.247C222.951 223.743 221.99 223.49 220.818 223.49Z" fill="black"/>
<path d="M332.254 246L323.66 217.997H323.44C323.473 218.664 323.522 219.674 323.587 221.024C323.668 222.359 323.742 223.783 323.807 225.297C323.872 226.811 323.904 228.178 323.904 229.398V246H317.142V210.307H327.444L335.892 237.602H336.038L344.998 210.307H355.301V246H348.245V229.105C348.245 227.982 348.261 226.688 348.294 225.224C348.343 223.759 348.4 222.367 348.465 221.049C348.53 219.714 348.579 218.713 348.611 218.046H348.392L339.188 246H332.254ZM371.17 218.705V246H363.724V218.705H371.17ZM367.459 208.012C368.566 208.012 369.518 208.272 370.315 208.793C371.113 209.298 371.512 210.25 371.512 211.649C371.512 213.033 371.113 213.993 370.315 214.53C369.518 215.051 368.566 215.312 367.459 215.312C366.336 215.312 365.376 215.051 364.578 214.53C363.797 213.993 363.406 213.033 363.406 211.649C363.406 210.25 363.797 209.298 364.578 208.793C365.376 208.272 366.336 208.012 367.459 208.012Z" fill="black"/>
<path d="M466.98 246H459.534V210.307H479.993V216.508H466.98V225.712H479.09V231.889H466.98V246ZM497.571 218.144C501.233 218.144 504.041 218.941 505.994 220.536C507.947 222.131 508.924 224.556 508.924 227.812V246H503.724L502.283 242.289H502.088C501.307 243.266 500.509 244.063 499.695 244.682C498.882 245.3 497.946 245.756 496.888 246.049C495.83 246.342 494.544 246.488 493.03 246.488C491.419 246.488 489.97 246.179 488.685 245.561C487.415 244.942 486.414 243.998 485.682 242.729C484.949 241.443 484.583 239.815 484.583 237.846C484.583 234.949 485.6 232.816 487.635 231.449C489.669 230.066 492.721 229.301 496.79 229.154L501.526 229.008V227.812C501.526 226.379 501.152 225.329 500.403 224.662C499.655 223.995 498.613 223.661 497.278 223.661C495.96 223.661 494.666 223.848 493.396 224.223C492.127 224.597 490.857 225.069 489.588 225.639L487.122 220.609C488.571 219.844 490.19 219.242 491.98 218.803C493.787 218.363 495.651 218.144 497.571 218.144ZM501.526 233.354L498.646 233.451C496.237 233.516 494.56 233.948 493.616 234.745C492.688 235.543 492.225 236.592 492.225 237.895C492.225 239.034 492.558 239.848 493.226 240.336C493.893 240.808 494.764 241.044 495.838 241.044C497.433 241.044 498.776 240.572 499.866 239.628C500.973 238.684 501.526 237.341 501.526 235.6V233.354Z" fill="black"/>
<path d="M612.547 236.088C612.547 238.204 612.034 240.043 611.009 241.605C609.983 243.168 608.486 244.372 606.517 245.219C604.563 246.065 602.187 246.488 599.388 246.488C598.151 246.488 596.938 246.407 595.75 246.244C594.578 246.081 593.447 245.845 592.356 245.536C591.282 245.211 590.257 244.812 589.28 244.34V237.309C590.973 238.057 592.731 238.733 594.554 239.335C596.377 239.937 598.183 240.238 599.974 240.238C601.211 240.238 602.203 240.076 602.952 239.75C603.717 239.424 604.271 238.977 604.612 238.407C604.954 237.838 605.125 237.187 605.125 236.454C605.125 235.559 604.824 234.794 604.222 234.159C603.619 233.524 602.789 232.93 601.731 232.377C600.69 231.824 599.51 231.229 598.191 230.595C597.361 230.204 596.458 229.732 595.481 229.179C594.505 228.609 593.577 227.917 592.698 227.104C591.819 226.29 591.095 225.305 590.525 224.149C589.972 222.978 589.695 221.578 589.695 219.95C589.695 217.818 590.184 215.995 591.16 214.481C592.137 212.968 593.528 211.812 595.335 211.015C597.158 210.201 599.306 209.794 601.78 209.794C603.636 209.794 605.402 210.014 607.078 210.453C608.771 210.876 610.537 211.495 612.376 212.309L609.935 218.192C608.291 217.525 606.818 217.012 605.516 216.654C604.214 216.28 602.887 216.093 601.536 216.093C600.592 216.093 599.786 216.247 599.119 216.557C598.452 216.85 597.947 217.273 597.605 217.826C597.264 218.363 597.093 218.99 597.093 219.706C597.093 220.552 597.337 221.269 597.825 221.854C598.33 222.424 599.078 222.978 600.071 223.515C601.08 224.052 602.334 224.678 603.831 225.395C605.654 226.257 607.208 227.16 608.494 228.104C609.796 229.032 610.797 230.131 611.497 231.4C612.197 232.654 612.547 234.216 612.547 236.088ZM643.235 232.304C643.235 234.582 642.926 236.601 642.308 238.358C641.705 240.116 640.818 241.605 639.646 242.826C638.491 244.031 637.091 244.942 635.447 245.561C633.82 246.179 631.98 246.488 629.93 246.488C628.009 246.488 626.243 246.179 624.632 245.561C623.037 244.942 621.645 244.031 620.457 242.826C619.285 241.605 618.374 240.116 617.723 238.358C617.088 236.601 616.771 234.582 616.771 232.304C616.771 229.276 617.308 226.713 618.382 224.613C619.456 222.514 620.986 220.919 622.972 219.828C624.957 218.738 627.326 218.192 630.076 218.192C632.632 218.192 634.894 218.738 636.863 219.828C638.849 220.919 640.403 222.514 641.526 224.613C642.666 226.713 643.235 229.276 643.235 232.304ZM624.363 232.304C624.363 234.094 624.559 235.6 624.949 236.82C625.34 238.041 625.95 238.961 626.78 239.579C627.61 240.198 628.693 240.507 630.027 240.507C631.346 240.507 632.412 240.198 633.226 239.579C634.056 238.961 634.658 238.041 635.032 236.82C635.423 235.6 635.618 234.094 635.618 232.304C635.618 230.497 635.423 229 635.032 227.812C634.658 226.607 634.056 225.704 633.226 225.102C632.396 224.499 631.313 224.198 629.979 224.198C628.009 224.198 626.577 224.874 625.682 226.225C624.803 227.576 624.363 229.602 624.363 232.304ZM656.834 246H649.388V208.012H656.834V246Z" fill="black"/>
<path d="M739.119 246V210.307H746.688V239.75H761.165V246H739.119ZM777.986 218.144C781.648 218.144 784.456 218.941 786.409 220.536C788.362 222.131 789.339 224.556 789.339 227.812V246H784.139L782.698 242.289H782.503C781.722 243.266 780.924 244.063 780.11 244.682C779.297 245.3 778.361 245.756 777.303 246.049C776.245 246.342 774.959 246.488 773.445 246.488C771.834 246.488 770.385 246.179 769.1 245.561C767.83 244.942 766.829 243.998 766.097 242.729C765.364 241.443 764.998 239.815 764.998 237.846C764.998 234.949 766.015 232.816 768.05 231.449C770.084 230.066 773.136 229.301 777.205 229.154L781.941 229.008V227.812C781.941 226.379 781.567 225.329 780.818 224.662C780.07 223.995 779.028 223.661 777.693 223.661C776.375 223.661 775.081 223.848 773.812 224.223C772.542 224.597 771.272 225.069 770.003 225.639L767.537 220.609C768.986 219.844 770.605 219.242 772.396 218.803C774.202 218.363 776.066 218.144 777.986 218.144ZM781.941 233.354L779.061 233.451C776.652 233.516 774.975 233.948 774.031 234.745C773.104 235.543 772.64 236.592 772.64 237.895C772.64 239.034 772.973 239.848 773.641 240.336C774.308 240.808 775.179 241.044 776.253 241.044C777.848 241.044 779.191 240.572 780.281 239.628C781.388 238.684 781.941 237.341 781.941 235.6V233.354Z" fill="black"/>
<path d="M908.025 236.088C908.025 238.204 907.513 240.043 906.487 241.605C905.462 243.168 903.965 244.372 901.995 245.219C900.042 246.065 897.666 246.488 894.866 246.488C893.629 246.488 892.417 246.407 891.229 246.244C890.057 246.081 888.925 245.845 887.835 245.536C886.761 245.211 885.735 244.812 884.759 244.34V237.309C886.451 238.057 888.209 238.733 890.032 239.335C891.855 239.937 893.662 240.238 895.452 240.238C896.689 240.238 897.682 240.076 898.431 239.75C899.196 239.424 899.749 238.977 900.091 238.407C900.433 237.838 900.604 237.187 900.604 236.454C900.604 235.559 900.302 234.794 899.7 234.159C899.098 233.524 898.268 232.93 897.21 232.377C896.168 231.824 894.988 231.229 893.67 230.595C892.84 230.204 891.937 229.732 890.96 229.179C889.983 228.609 889.056 227.917 888.177 227.104C887.298 226.29 886.574 225.305 886.004 224.149C885.451 222.978 885.174 221.578 885.174 219.95C885.174 217.818 885.662 215.995 886.639 214.481C887.615 212.968 889.007 211.812 890.813 211.015C892.636 210.201 894.785 209.794 897.259 209.794C899.114 209.794 900.88 210.014 902.557 210.453C904.249 210.876 906.015 211.495 907.854 212.309L905.413 218.192C903.769 217.525 902.296 217.012 900.994 216.654C899.692 216.28 898.366 216.093 897.015 216.093C896.071 216.093 895.265 216.247 894.598 216.557C893.93 216.85 893.426 217.273 893.084 217.826C892.742 218.363 892.571 218.99 892.571 219.706C892.571 220.552 892.815 221.269 893.304 221.854C893.808 222.424 894.557 222.978 895.55 223.515C896.559 224.052 897.812 224.678 899.31 225.395C901.132 226.257 902.687 227.16 903.973 228.104C905.275 229.032 906.276 230.131 906.976 231.4C907.675 232.654 908.025 234.216 908.025 236.088ZM921.355 218.705V246H913.909V218.705H921.355ZM917.645 208.012C918.751 208.012 919.703 208.272 920.501 208.793C921.299 209.298 921.697 210.25 921.697 211.649C921.697 213.033 921.299 213.993 920.501 214.53C919.703 215.051 918.751 215.312 917.645 215.312C916.521 215.312 915.561 215.051 914.764 214.53C913.982 213.993 913.592 213.033 913.592 211.649C913.592 210.25 913.982 209.298 914.764 208.793C915.561 208.272 916.521 208.012 917.645 208.012Z" fill="black"/>
</svg>
