<svg width="12" height="895" viewBox="0 0 12 895" fill="none" xmlns="http://www.w3.org/2000/svg">
<g filter="url(#filter0_d_5_7)">
<path d="M5.86328 9H4.79297V5.66406C4.79297 5.54427 4.79297 5.42708 4.79297 5.3125C4.79557 5.19531 4.79818 5.08073 4.80078 4.96875C4.80599 4.85417 4.8112 4.74219 4.81641 4.63281C4.77995 4.68229 4.73698 4.73828 4.6875 4.80078C4.63802 4.86328 4.57943 4.93229 4.51172 5.00781L4.01562 5.51953L3.375 4.88672L4.91016 3.28906H5.86328V9Z" fill="white"/>
<path d="M6.34375 47H3.23047V46.2227L4.32812 44.6953C4.5625 44.3698 4.74089 44.1003 4.86328 43.8867C4.98568 43.6706 5.06771 43.4805 5.10938 43.3164C5.15365 43.1497 5.17578 42.9805 5.17578 42.8086C5.17578 42.6081 5.1276 42.4492 5.03125 42.332C4.9375 42.2122 4.79688 42.1523 4.60938 42.1523C4.46094 42.1523 4.32031 42.1914 4.1875 42.2695C4.05469 42.3477 3.90625 42.487 3.74219 42.6875L3.21484 41.9766C3.3737 41.7891 3.52995 41.6393 3.68359 41.5273C3.83984 41.4128 4.00391 41.3307 4.17578 41.2812C4.34766 41.2318 4.53385 41.207 4.73438 41.207C5.03646 41.207 5.30208 41.2721 5.53125 41.4023C5.76042 41.5299 5.9388 41.7083 6.06641 41.9375C6.19401 42.1667 6.25781 42.4349 6.25781 42.7422C6.25781 42.9948 6.22786 43.2357 6.16797 43.4648C6.10807 43.6914 6.00651 43.9284 5.86328 44.1758C5.72005 44.4232 5.52344 44.7031 5.27344 45.0156L4.51172 46.0156V46.0547H6.34375V47Z" fill="white"/>
<path d="M6.28906 80.6562C6.28906 80.862 6.2526 81.0521 6.17969 81.2266C6.10677 81.401 5.9974 81.5547 5.85156 81.6875C5.70833 81.8177 5.53125 81.9219 5.32031 82V82.0234C5.67708 82.099 5.94531 82.2526 6.125 82.4844C6.30729 82.7161 6.39844 83.0182 6.39844 83.3906C6.39844 83.7344 6.32552 84.0326 6.17969 84.2852C6.03646 84.5378 5.82943 84.7331 5.55859 84.8711C5.28776 85.0091 4.96354 85.0781 4.58594 85.0781C4.33854 85.0781 4.11328 85.0586 3.91016 85.0195C3.70703 84.9831 3.49219 84.9128 3.26562 84.8086V83.8008C3.46094 83.9154 3.65755 84.0026 3.85547 84.0625C4.05339 84.1224 4.24349 84.1523 4.42578 84.1523C4.71745 84.1523 4.93099 84.082 5.06641 83.9414C5.20443 83.7982 5.27344 83.599 5.27344 83.3438C5.27344 83.1536 5.23568 82.9987 5.16016 82.8789C5.08724 82.7565 4.97266 82.6667 4.81641 82.6094C4.66016 82.5495 4.45703 82.5195 4.20703 82.5195H3.92188V81.6172H4.21484C4.4362 81.6172 4.6224 81.5846 4.77344 81.5195C4.92448 81.4518 5.03776 81.3555 5.11328 81.2305C5.19141 81.1029 5.23047 80.9518 5.23047 80.7773C5.23047 80.569 5.17578 80.4102 5.06641 80.3008C4.95964 80.1914 4.80208 80.1367 4.59375 80.1367C4.48958 80.1367 4.38802 80.151 4.28906 80.1797C4.1901 80.2083 4.09115 80.2513 3.99219 80.3086C3.89323 80.3633 3.79167 80.4336 3.6875 80.5195L3.26562 79.7344C3.5 79.5417 3.73698 79.4062 3.97656 79.3281C4.21875 79.2474 4.49349 79.207 4.80078 79.207C5.25911 79.207 5.62109 79.332 5.88672 79.582C6.15495 79.8294 6.28906 80.1875 6.28906 80.6562Z" fill="white"/>
<path d="M6.65625 122.84H6.07812V124H5.02344V122.84H3.13672V121.977L5.01562 118.273H6.07812V121.953H6.65625V122.84ZM5.01562 121.953V120.633C5.01562 120.594 5.01562 120.533 5.01562 120.449C5.01823 120.363 5.02083 120.273 5.02344 120.18C5.02604 120.083 5.02865 119.997 5.03125 119.922C5.03385 119.846 5.03646 119.796 5.03906 119.77H5.00781C4.97396 119.884 4.9362 119.992 4.89453 120.094C4.85286 120.195 4.80859 120.292 4.76172 120.383L4.00781 121.953H5.01562Z" fill="white"/>
<path d="M5.01562 158.344C5.29167 158.344 5.53255 158.419 5.73828 158.57C5.94661 158.719 6.10807 158.927 6.22266 159.195C6.33984 159.461 6.39844 159.77 6.39844 160.121C6.39844 160.53 6.33073 160.882 6.19531 161.176C6.0599 161.467 5.85677 161.691 5.58594 161.848C5.3151 162.001 4.97526 162.078 4.56641 162.078C4.33203 162.078 4.11719 162.056 3.92188 162.012C3.72917 161.967 3.55208 161.9 3.39062 161.809V160.809C3.5599 160.908 3.74089 160.99 3.93359 161.055C4.12891 161.12 4.31641 161.152 4.49609 161.152C4.67578 161.152 4.82552 161.111 4.94531 161.027C5.0651 160.944 5.15495 160.828 5.21484 160.68C5.27474 160.531 5.30469 160.358 5.30469 160.16C5.30469 159.866 5.23438 159.642 5.09375 159.488C4.95573 159.335 4.7513 159.258 4.48047 159.258C4.3763 159.258 4.26823 159.27 4.15625 159.293C4.04427 159.314 3.93099 159.346 3.81641 159.391L3.45703 159.121L3.625 156.289H6.10547V157.238H4.52734L4.44922 158.414C4.5638 158.385 4.66797 158.367 4.76172 158.359C4.85547 158.349 4.9401 158.344 5.01562 158.344Z" fill="white"/>
<path d="M3.29688 197.574C3.29688 197.199 3.31771 196.844 3.35938 196.508C3.40365 196.169 3.47526 195.861 3.57422 195.582C3.67318 195.301 3.80599 195.057 3.97266 194.852C4.13932 194.646 4.34505 194.487 4.58984 194.375C4.83464 194.263 5.1263 194.207 5.46484 194.207C5.59245 194.207 5.71745 194.214 5.83984 194.227C5.96484 194.237 6.08464 194.255 6.19922 194.281V195.199C6.10026 195.176 5.99609 195.158 5.88672 195.145C5.77995 195.129 5.66797 195.121 5.55078 195.121C5.28516 195.121 5.0625 195.186 4.88281 195.316C4.70312 195.444 4.5651 195.641 4.46875 195.906C4.3724 196.172 4.31771 196.51 4.30469 196.922H4.33594C4.39583 196.779 4.46875 196.659 4.55469 196.562C4.64062 196.466 4.73958 196.393 4.85156 196.344C4.96615 196.292 5.09245 196.266 5.23047 196.266C5.4987 196.266 5.72526 196.342 5.91016 196.496C6.09505 196.65 6.23568 196.865 6.33203 197.141C6.43099 197.414 6.48047 197.736 6.48047 198.105C6.48047 198.496 6.42057 198.84 6.30078 199.137C6.18099 199.434 6.00651 199.665 5.77734 199.832C5.54818 199.996 5.26823 200.078 4.9375 200.078C4.67969 200.078 4.44922 200.022 4.24609 199.91C4.04297 199.798 3.86979 199.635 3.72656 199.422C3.58594 199.206 3.47917 198.943 3.40625 198.633C3.33333 198.323 3.29688 197.97 3.29688 197.574ZM4.91016 199.145C5.0638 199.145 5.1849 199.061 5.27344 198.895C5.36198 198.728 5.40625 198.473 5.40625 198.129C5.40625 197.816 5.36589 197.581 5.28516 197.422C5.20443 197.263 5.08333 197.184 4.92188 197.184C4.8099 197.184 4.71354 197.22 4.63281 197.293C4.55208 197.363 4.48958 197.458 4.44531 197.578C4.40365 197.698 4.38281 197.831 4.38281 197.977C4.38281 198.122 4.39323 198.264 4.41406 198.402C4.4349 198.54 4.46745 198.665 4.51172 198.777C4.55599 198.889 4.61068 198.979 4.67578 199.047C4.74349 199.112 4.82161 199.145 4.91016 199.145Z" fill="white"/>
<path d="M3.69531 238L5.36719 233.238H3.27344V232.289H6.46484V233.031L4.83203 238H3.69531Z" fill="white"/>
<path d="M4.87891 271.207C5.19401 271.207 5.46094 271.262 5.67969 271.371C5.90104 271.48 6.06901 271.637 6.18359 271.84C6.30078 272.043 6.35938 272.288 6.35938 272.574C6.35938 272.78 6.32943 272.97 6.26953 273.145C6.21224 273.316 6.1224 273.474 6 273.617C5.88021 273.758 5.72526 273.885 5.53516 274C5.75391 274.151 5.93359 274.303 6.07422 274.457C6.21745 274.611 6.32292 274.773 6.39062 274.945C6.46094 275.117 6.49609 275.306 6.49609 275.512C6.49609 275.835 6.43099 276.113 6.30078 276.348C6.17057 276.582 5.98438 276.763 5.74219 276.891C5.5 277.016 5.21224 277.078 4.87891 277.078C4.52995 277.078 4.23307 277.017 3.98828 276.895C3.74609 276.772 3.5612 276.596 3.43359 276.367C3.30859 276.135 3.24609 275.858 3.24609 275.535C3.24609 275.324 3.27734 275.129 3.33984 274.949C3.40234 274.767 3.4987 274.599 3.62891 274.445C3.76172 274.289 3.93099 274.146 4.13672 274.016C3.96745 273.88 3.82682 273.737 3.71484 273.586C3.60547 273.435 3.52344 273.276 3.46875 273.109C3.41667 272.94 3.39062 272.762 3.39062 272.574C3.39062 272.288 3.45052 272.043 3.57031 271.84C3.69271 271.637 3.86458 271.48 4.08594 271.371C4.3099 271.262 4.57422 271.207 4.87891 271.207ZM4.28125 275.52C4.28125 275.728 4.33073 275.896 4.42969 276.023C4.52865 276.151 4.67318 276.215 4.86328 276.215C5.06901 276.215 5.22135 276.154 5.32031 276.031C5.42188 275.906 5.47266 275.736 5.47266 275.52C5.47266 275.418 5.45703 275.319 5.42578 275.223C5.39453 275.124 5.34115 275.026 5.26562 274.93C5.1901 274.831 5.08594 274.729 4.95312 274.625L4.83984 274.535C4.70443 274.634 4.59505 274.734 4.51172 274.836C4.43099 274.935 4.3724 275.04 4.33594 275.152C4.29948 275.264 4.28125 275.387 4.28125 275.52ZM4.87891 272.07C4.74089 272.07 4.62891 272.124 4.54297 272.23C4.45703 272.335 4.41406 272.477 4.41406 272.656C4.41406 272.768 4.43099 272.871 4.46484 272.965C4.4987 273.059 4.54948 273.147 4.61719 273.23C4.6849 273.314 4.76953 273.395 4.87109 273.473C4.99089 273.384 5.08594 273.298 5.15625 273.215C5.22656 273.129 5.27604 273.042 5.30469 272.953C5.33594 272.862 5.35156 272.763 5.35156 272.656C5.35156 272.477 5.30729 272.335 5.21875 272.23C5.13281 272.124 5.01953 272.07 4.87891 272.07Z" fill="white"/>
<path d="M6.44922 311.68C6.44922 312.068 6.42448 312.434 6.375 312.777C6.32812 313.121 6.2526 313.434 6.14844 313.715C6.04427 313.996 5.90755 314.238 5.73828 314.441C5.56901 314.645 5.36328 314.802 5.12109 314.914C4.87891 315.023 4.59635 315.078 4.27344 315.078C4.14844 315.078 4.02083 315.07 3.89062 315.055C3.76302 315.042 3.64453 315.023 3.53516 315V314.078C3.63151 314.107 3.73438 314.129 3.84375 314.145C3.95573 314.16 4.06901 314.168 4.18359 314.168C4.47005 314.168 4.70312 314.095 4.88281 313.949C5.0651 313.801 5.20182 313.592 5.29297 313.324C5.38411 313.053 5.4362 312.734 5.44922 312.367H5.40625C5.34635 312.508 5.27214 312.628 5.18359 312.727C5.09766 312.823 4.9987 312.897 4.88672 312.949C4.77474 312.999 4.64974 313.023 4.51172 313.023C4.24089 313.023 4.01172 312.947 3.82422 312.793C3.63932 312.639 3.5 312.424 3.40625 312.148C3.3125 311.87 3.26562 311.548 3.26562 311.184C3.26562 310.79 3.32552 310.447 3.44531 310.152C3.5651 309.855 3.74089 309.624 3.97266 309.457C4.20443 309.29 4.48828 309.207 4.82422 309.207C5.07943 309.207 5.30729 309.263 5.50781 309.375C5.71094 309.484 5.88151 309.646 6.01953 309.859C6.16016 310.073 6.26693 310.332 6.33984 310.637C6.41276 310.941 6.44922 311.289 6.44922 311.68ZM4.83203 310.145C4.68359 310.145 4.5625 310.228 4.46875 310.395C4.375 310.561 4.32812 310.816 4.32812 311.16C4.32812 311.473 4.36979 311.708 4.45312 311.867C4.53646 312.026 4.66016 312.105 4.82422 312.105C4.95182 312.105 5.05469 312.062 5.13281 311.977C5.21094 311.891 5.26823 311.785 5.30469 311.66C5.34115 311.533 5.35938 311.409 5.35938 311.289C5.35938 311.198 5.35286 311.089 5.33984 310.961C5.32682 310.831 5.30208 310.704 5.26562 310.582C5.22917 310.457 5.17578 310.353 5.10547 310.27C5.03776 310.186 4.94661 310.145 4.83203 310.145Z" fill="white"/>
<path d="M2.86328 353H1.79297V349.664C1.79297 349.544 1.79297 349.427 1.79297 349.312C1.79557 349.195 1.79818 349.081 1.80078 348.969C1.80599 348.854 1.8112 348.742 1.81641 348.633C1.77995 348.682 1.73698 348.738 1.6875 348.801C1.63802 348.863 1.57943 348.932 1.51172 349.008L1.01562 349.52L0.375 348.887L1.91016 347.289H2.86328V353ZM7.20703 350.145C7.20703 350.577 7.18099 350.973 7.12891 351.332C7.07943 351.689 6.99479 351.999 6.875 352.262C6.75521 352.522 6.59375 352.724 6.39062 352.867C6.1875 353.008 5.93359 353.078 5.62891 353.078C5.28516 353.078 4.99609 352.978 4.76172 352.777C4.52995 352.577 4.35417 352.262 4.23438 351.832C4.11458 351.4 4.05469 350.837 4.05469 350.145C4.05469 349.475 4.11198 348.924 4.22656 348.492C4.34115 348.057 4.51432 347.734 4.74609 347.523C4.98047 347.312 5.27474 347.207 5.62891 347.207C5.98047 347.207 6.27214 347.316 6.50391 347.535C6.73828 347.754 6.91406 348.081 7.03125 348.516C7.14844 348.951 7.20703 349.493 7.20703 350.145ZM5.13281 350.145C5.13281 350.598 5.14714 350.971 5.17578 351.266C5.20703 351.557 5.25781 351.775 5.32812 351.918C5.40104 352.059 5.5013 352.129 5.62891 352.129C5.75911 352.129 5.85938 352.059 5.92969 351.918C6.0026 351.775 6.05339 351.557 6.08203 351.266C6.11068 350.971 6.125 350.598 6.125 350.145C6.125 349.704 6.11068 349.337 6.08203 349.043C6.05339 348.749 6.0026 348.529 5.92969 348.383C5.85938 348.234 5.75911 348.16 5.62891 348.16C5.50391 348.16 5.40495 348.233 5.33203 348.379C5.25911 348.525 5.20703 348.745 5.17578 349.039C5.14714 349.333 5.13281 349.702 5.13281 350.145Z" fill="white"/>
<path d="M2.86328 391H1.79297V387.664C1.79297 387.544 1.79297 387.427 1.79297 387.312C1.79557 387.195 1.79818 387.081 1.80078 386.969C1.80599 386.854 1.8112 386.742 1.81641 386.633C1.77995 386.682 1.73698 386.738 1.6875 386.801C1.63802 386.863 1.57943 386.932 1.51172 387.008L1.01562 387.52L0.375 386.887L1.91016 385.289H2.86328V391ZM6.62109 391H5.55078V387.664C5.55078 387.544 5.55078 387.427 5.55078 387.312C5.55339 387.195 5.55599 387.081 5.55859 386.969C5.5638 386.854 5.56901 386.742 5.57422 386.633C5.53776 386.682 5.49479 386.738 5.44531 386.801C5.39583 386.863 5.33724 386.932 5.26953 387.008L4.77344 387.52L4.13281 386.887L5.66797 385.289H6.62109V391Z" fill="white"/>
<path d="M2.86328 429H1.79297V425.664C1.79297 425.544 1.79297 425.427 1.79297 425.312C1.79557 425.195 1.79818 425.081 1.80078 424.969C1.80599 424.854 1.8112 424.742 1.81641 424.633C1.77995 424.682 1.73698 424.738 1.6875 424.801C1.63802 424.863 1.57943 424.932 1.51172 425.008L1.01562 425.52L0.375 424.887L1.91016 423.289H2.86328V429ZM7.10156 429H3.98828V428.223L5.08594 426.695C5.32031 426.37 5.4987 426.1 5.62109 425.887C5.74349 425.671 5.82552 425.48 5.86719 425.316C5.91146 425.15 5.93359 424.98 5.93359 424.809C5.93359 424.608 5.88542 424.449 5.78906 424.332C5.69531 424.212 5.55469 424.152 5.36719 424.152C5.21875 424.152 5.07812 424.191 4.94531 424.27C4.8125 424.348 4.66406 424.487 4.5 424.688L3.97266 423.977C4.13151 423.789 4.28776 423.639 4.44141 423.527C4.59766 423.413 4.76172 423.331 4.93359 423.281C5.10547 423.232 5.29167 423.207 5.49219 423.207C5.79427 423.207 6.0599 423.272 6.28906 423.402C6.51823 423.53 6.69661 423.708 6.82422 423.938C6.95182 424.167 7.01562 424.435 7.01562 424.742C7.01562 424.995 6.98568 425.236 6.92578 425.465C6.86589 425.691 6.76432 425.928 6.62109 426.176C6.47786 426.423 6.28125 426.703 6.03125 427.016L5.26953 428.016V428.055H7.10156V429Z" fill="white"/>
<path d="M2.86328 467H1.79297V463.664C1.79297 463.544 1.79297 463.427 1.79297 463.312C1.79557 463.195 1.79818 463.081 1.80078 462.969C1.80599 462.854 1.8112 462.742 1.81641 462.633C1.77995 462.682 1.73698 462.738 1.6875 462.801C1.63802 462.863 1.57943 462.932 1.51172 463.008L1.01562 463.52L0.375 462.887L1.91016 461.289H2.86328V467ZM7.04688 462.656C7.04688 462.862 7.01042 463.052 6.9375 463.227C6.86458 463.401 6.75521 463.555 6.60938 463.688C6.46615 463.818 6.28906 463.922 6.07812 464V464.023C6.4349 464.099 6.70312 464.253 6.88281 464.484C7.0651 464.716 7.15625 465.018 7.15625 465.391C7.15625 465.734 7.08333 466.033 6.9375 466.285C6.79427 466.538 6.58724 466.733 6.31641 466.871C6.04557 467.009 5.72135 467.078 5.34375 467.078C5.09635 467.078 4.87109 467.059 4.66797 467.02C4.46484 466.983 4.25 466.913 4.02344 466.809V465.801C4.21875 465.915 4.41536 466.003 4.61328 466.062C4.8112 466.122 5.0013 466.152 5.18359 466.152C5.47526 466.152 5.6888 466.082 5.82422 465.941C5.96224 465.798 6.03125 465.599 6.03125 465.344C6.03125 465.154 5.99349 464.999 5.91797 464.879C5.84505 464.757 5.73047 464.667 5.57422 464.609C5.41797 464.549 5.21484 464.52 4.96484 464.52H4.67969V463.617H4.97266C5.19401 463.617 5.38021 463.585 5.53125 463.52C5.68229 463.452 5.79557 463.355 5.87109 463.23C5.94922 463.103 5.98828 462.952 5.98828 462.777C5.98828 462.569 5.93359 462.41 5.82422 462.301C5.71745 462.191 5.5599 462.137 5.35156 462.137C5.2474 462.137 5.14583 462.151 5.04688 462.18C4.94792 462.208 4.84896 462.251 4.75 462.309C4.65104 462.363 4.54948 462.434 4.44531 462.52L4.02344 461.734C4.25781 461.542 4.49479 461.406 4.73438 461.328C4.97656 461.247 5.2513 461.207 5.55859 461.207C6.01693 461.207 6.37891 461.332 6.64453 461.582C6.91276 461.829 7.04688 462.188 7.04688 462.656Z" fill="white"/>
<path d="M2.86328 505H1.79297V501.664C1.79297 501.544 1.79297 501.427 1.79297 501.312C1.79557 501.195 1.79818 501.081 1.80078 500.969C1.80599 500.854 1.8112 500.742 1.81641 500.633C1.77995 500.682 1.73698 500.738 1.6875 500.801C1.63802 500.863 1.57943 500.932 1.51172 501.008L1.01562 501.52L0.375 500.887L1.91016 499.289H2.86328V505ZM7.41406 503.84H6.83594V505H5.78125V503.84H3.89453V502.977L5.77344 499.273H6.83594V502.953H7.41406V503.84ZM5.77344 502.953V501.633C5.77344 501.594 5.77344 501.533 5.77344 501.449C5.77604 501.363 5.77865 501.273 5.78125 501.18C5.78385 501.083 5.78646 500.997 5.78906 500.922C5.79167 500.846 5.79427 500.796 5.79688 500.77H5.76562C5.73177 500.884 5.69401 500.992 5.65234 501.094C5.61068 501.195 5.56641 501.292 5.51953 501.383L4.76562 502.953H5.77344Z" fill="white"/>
<path d="M2.86328 543H1.79297V539.664C1.79297 539.544 1.79297 539.427 1.79297 539.312C1.79557 539.195 1.79818 539.081 1.80078 538.969C1.80599 538.854 1.8112 538.742 1.81641 538.633C1.77995 538.682 1.73698 538.738 1.6875 538.801C1.63802 538.863 1.57943 538.932 1.51172 539.008L1.01562 539.52L0.375 538.887L1.91016 537.289H2.86328V543ZM5.77344 539.344C6.04948 539.344 6.29036 539.419 6.49609 539.57C6.70443 539.719 6.86589 539.927 6.98047 540.195C7.09766 540.461 7.15625 540.77 7.15625 541.121C7.15625 541.53 7.08854 541.882 6.95312 542.176C6.81771 542.467 6.61458 542.691 6.34375 542.848C6.07292 543.001 5.73307 543.078 5.32422 543.078C5.08984 543.078 4.875 543.056 4.67969 543.012C4.48698 542.967 4.3099 542.9 4.14844 542.809V541.809C4.31771 541.908 4.4987 541.99 4.69141 542.055C4.88672 542.12 5.07422 542.152 5.25391 542.152C5.43359 542.152 5.58333 542.111 5.70312 542.027C5.82292 541.944 5.91276 541.828 5.97266 541.68C6.03255 541.531 6.0625 541.358 6.0625 541.16C6.0625 540.866 5.99219 540.642 5.85156 540.488C5.71354 540.335 5.50911 540.258 5.23828 540.258C5.13411 540.258 5.02604 540.27 4.91406 540.293C4.80208 540.314 4.6888 540.346 4.57422 540.391L4.21484 540.121L4.38281 537.289H6.86328V538.238H5.28516L5.20703 539.414C5.32161 539.385 5.42578 539.367 5.51953 539.359C5.61328 539.349 5.69792 539.344 5.77344 539.344Z" fill="white"/>
<path d="M2.86328 581H1.79297V577.664C1.79297 577.544 1.79297 577.427 1.79297 577.312C1.79557 577.195 1.79818 577.081 1.80078 576.969C1.80599 576.854 1.8112 576.742 1.81641 576.633C1.77995 576.682 1.73698 576.738 1.6875 576.801C1.63802 576.863 1.57943 576.932 1.51172 577.008L1.01562 577.52L0.375 576.887L1.91016 575.289H2.86328V581ZM4.05469 578.574C4.05469 578.199 4.07552 577.844 4.11719 577.508C4.16146 577.169 4.23307 576.861 4.33203 576.582C4.43099 576.301 4.5638 576.057 4.73047 575.852C4.89714 575.646 5.10286 575.487 5.34766 575.375C5.59245 575.263 5.88411 575.207 6.22266 575.207C6.35026 575.207 6.47526 575.214 6.59766 575.227C6.72266 575.237 6.84245 575.255 6.95703 575.281V576.199C6.85807 576.176 6.75391 576.158 6.64453 576.145C6.53776 576.129 6.42578 576.121 6.30859 576.121C6.04297 576.121 5.82031 576.186 5.64062 576.316C5.46094 576.444 5.32292 576.641 5.22656 576.906C5.13021 577.172 5.07552 577.51 5.0625 577.922H5.09375C5.15365 577.779 5.22656 577.659 5.3125 577.562C5.39844 577.466 5.4974 577.393 5.60938 577.344C5.72396 577.292 5.85026 577.266 5.98828 577.266C6.25651 577.266 6.48307 577.342 6.66797 577.496C6.85286 577.65 6.99349 577.865 7.08984 578.141C7.1888 578.414 7.23828 578.736 7.23828 579.105C7.23828 579.496 7.17839 579.84 7.05859 580.137C6.9388 580.434 6.76432 580.665 6.53516 580.832C6.30599 580.996 6.02604 581.078 5.69531 581.078C5.4375 581.078 5.20703 581.022 5.00391 580.91C4.80078 580.798 4.6276 580.635 4.48438 580.422C4.34375 580.206 4.23698 579.943 4.16406 579.633C4.09115 579.323 4.05469 578.97 4.05469 578.574ZM5.66797 580.145C5.82161 580.145 5.94271 580.061 6.03125 579.895C6.11979 579.728 6.16406 579.473 6.16406 579.129C6.16406 578.816 6.1237 578.581 6.04297 578.422C5.96224 578.263 5.84115 578.184 5.67969 578.184C5.56771 578.184 5.47135 578.22 5.39062 578.293C5.3099 578.363 5.2474 578.458 5.20312 578.578C5.16146 578.698 5.14062 578.831 5.14062 578.977C5.14062 579.122 5.15104 579.264 5.17188 579.402C5.19271 579.54 5.22526 579.665 5.26953 579.777C5.3138 579.889 5.36849 579.979 5.43359 580.047C5.5013 580.112 5.57943 580.145 5.66797 580.145Z" fill="white"/>
<path d="M2.86328 619H1.79297V615.664C1.79297 615.544 1.79297 615.427 1.79297 615.312C1.79557 615.195 1.79818 615.081 1.80078 614.969C1.80599 614.854 1.8112 614.742 1.81641 614.633C1.77995 614.682 1.73698 614.738 1.6875 614.801C1.63802 614.863 1.57943 614.932 1.51172 615.008L1.01562 615.52L0.375 614.887L1.91016 613.289H2.86328V619ZM4.45312 619L6.125 614.238H4.03125V613.289H7.22266V614.031L5.58984 619H4.45312Z" fill="white"/>
<path d="M2.86328 658H1.79297V654.664C1.79297 654.544 1.79297 654.427 1.79297 654.312C1.79557 654.195 1.79818 654.081 1.80078 653.969C1.80599 653.854 1.8112 653.742 1.81641 653.633C1.77995 653.682 1.73698 653.738 1.6875 653.801C1.63802 653.863 1.57943 653.932 1.51172 654.008L1.01562 654.52L0.375 653.887L1.91016 652.289H2.86328V658ZM5.63672 652.207C5.95182 652.207 6.21875 652.262 6.4375 652.371C6.65885 652.48 6.82682 652.637 6.94141 652.84C7.05859 653.043 7.11719 653.288 7.11719 653.574C7.11719 653.78 7.08724 653.97 7.02734 654.145C6.97005 654.316 6.88021 654.474 6.75781 654.617C6.63802 654.758 6.48307 654.885 6.29297 655C6.51172 655.151 6.69141 655.303 6.83203 655.457C6.97526 655.611 7.08073 655.773 7.14844 655.945C7.21875 656.117 7.25391 656.306 7.25391 656.512C7.25391 656.835 7.1888 657.113 7.05859 657.348C6.92839 657.582 6.74219 657.763 6.5 657.891C6.25781 658.016 5.97005 658.078 5.63672 658.078C5.28776 658.078 4.99089 658.017 4.74609 657.895C4.50391 657.772 4.31901 657.596 4.19141 657.367C4.06641 657.135 4.00391 656.858 4.00391 656.535C4.00391 656.324 4.03516 656.129 4.09766 655.949C4.16016 655.767 4.25651 655.599 4.38672 655.445C4.51953 655.289 4.6888 655.146 4.89453 655.016C4.72526 654.88 4.58464 654.737 4.47266 654.586C4.36328 654.435 4.28125 654.276 4.22656 654.109C4.17448 653.94 4.14844 653.762 4.14844 653.574C4.14844 653.288 4.20833 653.043 4.32812 652.84C4.45052 652.637 4.6224 652.48 4.84375 652.371C5.06771 652.262 5.33203 652.207 5.63672 652.207ZM5.03906 656.52C5.03906 656.728 5.08854 656.896 5.1875 657.023C5.28646 657.151 5.43099 657.215 5.62109 657.215C5.82682 657.215 5.97917 657.154 6.07812 657.031C6.17969 656.906 6.23047 656.736 6.23047 656.52C6.23047 656.418 6.21484 656.319 6.18359 656.223C6.15234 656.124 6.09896 656.026 6.02344 655.93C5.94792 655.831 5.84375 655.729 5.71094 655.625L5.59766 655.535C5.46224 655.634 5.35286 655.734 5.26953 655.836C5.1888 655.935 5.13021 656.04 5.09375 656.152C5.05729 656.264 5.03906 656.387 5.03906 656.52ZM5.63672 653.07C5.4987 653.07 5.38672 653.124 5.30078 653.23C5.21484 653.335 5.17188 653.477 5.17188 653.656C5.17188 653.768 5.1888 653.871 5.22266 653.965C5.25651 654.059 5.30729 654.147 5.375 654.23C5.44271 654.314 5.52734 654.395 5.62891 654.473C5.7487 654.384 5.84375 654.298 5.91406 654.215C5.98438 654.129 6.03385 654.042 6.0625 653.953C6.09375 653.862 6.10938 653.763 6.10938 653.656C6.10938 653.477 6.0651 653.335 5.97656 653.23C5.89062 653.124 5.77734 653.07 5.63672 653.07Z" fill="white"/>
<path d="M2.86328 696H1.79297V692.664C1.79297 692.544 1.79297 692.427 1.79297 692.312C1.79557 692.195 1.79818 692.081 1.80078 691.969C1.80599 691.854 1.8112 691.742 1.81641 691.633C1.77995 691.682 1.73698 691.738 1.6875 691.801C1.63802 691.863 1.57943 691.932 1.51172 692.008L1.01562 692.52L0.375 691.887L1.91016 690.289H2.86328V696ZM7.20703 692.68C7.20703 693.068 7.18229 693.434 7.13281 693.777C7.08594 694.121 7.01042 694.434 6.90625 694.715C6.80208 694.996 6.66536 695.238 6.49609 695.441C6.32682 695.645 6.12109 695.802 5.87891 695.914C5.63672 696.023 5.35417 696.078 5.03125 696.078C4.90625 696.078 4.77865 696.07 4.64844 696.055C4.52083 696.042 4.40234 696.023 4.29297 696V695.078C4.38932 695.107 4.49219 695.129 4.60156 695.145C4.71354 695.16 4.82682 695.168 4.94141 695.168C5.22786 695.168 5.46094 695.095 5.64062 694.949C5.82292 694.801 5.95964 694.592 6.05078 694.324C6.14193 694.053 6.19401 693.734 6.20703 693.367H6.16406C6.10417 693.508 6.02995 693.628 5.94141 693.727C5.85547 693.823 5.75651 693.897 5.64453 693.949C5.53255 693.999 5.40755 694.023 5.26953 694.023C4.9987 694.023 4.76953 693.947 4.58203 693.793C4.39714 693.639 4.25781 693.424 4.16406 693.148C4.07031 692.87 4.02344 692.548 4.02344 692.184C4.02344 691.79 4.08333 691.447 4.20312 691.152C4.32292 690.855 4.4987 690.624 4.73047 690.457C4.96224 690.29 5.24609 690.207 5.58203 690.207C5.83724 690.207 6.0651 690.263 6.26562 690.375C6.46875 690.484 6.63932 690.646 6.77734 690.859C6.91797 691.073 7.02474 691.332 7.09766 691.637C7.17057 691.941 7.20703 692.289 7.20703 692.68ZM5.58984 691.145C5.44141 691.145 5.32031 691.228 5.22656 691.395C5.13281 691.561 5.08594 691.816 5.08594 692.16C5.08594 692.473 5.1276 692.708 5.21094 692.867C5.29427 693.026 5.41797 693.105 5.58203 693.105C5.70964 693.105 5.8125 693.062 5.89062 692.977C5.96875 692.891 6.02604 692.785 6.0625 692.66C6.09896 692.533 6.11719 692.409 6.11719 692.289C6.11719 692.198 6.11068 692.089 6.09766 691.961C6.08464 691.831 6.0599 691.704 6.02344 691.582C5.98698 691.457 5.93359 691.353 5.86328 691.27C5.79557 691.186 5.70443 691.145 5.58984 691.145Z" fill="white"/>
<path d="M3.34375 734H0.230469V733.223L1.32812 731.695C1.5625 731.37 1.74089 731.1 1.86328 730.887C1.98568 730.671 2.06771 730.48 2.10938 730.316C2.15365 730.15 2.17578 729.98 2.17578 729.809C2.17578 729.608 2.1276 729.449 2.03125 729.332C1.9375 729.212 1.79688 729.152 1.60938 729.152C1.46094 729.152 1.32031 729.191 1.1875 729.27C1.05469 729.348 0.90625 729.487 0.742188 729.688L0.214844 728.977C0.373698 728.789 0.529948 728.639 0.683594 728.527C0.839844 728.413 1.00391 728.331 1.17578 728.281C1.34766 728.232 1.53385 728.207 1.73438 728.207C2.03646 728.207 2.30208 728.272 2.53125 728.402C2.76042 728.53 2.9388 728.708 3.06641 728.938C3.19401 729.167 3.25781 729.435 3.25781 729.742C3.25781 729.995 3.22786 730.236 3.16797 730.465C3.10807 730.691 3.00651 730.928 2.86328 731.176C2.72005 731.423 2.52344 731.703 2.27344 732.016L1.51172 733.016V733.055H3.34375V734ZM7.20703 731.145C7.20703 731.577 7.18099 731.973 7.12891 732.332C7.07943 732.689 6.99479 732.999 6.875 733.262C6.75521 733.522 6.59375 733.724 6.39062 733.867C6.1875 734.008 5.93359 734.078 5.62891 734.078C5.28516 734.078 4.99609 733.978 4.76172 733.777C4.52995 733.577 4.35417 733.262 4.23438 732.832C4.11458 732.4 4.05469 731.837 4.05469 731.145C4.05469 730.475 4.11198 729.924 4.22656 729.492C4.34115 729.057 4.51432 728.734 4.74609 728.523C4.98047 728.312 5.27474 728.207 5.62891 728.207C5.98047 728.207 6.27214 728.316 6.50391 728.535C6.73828 728.754 6.91406 729.081 7.03125 729.516C7.14844 729.951 7.20703 730.493 7.20703 731.145ZM5.13281 731.145C5.13281 731.598 5.14714 731.971 5.17578 732.266C5.20703 732.557 5.25781 732.775 5.32812 732.918C5.40104 733.059 5.5013 733.129 5.62891 733.129C5.75911 733.129 5.85938 733.059 5.92969 732.918C6.0026 732.775 6.05339 732.557 6.08203 732.266C6.11068 731.971 6.125 731.598 6.125 731.145C6.125 730.704 6.11068 730.337 6.08203 730.043C6.05339 729.749 6.0026 729.529 5.92969 729.383C5.85938 729.234 5.75911 729.16 5.62891 729.16C5.50391 729.16 5.40495 729.233 5.33203 729.379C5.25911 729.525 5.20703 729.745 5.17578 730.039C5.14714 730.333 5.13281 730.702 5.13281 731.145Z" fill="white"/>
<path d="M3.34375 772H0.230469V771.223L1.32812 769.695C1.5625 769.37 1.74089 769.1 1.86328 768.887C1.98568 768.671 2.06771 768.48 2.10938 768.316C2.15365 768.15 2.17578 767.98 2.17578 767.809C2.17578 767.608 2.1276 767.449 2.03125 767.332C1.9375 767.212 1.79688 767.152 1.60938 767.152C1.46094 767.152 1.32031 767.191 1.1875 767.27C1.05469 767.348 0.90625 767.487 0.742188 767.688L0.214844 766.977C0.373698 766.789 0.529948 766.639 0.683594 766.527C0.839844 766.413 1.00391 766.331 1.17578 766.281C1.34766 766.232 1.53385 766.207 1.73438 766.207C2.03646 766.207 2.30208 766.272 2.53125 766.402C2.76042 766.53 2.9388 766.708 3.06641 766.938C3.19401 767.167 3.25781 767.435 3.25781 767.742C3.25781 767.995 3.22786 768.236 3.16797 768.465C3.10807 768.691 3.00651 768.928 2.86328 769.176C2.72005 769.423 2.52344 769.703 2.27344 770.016L1.51172 771.016V771.055H3.34375V772ZM6.62109 772H5.55078V768.664C5.55078 768.544 5.55078 768.427 5.55078 768.312C5.55339 768.195 5.55599 768.081 5.55859 767.969C5.5638 767.854 5.56901 767.742 5.57422 767.633C5.53776 767.682 5.49479 767.738 5.44531 767.801C5.39583 767.863 5.33724 767.932 5.26953 768.008L4.77344 768.52L4.13281 767.887L5.66797 766.289H6.62109V772Z" fill="white"/>
<path d="M3.34375 811H0.230469V810.223L1.32812 808.695C1.5625 808.37 1.74089 808.1 1.86328 807.887C1.98568 807.671 2.06771 807.48 2.10938 807.316C2.15365 807.15 2.17578 806.98 2.17578 806.809C2.17578 806.608 2.1276 806.449 2.03125 806.332C1.9375 806.212 1.79688 806.152 1.60938 806.152C1.46094 806.152 1.32031 806.191 1.1875 806.27C1.05469 806.348 0.90625 806.487 0.742188 806.688L0.214844 805.977C0.373698 805.789 0.529948 805.639 0.683594 805.527C0.839844 805.413 1.00391 805.331 1.17578 805.281C1.34766 805.232 1.53385 805.207 1.73438 805.207C2.03646 805.207 2.30208 805.272 2.53125 805.402C2.76042 805.53 2.9388 805.708 3.06641 805.938C3.19401 806.167 3.25781 806.435 3.25781 806.742C3.25781 806.995 3.22786 807.236 3.16797 807.465C3.10807 807.691 3.00651 807.928 2.86328 808.176C2.72005 808.423 2.52344 808.703 2.27344 809.016L1.51172 810.016V810.055H3.34375V811ZM7.10156 811H3.98828V810.223L5.08594 808.695C5.32031 808.37 5.4987 808.1 5.62109 807.887C5.74349 807.671 5.82552 807.48 5.86719 807.316C5.91146 807.15 5.93359 806.98 5.93359 806.809C5.93359 806.608 5.88542 806.449 5.78906 806.332C5.69531 806.212 5.55469 806.152 5.36719 806.152C5.21875 806.152 5.07812 806.191 4.94531 806.27C4.8125 806.348 4.66406 806.487 4.5 806.688L3.97266 805.977C4.13151 805.789 4.28776 805.639 4.44141 805.527C4.59766 805.413 4.76172 805.331 4.93359 805.281C5.10547 805.232 5.29167 805.207 5.49219 805.207C5.79427 805.207 6.0599 805.272 6.28906 805.402C6.51823 805.53 6.69661 805.708 6.82422 805.938C6.95182 806.167 7.01562 806.435 7.01562 806.742C7.01562 806.995 6.98568 807.236 6.92578 807.465C6.86589 807.691 6.76432 807.928 6.62109 808.176C6.47786 808.423 6.28125 808.703 6.03125 809.016L5.26953 810.016V810.055H7.10156V811Z" fill="white"/>
<path d="M3.34375 849H0.230469V848.223L1.32812 846.695C1.5625 846.37 1.74089 846.1 1.86328 845.887C1.98568 845.671 2.06771 845.48 2.10938 845.316C2.15365 845.15 2.17578 844.98 2.17578 844.809C2.17578 844.608 2.1276 844.449 2.03125 844.332C1.9375 844.212 1.79688 844.152 1.60938 844.152C1.46094 844.152 1.32031 844.191 1.1875 844.27C1.05469 844.348 0.90625 844.487 0.742188 844.688L0.214844 843.977C0.373698 843.789 0.529948 843.639 0.683594 843.527C0.839844 843.413 1.00391 843.331 1.17578 843.281C1.34766 843.232 1.53385 843.207 1.73438 843.207C2.03646 843.207 2.30208 843.272 2.53125 843.402C2.76042 843.53 2.9388 843.708 3.06641 843.938C3.19401 844.167 3.25781 844.435 3.25781 844.742C3.25781 844.995 3.22786 845.236 3.16797 845.465C3.10807 845.691 3.00651 845.928 2.86328 846.176C2.72005 846.423 2.52344 846.703 2.27344 847.016L1.51172 848.016V848.055H3.34375V849ZM7.04688 844.656C7.04688 844.862 7.01042 845.052 6.9375 845.227C6.86458 845.401 6.75521 845.555 6.60938 845.688C6.46615 845.818 6.28906 845.922 6.07812 846V846.023C6.4349 846.099 6.70312 846.253 6.88281 846.484C7.0651 846.716 7.15625 847.018 7.15625 847.391C7.15625 847.734 7.08333 848.033 6.9375 848.285C6.79427 848.538 6.58724 848.733 6.31641 848.871C6.04557 849.009 5.72135 849.078 5.34375 849.078C5.09635 849.078 4.87109 849.059 4.66797 849.02C4.46484 848.983 4.25 848.913 4.02344 848.809V847.801C4.21875 847.915 4.41536 848.003 4.61328 848.062C4.8112 848.122 5.0013 848.152 5.18359 848.152C5.47526 848.152 5.6888 848.082 5.82422 847.941C5.96224 847.798 6.03125 847.599 6.03125 847.344C6.03125 847.154 5.99349 846.999 5.91797 846.879C5.84505 846.757 5.73047 846.667 5.57422 846.609C5.41797 846.549 5.21484 846.52 4.96484 846.52H4.67969V845.617H4.97266C5.19401 845.617 5.38021 845.585 5.53125 845.52C5.68229 845.452 5.79557 845.355 5.87109 845.23C5.94922 845.103 5.98828 844.952 5.98828 844.777C5.98828 844.569 5.93359 844.41 5.82422 844.301C5.71745 844.191 5.5599 844.137 5.35156 844.137C5.2474 844.137 5.14583 844.151 5.04688 844.18C4.94792 844.208 4.84896 844.251 4.75 844.309C4.65104 844.363 4.54948 844.434 4.44531 844.52L4.02344 843.734C4.25781 843.542 4.49479 843.406 4.73438 843.328C4.97656 843.247 5.2513 843.207 5.55859 843.207C6.01693 843.207 6.37891 843.332 6.64453 843.582C6.91276 843.829 7.04688 844.188 7.04688 844.656Z" fill="white"/>
<path d="M3.34375 887H0.230469V886.223L1.32812 884.695C1.5625 884.37 1.74089 884.1 1.86328 883.887C1.98568 883.671 2.06771 883.48 2.10938 883.316C2.15365 883.15 2.17578 882.98 2.17578 882.809C2.17578 882.608 2.1276 882.449 2.03125 882.332C1.9375 882.212 1.79688 882.152 1.60938 882.152C1.46094 882.152 1.32031 882.191 1.1875 882.27C1.05469 882.348 0.90625 882.487 0.742188 882.688L0.214844 881.977C0.373698 881.789 0.529948 881.639 0.683594 881.527C0.839844 881.413 1.00391 881.331 1.17578 881.281C1.34766 881.232 1.53385 881.207 1.73438 881.207C2.03646 881.207 2.30208 881.272 2.53125 881.402C2.76042 881.53 2.9388 881.708 3.06641 881.938C3.19401 882.167 3.25781 882.435 3.25781 882.742C3.25781 882.995 3.22786 883.236 3.16797 883.465C3.10807 883.691 3.00651 883.928 2.86328 884.176C2.72005 884.423 2.52344 884.703 2.27344 885.016L1.51172 886.016V886.055H3.34375V887ZM7.41406 885.84H6.83594V887H5.78125V885.84H3.89453V884.977L5.77344 881.273H6.83594V884.953H7.41406V885.84ZM5.77344 884.953V883.633C5.77344 883.594 5.77344 883.533 5.77344 883.449C5.77604 883.363 5.77865 883.273 5.78125 883.18C5.78385 883.083 5.78646 882.997 5.78906 882.922C5.79167 882.846 5.79427 882.796 5.79688 882.77H5.76562C5.73177 882.884 5.69401 882.992 5.65234 883.094C5.61068 883.195 5.56641 883.292 5.51953 883.383L4.76562 884.953H5.77344Z" fill="white"/>
</g>
<defs>
<filter id="filter0_d_5_7" x="-3.78516" y="3.28906" width="15.1992" height="891.711" filterUnits="userSpaceOnUse" color-interpolation-filters="sRGB">
<feFlood flood-opacity="0" result="BackgroundImageFix"/>
<feColorMatrix in="SourceAlpha" type="matrix" values="0 0 0 0 0 0 0 0 0 0 0 0 0 0 0 0 0 0 127 0" result="hardAlpha"/>
<feOffset dy="4"/>
<feGaussianBlur stdDeviation="2"/>
<feComposite in2="hardAlpha" operator="out"/>
<feColorMatrix type="matrix" values="0 0 0 0 0 0 0 0 0 0 0 0 0 0 0 0 0 0 0.25 0"/>
<feBlend mode="normal" in2="BackgroundImageFix" result="effect1_dropShadow_5_7"/>
<feBlend mode="normal" in="SourceGraphic" in2="effect1_dropShadow_5_7" result="shape"/>
</filter>
</defs>
</svg>
