<svg width="968" height="128" viewBox="0 0 968 128" fill="none" xmlns="http://www.w3.org/2000/svg">
<path d="M50 2.5H918C944.234 2.5 965.5 23.7665 965.5 50V78C965.5 104.234 944.234 125.5 918 125.5H50C23.7665 125.5 2.5 104.234 2.5 78V50C2.5 23.7665 23.7665 2.5 50 2.5Z" fill="#AAAAAA" stroke="black" stroke-width="5"/>
<path d="M50 2.5H400C426.234 2.5 447.5 23.7665 447.5 50V78C447.5 104.234 426.234 125.5 400 125.5H50C23.7665 125.5 2.5 104.234 2.5 78V50C2.5 23.7665 23.7665 2.5 50 2.5Z" fill="white" stroke="black" stroke-width="5"/>
<path d="M171.391 90V47.168H180.473V82.5H197.846V90H171.391ZM218.119 56.6309C221.146 56.6309 223.754 57.2168 225.941 58.3887C228.129 59.541 229.818 61.2207 231.01 63.4277C232.201 65.6348 232.797 68.3301 232.797 71.5137V75.8496H211.674C211.771 78.3691 212.523 80.3516 213.93 81.7969C215.355 83.2227 217.328 83.9355 219.848 83.9355C221.938 83.9355 223.852 83.7207 225.59 83.291C227.328 82.8613 229.115 82.2168 230.951 81.3574V88.2715C229.33 89.0723 227.631 89.6582 225.854 90.0293C224.096 90.4004 221.957 90.5859 219.438 90.5859C216.156 90.5859 213.246 89.9805 210.707 88.7695C208.188 87.5586 206.205 85.7129 204.76 83.2324C203.334 80.752 202.621 77.627 202.621 73.8574C202.621 70.0293 203.266 66.8457 204.555 64.3066C205.863 61.748 207.68 59.834 210.004 58.5645C212.328 57.2754 215.033 56.6309 218.119 56.6309ZM218.178 62.9883C216.439 62.9883 214.994 63.5449 213.842 64.6582C212.709 65.7715 212.055 67.5195 211.879 69.9023H224.418C224.398 68.5742 224.154 67.3926 223.686 66.3574C223.236 65.3223 222.553 64.502 221.635 63.8965C220.736 63.291 219.584 62.9883 218.178 62.9883ZM258.168 63.9551H250.434V90H241.498V63.9551H236.576V59.6484L241.498 57.2461V54.8438C241.498 52.0508 241.967 49.8828 242.904 48.3398C243.861 46.7773 245.199 45.6836 246.918 45.0586C248.656 44.4141 250.707 44.0918 253.07 44.0918C254.809 44.0918 256.391 44.2383 257.816 44.5312C259.242 44.8047 260.404 45.1172 261.303 45.4688L259.018 52.0312C258.334 51.8164 257.592 51.6211 256.791 51.4453C255.99 51.2695 255.072 51.1816 254.037 51.1816C252.787 51.1816 251.869 51.5625 251.283 52.3242C250.717 53.0664 250.434 54.0234 250.434 55.1953V57.2461H258.168V63.9551ZM277.123 83.4668C278.1 83.4668 279.047 83.3691 279.965 83.1738C280.902 82.9785 281.83 82.7344 282.748 82.4414V89.0918C281.791 89.5215 280.6 89.873 279.174 90.1465C277.768 90.4395 276.225 90.5859 274.545 90.5859C272.592 90.5859 270.834 90.2734 269.271 89.6484C267.729 89.0039 266.508 87.9004 265.609 86.3379C264.73 84.7559 264.291 82.5586 264.291 79.7461V63.9551H260.014V60.1758L264.936 57.1875L267.514 50.2734H273.227V57.2461H282.396V63.9551H273.227V79.7461C273.227 80.9961 273.578 81.9336 274.281 82.5586C275.004 83.1641 275.951 83.4668 277.123 83.4668Z" fill="black"/>
</svg>
