<svg width="968" height="128" viewBox="0 0 968 128" fill="none" xmlns="http://www.w3.org/2000/svg">
<path d="M50 2.5H918C944.234 2.5 965.5 23.7665 965.5 50V78C965.5 104.234 944.234 125.5 918 125.5H50C23.7665 125.5 2.5 104.234 2.5 78V50C2.5 23.7665 23.7665 2.5 50 2.5Z" fill="#AAAAAA" stroke="black" stroke-width="5"/>
<path d="M568 2.5H918C944.234 2.5 965.5 23.7665 965.5 50V78C965.5 104.234 944.234 125.5 918 125.5H568C541.766 125.5 520.5 104.234 520.5 78V50C520.5 23.7665 541.766 2.5 568 2.5Z" fill="white" stroke="black" stroke-width="5"/>
<path d="M631.391 90V47.168H665.287V90H656.234V54.7266H640.473V90H631.391ZM693.617 56.6309C697.309 56.6309 700.287 58.0664 702.553 60.9375C704.838 63.8086 705.98 68.0176 705.98 73.5645C705.98 77.2754 705.443 80.4004 704.369 82.9395C703.295 85.459 701.811 87.3633 699.916 88.6523C698.021 89.9414 695.844 90.5859 693.383 90.5859C691.801 90.5859 690.443 90.3906 689.311 90C688.178 89.5898 687.211 89.0723 686.41 88.4473C685.609 87.8027 684.916 87.1191 684.33 86.3965H683.861C684.018 87.1777 684.135 87.9785 684.213 88.7988C684.291 89.6191 684.33 90.4199 684.33 91.2012V104.414H675.395V57.2461H682.66L683.92 61.4941H684.33C684.916 60.6152 685.629 59.8047 686.469 59.0625C687.309 58.3203 688.314 57.7344 689.486 57.3047C690.678 56.8555 692.055 56.6309 693.617 56.6309ZM690.746 63.7793C689.184 63.7793 687.943 64.1016 687.025 64.7461C686.107 65.3906 685.434 66.3574 685.004 67.6465C684.594 68.9355 684.369 70.5664 684.33 72.5391V73.5059C684.33 75.6152 684.525 77.4023 684.916 78.8672C685.326 80.332 686 81.4453 686.938 82.207C687.895 82.9688 689.203 83.3496 690.863 83.3496C692.23 83.3496 693.354 82.9688 694.232 82.207C695.111 81.4453 695.766 80.332 696.195 78.8672C696.645 77.3828 696.869 75.5762 696.869 73.4473C696.869 70.2441 696.371 67.832 695.375 66.2109C694.379 64.5898 692.836 63.7793 690.746 63.7793ZM726.781 56.5723C731.176 56.5723 734.545 57.5293 736.889 59.4434C739.232 61.3574 740.404 64.2676 740.404 68.1738V90H734.164L732.436 85.5469H732.201C731.264 86.7188 730.307 87.6758 729.33 88.418C728.354 89.1602 727.23 89.707 725.961 90.0586C724.691 90.4102 723.148 90.5859 721.332 90.5859C719.398 90.5859 717.66 90.2148 716.117 89.4727C714.594 88.7305 713.393 87.5977 712.514 86.0742C711.635 84.5312 711.195 82.5781 711.195 80.2148C711.195 76.7383 712.416 74.1797 714.857 72.5391C717.299 70.8789 720.961 69.9609 725.844 69.7852L731.527 69.6094V68.1738C731.527 66.4551 731.078 65.1953 730.18 64.3945C729.281 63.5938 728.031 63.1934 726.43 63.1934C724.848 63.1934 723.295 63.418 721.771 63.8672C720.248 64.3164 718.725 64.8828 717.201 65.5664L714.242 59.5312C715.98 58.6133 717.924 57.8906 720.072 57.3633C722.24 56.8359 724.477 56.5723 726.781 56.5723ZM731.527 74.8242L728.07 74.9414C725.18 75.0195 723.168 75.5371 722.035 76.4941C720.922 77.4512 720.365 78.7109 720.365 80.2734C720.365 81.6406 720.766 82.6172 721.566 83.2031C722.367 83.7695 723.412 84.0527 724.701 84.0527C726.615 84.0527 728.227 83.4863 729.535 82.3535C730.863 81.2207 731.527 79.6094 731.527 77.5195V74.8242ZM778.666 65.8301C778.666 67.5879 778.109 69.0918 776.996 70.3418C775.902 71.5723 774.281 72.3633 772.133 72.7148V72.9492C774.398 73.2227 776.225 74.0137 777.611 75.3223C778.998 76.6113 779.691 78.2422 779.691 80.2148C779.691 82.0898 779.203 83.7695 778.227 85.2539C777.25 86.7188 775.697 87.8809 773.568 88.7402C771.439 89.5801 768.656 90 765.219 90H749.633V57.2461H765.219C767.777 57.2461 770.072 57.5195 772.104 58.0664C774.135 58.5938 775.736 59.4824 776.908 60.7324C778.08 61.9824 778.666 63.6816 778.666 65.8301ZM770.434 79.7461C770.434 78.457 769.926 77.5293 768.91 76.9629C767.914 76.377 766.43 76.084 764.457 76.084H758.568V83.8184H764.633C766.312 83.8184 767.699 83.5059 768.793 82.8809C769.887 82.2559 770.434 81.2109 770.434 79.7461ZM769.613 66.5332C769.613 65.5176 769.213 64.7656 768.412 64.2773C767.611 63.7891 766.43 63.5449 764.867 63.5449H758.568V70.0195H763.842C765.736 70.0195 767.172 69.7461 768.148 69.1992C769.125 68.6523 769.613 67.7637 769.613 66.5332ZM800.785 56.5723C805.18 56.5723 808.549 57.5293 810.893 59.4434C813.236 61.3574 814.408 64.2676 814.408 68.1738V90H808.168L806.439 85.5469H806.205C805.268 86.7188 804.311 87.6758 803.334 88.418C802.357 89.1602 801.234 89.707 799.965 90.0586C798.695 90.4102 797.152 90.5859 795.336 90.5859C793.402 90.5859 791.664 90.2148 790.121 89.4727C788.598 88.7305 787.396 87.5977 786.518 86.0742C785.639 84.5312 785.199 82.5781 785.199 80.2148C785.199 76.7383 786.42 74.1797 788.861 72.5391C791.303 70.8789 794.965 69.9609 799.848 69.7852L805.531 69.6094V68.1738C805.531 66.4551 805.082 65.1953 804.184 64.3945C803.285 63.5938 802.035 63.1934 800.434 63.1934C798.852 63.1934 797.299 63.418 795.775 63.8672C794.252 64.3164 792.729 64.8828 791.205 65.5664L788.246 59.5312C789.984 58.6133 791.928 57.8906 794.076 57.3633C796.244 56.8359 798.48 56.5723 800.785 56.5723ZM805.531 74.8242L802.074 74.9414C799.184 75.0195 797.172 75.5371 796.039 76.4941C794.926 77.4512 794.369 78.7109 794.369 80.2734C794.369 81.6406 794.77 82.6172 795.57 83.2031C796.371 83.7695 797.416 84.0527 798.705 84.0527C800.619 84.0527 802.23 83.4863 803.539 82.3535C804.867 81.2207 805.531 79.6094 805.531 77.5195V74.8242ZM828.617 90H818.949L827.768 77.0508C826.654 76.582 825.609 75.9375 824.633 75.1172C823.656 74.2773 822.865 73.2227 822.26 71.9531C821.654 70.6836 821.352 69.1602 821.352 67.3828C821.352 64.1211 822.582 61.6211 825.043 59.8828C827.523 58.125 830.717 57.2461 834.623 57.2461H849.857V90H840.922V77.8125H836L828.617 90ZM830.111 67.4414C830.111 68.8086 830.648 69.8828 831.723 70.6641C832.816 71.4258 834.223 71.8066 835.941 71.8066H840.922V63.5449H834.799C833.197 63.5449 832.016 63.9355 831.254 64.7168C830.492 65.4785 830.111 66.3867 830.111 67.4414Z" fill="black"/>
</svg>
