<svg width="968" height="128" viewBox="0 0 968 128" fill="none" xmlns="http://www.w3.org/2000/svg">
<path d="M50 2.5H918C944.234 2.5 965.5 23.7665 965.5 50V78C965.5 104.234 944.234 125.5 918 125.5H50C23.7665 125.5 2.5 104.234 2.5 78V50C2.5 23.7665 23.7665 2.5 50 2.5Z" fill="#AAAAAA" stroke="black" stroke-width="5"/>
<path d="M50 2.5H400C426.234 2.5 447.5 23.7665 447.5 50V78C447.5 104.234 426.234 125.5 400 125.5H50C23.7665 125.5 2.5 104.234 2.5 78V50C2.5 23.7665 23.7665 2.5 50 2.5Z" fill="white" stroke="black" stroke-width="5"/>
<path d="M168.287 90H159.234V54.7266H148.746C148.512 56.5625 148.258 58.5645 147.984 60.7324C147.711 62.9004 147.428 65.0879 147.135 67.2949C146.842 69.502 146.529 71.6016 146.197 73.5938C145.885 75.5859 145.572 77.334 145.26 78.8379C144.752 81.3379 144.059 83.4668 143.18 85.2246C142.32 86.9629 141.139 88.291 139.635 89.209C138.15 90.127 136.207 90.5859 133.805 90.5859C133.004 90.5859 132.232 90.5273 131.49 90.4102C130.768 90.293 130.094 90.1367 129.469 89.9414V82.5C129.977 82.6758 130.484 82.8223 130.992 82.9395C131.5 83.0371 132.057 83.0859 132.662 83.0859C133.443 83.0859 134.088 82.832 134.596 82.3242C135.123 81.7969 135.592 80.9082 136.002 79.6582C136.412 78.3887 136.822 76.6406 137.232 74.4141C137.408 73.4375 137.643 72.0605 137.936 70.2832C138.229 68.4863 138.561 66.3867 138.932 63.9844C139.303 61.5625 139.684 58.9258 140.074 56.0742C140.484 53.2227 140.875 50.2539 141.246 47.168H168.287V90ZM191.9 56.6309C194.928 56.6309 197.535 57.2168 199.723 58.3887C201.91 59.541 203.6 61.2207 204.791 63.4277C205.982 65.6348 206.578 68.3301 206.578 71.5137V75.8496H185.455C185.553 78.3691 186.305 80.3516 187.711 81.7969C189.137 83.2227 191.109 83.9355 193.629 83.9355C195.719 83.9355 197.633 83.7207 199.371 83.291C201.109 82.8613 202.896 82.2168 204.732 81.3574V88.2715C203.111 89.0723 201.412 89.6582 199.635 90.0293C197.877 90.4004 195.738 90.5859 193.219 90.5859C189.938 90.5859 187.027 89.9805 184.488 88.7695C181.969 87.5586 179.986 85.7129 178.541 83.2324C177.115 80.752 176.402 77.627 176.402 73.8574C176.402 70.0293 177.047 66.8457 178.336 64.3066C179.645 61.748 181.461 59.834 183.785 58.5645C186.109 57.2754 188.814 56.6309 191.9 56.6309ZM191.959 62.9883C190.221 62.9883 188.775 63.5449 187.623 64.6582C186.49 65.7715 185.836 67.5195 185.66 69.9023H198.199C198.18 68.5742 197.936 67.3926 197.467 66.3574C197.018 65.3223 196.334 64.502 195.416 63.8965C194.518 63.291 193.365 62.9883 191.959 62.9883ZM242.877 65.8301C242.877 67.5879 242.32 69.0918 241.207 70.3418C240.113 71.5723 238.492 72.3633 236.344 72.7148V72.9492C238.609 73.2227 240.436 74.0137 241.822 75.3223C243.209 76.6113 243.902 78.2422 243.902 80.2148C243.902 82.0898 243.414 83.7695 242.438 85.2539C241.461 86.7188 239.908 87.8809 237.779 88.7402C235.65 89.5801 232.867 90 229.43 90H213.844V57.2461H229.43C231.988 57.2461 234.283 57.5195 236.314 58.0664C238.346 58.5938 239.947 59.4824 241.119 60.7324C242.291 61.9824 242.877 63.6816 242.877 65.8301ZM234.645 79.7461C234.645 78.457 234.137 77.5293 233.121 76.9629C232.125 76.377 230.641 76.084 228.668 76.084H222.779V83.8184H228.844C230.523 83.8184 231.91 83.5059 233.004 82.8809C234.098 82.2559 234.645 81.2109 234.645 79.7461ZM233.824 66.5332C233.824 65.5176 233.424 64.7656 232.623 64.2773C231.822 63.7891 230.641 63.5449 229.078 63.5449H222.779V70.0195H228.053C229.947 70.0195 231.383 69.7461 232.359 69.1992C233.336 68.6523 233.824 67.7637 233.824 66.5332ZM264.996 56.5723C269.391 56.5723 272.76 57.5293 275.104 59.4434C277.447 61.3574 278.619 64.2676 278.619 68.1738V90H272.379L270.65 85.5469H270.416C269.479 86.7188 268.521 87.6758 267.545 88.418C266.568 89.1602 265.445 89.707 264.176 90.0586C262.906 90.4102 261.363 90.5859 259.547 90.5859C257.613 90.5859 255.875 90.2148 254.332 89.4727C252.809 88.7305 251.607 87.5977 250.729 86.0742C249.85 84.5312 249.41 82.5781 249.41 80.2148C249.41 76.7383 250.631 74.1797 253.072 72.5391C255.514 70.8789 259.176 69.9609 264.059 69.7852L269.742 69.6094V68.1738C269.742 66.4551 269.293 65.1953 268.395 64.3945C267.496 63.5938 266.246 63.1934 264.645 63.1934C263.062 63.1934 261.51 63.418 259.986 63.8672C258.463 64.3164 256.939 64.8828 255.416 65.5664L252.457 59.5312C254.195 58.6133 256.139 57.8906 258.287 57.3633C260.455 56.8359 262.691 56.5723 264.996 56.5723ZM269.742 74.8242L266.285 74.9414C263.395 75.0195 261.383 75.5371 260.25 76.4941C259.137 77.4512 258.58 78.7109 258.58 80.2734C258.58 81.6406 258.98 82.6172 259.781 83.2031C260.582 83.7695 261.627 84.0527 262.916 84.0527C264.83 84.0527 266.441 83.4863 267.75 82.3535C269.078 81.2207 269.742 79.6094 269.742 77.5195V74.8242ZM292.828 90H283.16L291.979 77.0508C290.865 76.582 289.82 75.9375 288.844 75.1172C287.867 74.2773 287.076 73.2227 286.471 71.9531C285.865 70.6836 285.562 69.1602 285.562 67.3828C285.562 64.1211 286.793 61.6211 289.254 59.8828C291.734 58.125 294.928 57.2461 298.834 57.2461H314.068V90H305.133V77.8125H300.211L292.828 90ZM294.322 67.4414C294.322 68.8086 294.859 69.8828 295.934 70.6641C297.027 71.4258 298.434 71.8066 300.152 71.8066H305.133V63.5449H299.01C297.408 63.5449 296.227 63.9355 295.465 64.7168C294.703 65.4785 294.322 66.3867 294.322 67.4414Z" fill="black"/>
</svg>
