<svg width="968" height="128" viewBox="0 0 968 128" fill="none" xmlns="http://www.w3.org/2000/svg">
<path d="M50 2.5H918C944.234 2.5 965.5 23.7665 965.5 50V78C965.5 104.234 944.234 125.5 918 125.5H50C23.7665 125.5 2.5 104.234 2.5 78V50C2.5 23.7665 23.7665 2.5 50 2.5Z" fill="#AAAAAA" stroke="black" stroke-width="5"/>
<path d="M568 2.5H918C944.234 2.5 965.5 23.7665 965.5 50V78C965.5 104.234 944.234 125.5 918 125.5H568C541.766 125.5 520.5 104.234 520.5 78V50C520.5 23.7665 541.766 2.5 568 2.5Z" fill="white" stroke="black" stroke-width="5"/>
<path d="M679.871 47.168C683.758 47.168 686.961 47.6367 689.48 48.5742C692.02 49.5117 693.904 50.9277 695.135 52.8223C696.365 54.7168 696.98 57.1094 696.98 60C696.98 61.9531 696.609 63.6621 695.867 65.127C695.125 66.5918 694.148 67.832 692.938 68.8477C691.727 69.8633 690.418 70.6934 689.012 71.3379L701.609 90H691.531L681.307 73.5645H676.473V90H667.391V47.168H679.871ZM679.227 54.6094H676.473V66.1816H679.402C682.41 66.1816 684.559 65.6836 685.848 64.6875C687.156 63.6719 687.811 62.1875 687.811 60.2344C687.811 58.2031 687.107 56.7578 685.701 55.8984C684.314 55.0391 682.156 54.6094 679.227 54.6094ZM715.232 57.2461V90H706.297V57.2461H715.232ZM710.779 44.4141C712.107 44.4141 713.25 44.7266 714.207 45.3516C715.164 45.957 715.643 47.0996 715.643 48.7793C715.643 50.4395 715.164 51.5918 714.207 52.2363C713.25 52.8613 712.107 53.1738 710.779 53.1738C709.432 53.1738 708.279 52.8613 707.322 52.2363C706.385 51.5918 705.916 50.4395 705.916 48.7793C705.916 47.0996 706.385 45.957 707.322 45.3516C708.279 44.7266 709.432 44.4141 710.779 44.4141ZM734.217 104.414C729.646 104.414 726.15 103.613 723.729 102.012C721.326 100.43 720.125 98.2031 720.125 95.332C720.125 93.3594 720.74 91.709 721.971 90.3809C723.201 89.0527 725.008 88.1055 727.391 87.5391C726.473 87.1484 725.672 86.5137 724.988 85.6348C724.305 84.7363 723.963 83.7891 723.963 82.793C723.963 81.543 724.324 80.5078 725.047 79.6875C725.77 78.8477 726.814 78.0273 728.182 77.2266C726.463 76.4844 725.096 75.293 724.08 73.6523C723.084 72.0117 722.586 70.0781 722.586 67.8516C722.586 65.4688 723.104 63.4473 724.139 61.7871C725.193 60.1074 726.717 58.8281 728.709 57.9492C730.721 57.0703 733.162 56.6309 736.033 56.6309C736.639 56.6309 737.342 56.6699 738.143 56.748C738.943 56.8262 739.676 56.9141 740.34 57.0117C741.023 57.1094 741.482 57.1875 741.717 57.2461H753.143V61.7871L748.016 63.1055C748.484 63.8281 748.836 64.5996 749.07 65.4199C749.305 66.2402 749.422 67.1094 749.422 68.0273C749.422 71.543 748.191 74.2871 745.73 76.2598C743.289 78.2129 739.891 79.1895 735.535 79.1895C734.5 79.1309 733.523 79.0527 732.605 78.9551C732.156 79.3066 731.814 79.6777 731.58 80.0684C731.346 80.459 731.229 80.8691 731.229 81.2988C731.229 81.7285 731.404 82.0898 731.756 82.3828C732.127 82.6562 732.674 82.8711 733.396 83.0273C734.139 83.1641 735.057 83.2324 736.15 83.2324H741.717C745.311 83.2324 748.045 84.0039 749.92 85.5469C751.814 87.0898 752.762 89.3555 752.762 92.3438C752.762 96.1719 751.16 99.1406 747.957 101.25C744.773 103.359 740.193 104.414 734.217 104.414ZM734.598 98.584C736.727 98.584 738.553 98.3789 740.076 97.9688C741.619 97.5781 742.801 97.0117 743.621 96.2695C744.441 95.5469 744.852 94.6777 744.852 93.6621C744.852 92.8418 744.607 92.1875 744.119 91.6992C743.65 91.2305 742.928 90.8984 741.951 90.7031C740.994 90.5078 739.764 90.4102 738.26 90.4102H733.631C732.537 90.4102 731.551 90.5859 730.672 90.9375C729.812 91.2891 729.129 91.7773 728.621 92.4023C728.113 93.0469 727.859 93.7891 727.859 94.6289C727.859 95.8594 728.445 96.8262 729.617 97.5293C730.809 98.2324 732.469 98.584 734.598 98.584ZM736.033 73.7402C737.713 73.7402 738.943 73.2227 739.725 72.1875C740.506 71.1523 740.896 69.7461 740.896 67.9688C740.896 65.9961 740.486 64.5215 739.666 63.5449C738.865 62.5488 737.654 62.0508 736.033 62.0508C734.393 62.0508 733.162 62.5488 732.342 63.5449C731.521 64.5215 731.111 65.9961 731.111 67.9688C731.111 69.7461 731.512 71.1523 732.312 72.1875C733.133 73.2227 734.373 73.7402 736.033 73.7402ZM767.498 44.4141V53.7012C767.498 55.3223 767.439 56.8652 767.322 58.3301C767.225 59.7949 767.146 60.8301 767.088 61.4355H767.557C768.26 60.3027 769.09 59.3848 770.047 58.6816C771.023 57.9785 772.098 57.4609 773.27 57.1289C774.441 56.7969 775.701 56.6309 777.049 56.6309C779.412 56.6309 781.473 57.0508 783.23 57.8906C784.988 58.7109 786.355 60.0098 787.332 61.7871C788.309 63.5449 788.797 65.8301 788.797 68.6426V90H779.861V70.8691C779.861 68.5254 779.432 66.7578 778.572 65.5664C777.713 64.375 776.385 63.7793 774.588 63.7793C772.791 63.7793 771.375 64.1992 770.34 65.0391C769.305 65.8594 768.572 67.0801 768.143 68.7012C767.713 70.3027 767.498 72.2656 767.498 74.5898V90H758.562V44.4141H767.498ZM811.795 83.4668C812.771 83.4668 813.719 83.3691 814.637 83.1738C815.574 82.9785 816.502 82.7344 817.42 82.4414V89.0918C816.463 89.5215 815.271 89.873 813.846 90.1465C812.439 90.4395 810.896 90.5859 809.217 90.5859C807.264 90.5859 805.506 90.2734 803.943 89.6484C802.4 89.0039 801.18 87.9004 800.281 86.3379C799.402 84.7559 798.963 82.5586 798.963 79.7461V63.9551H794.686V60.1758L799.607 57.1875L802.186 50.2734H807.898V57.2461H817.068V63.9551H807.898V79.7461C807.898 80.9961 808.25 81.9336 808.953 82.5586C809.676 83.1641 810.623 83.4668 811.795 83.4668Z" fill="black"/>
</svg>
