<svg width="70" height="70" viewBox="0 0 70 70" fill="none" xmlns="http://www.w3.org/2000/svg">
<path d="M67.5849 26.0721L62.8016 24.8516C61.0822 24.3978 59.6204 23.2176 58.7652 21.5928C58.5553 21.1776 58.3219 20.775 58.0886 20.3723C57.1282 18.772 56.8568 16.8226 57.3417 15.0021L58.7068 10.0346C58.8995 9.31922 58.8594 8.55747 58.5932 7.86827C58.3271 7.17902 57.85 6.60146 57.2364 6.22652L47.7635 0.441631C47.1484 0.0727606 46.4338 -0.0710912 45.7329 0.0329792C45.0313 0.137048 44.3829 0.4825 43.8902 1.01538L40.4599 4.67688C39.2261 6.02269 37.5053 6.75884 35.7235 6.70263H34.2766C32.4949 6.75875 30.774 6.02264 29.5402 4.67688L26.11 1.01538C25.6173 0.4825 24.9688 0.137049 24.2673 0.0329792C23.5663 -0.0710898 22.8517 0.072755 22.2366 0.441631L12.7637 6.16543C12.1502 6.5403 11.6731 7.11785 11.4069 7.80718C11.1408 8.49643 11.1007 9.25811 11.2934 9.97353L12.6584 14.941C13.1433 16.7615 12.872 18.7109 11.9116 20.3112C11.6782 20.7139 11.4564 21.1165 11.235 21.5317C10.3845 23.1658 8.92195 24.3558 7.19862 24.8151L2.41529 26.0356C1.72051 26.2143 1.10384 26.6333 0.665294 27.225C0.227268 27.8168 -0.00762451 28.5458 0.000188813 29.2939V40.7426C0.000709613 41.4847 0.238735 42.205 0.676227 42.7891C1.11425 43.3732 1.72623 43.7873 2.41529 43.9644L7.19862 45.1849C8.92208 45.6442 10.3846 46.8342 11.235 48.4683C11.4569 48.8835 11.6782 49.2861 11.9116 49.6888C12.872 51.2891 13.1433 53.2385 12.6584 55.059L11.2934 60.0265C11.1007 60.7419 11.1408 61.5036 11.4069 62.1928C11.6731 62.8821 12.1501 63.4591 12.7637 63.834L22.2372 69.5584H22.2367C22.8518 69.9272 23.5663 70.0711 24.2673 69.967C24.9689 69.863 25.6173 69.5175 26.11 68.9846L29.5402 65.3231C30.7741 63.9773 32.4949 63.2412 34.2766 63.2974H35.7236C37.5053 63.2413 39.2262 63.9774 40.46 65.3231L43.8902 68.9846C44.3829 69.5175 45.0314 69.863 45.7329 69.967C46.4339 70.0711 47.1485 69.9272 47.7635 69.5584L57.237 63.834H57.2365C57.85 63.4591 58.3271 62.8821 58.5933 62.1928C58.8594 61.5036 58.8995 60.7419 58.7068 60.0265L57.3417 55.059C56.8569 53.2385 57.1282 51.2891 58.0886 49.6888C58.322 49.2861 58.5553 48.8835 58.7652 48.4683C59.6157 46.8342 61.0782 45.6442 62.8016 45.1849L67.5849 43.9644C68.274 43.7873 68.8859 43.3732 69.324 42.7891C69.7615 42.205 69.9995 41.4847 70 40.7426V29.2939C69.9995 28.5518 69.7615 27.8315 69.324 27.2473C68.8859 26.6633 68.274 26.2492 67.5849 26.0721L67.5849 26.0721ZM34.9996 51.6664C30.7793 51.6664 26.7313 49.9125 23.747 46.7904C20.7626 43.6683 19.086 39.4336 19.086 35.0185C19.086 30.6033 20.7626 26.3687 23.747 23.2466C26.7313 20.1245 30.7792 18.3706 34.9996 18.3706C39.22 18.3706 43.2678 20.1245 46.2522 23.2466C49.2366 26.3687 50.9132 30.6033 50.9132 35.0185C50.9132 39.4336 49.2366 43.6683 46.2522 46.7904C43.2678 49.9125 39.22 51.6664 34.9996 51.6664Z" fill="white"/>
</svg>
