<svg width="438" height="398" viewBox="0 0 438 398" fill="none" xmlns="http://www.w3.org/2000/svg">
<path d="M275.95 0.5C273 0.5 270 1.3 267.25 3.15L90 119H8C3.6 119 0 122.6 0 127V271C0 275.4 3.6 279 8 279H90L267.25 394.85C270 396.65 273.05 397.5 275.95 397.5C284.3 397.5 292 390.85 292 381.45V16.55C292 7.15 284.3 0.5 275.95 0.5ZM256 344.5L109.7 248.85L100.7 243H36V155H100.7L109.65 149.15L256 53.5V344.5ZM430 181H366C361.6 181 358 184.6 358 189V209C358 213.4 361.6 217 366 217H430C434.4 217 438 213.4 438 209V189C438 184.6 434.4 181 430 181ZM409.05 311.9L353.9 280.05C352.994 279.531 351.994 279.196 350.959 279.063C349.923 278.931 348.871 279.004 347.864 279.278C346.856 279.552 345.913 280.021 345.087 280.66C344.261 281.299 343.569 282.094 343.05 283L333.1 300.25C330.9 304.05 332.2 308.95 336 311.15L391.15 343C392.056 343.519 393.056 343.854 394.091 343.987C395.127 344.119 396.178 344.046 397.186 343.772C398.194 343.498 399.137 343.029 399.963 342.39C400.789 341.751 401.481 340.956 402 340.05L411.95 322.8C414.15 319 412.8 314.1 409.05 311.9V311.9ZM343 115C343.519 115.906 344.211 116.701 345.037 117.34C345.863 117.979 346.806 118.448 347.814 118.722C348.822 118.996 349.873 119.069 350.909 118.937C351.944 118.804 352.944 118.469 353.85 117.95L409 86.1C412.8 83.9 414.1 79 411.9 75.2L402 58C401.481 57.0938 400.789 56.2987 399.963 55.66C399.137 55.0213 398.194 54.5516 397.186 54.2776C396.178 54.0037 395.127 53.9309 394.091 54.0634C393.056 54.196 392.056 54.5312 391.15 55.05L336 86.9C334.174 87.9645 332.844 89.7088 332.3 91.7514C331.757 93.7941 332.044 95.9688 333.1 97.8L343 115Z" fill="white"/>
</svg>
