<svg xmlns="http://www.w3.org/2000/svg" preserveAspectRatio="xMidYMid meet" viewBox="0.15 120.38 511.55 271.12">

<g transform="translate(0.000000,512.000000) scale(0.100000,-0.100000)" fill="#000000" stroke="none">
<path d="M1260 3910 c-758 -58 -1326 -726 -1252 -1473 54 -542 410 -990 923 -1162 220 -73 150 -70 1629 -70 1479 0 1409 -3 1629 70 375 126 689 419 830 776 290 731 -86 1545 -830 1793 -216 73 -151 70 -1559 72 -696 1 -1312 -2 -1370 -6z m355 -328 c147 -42 259 -96 377 -184 302 -223 465 -627 404 -998 -71 -429 -364 -748 -796 -867 -51 -14 -103 -18 -245 -18 -224 0 -321 23 -495 117 -396 212 -618 654 -546 1088 71 426 384 768 791 863 109 26 111 26 280 22 121 -3 177 -8 230 -23z"/>
</g>
</svg>